<svg width="115" height="112" viewBox="0 0 115 112" fill="none" xmlns="http://www.w3.org/2000/svg">
<g clip-path="url(#clip0_3_306)">
<path d="M60.3 51.7L70 60.3L90.6 38.5C85.4 33.6 78.6 29.7 70.5 27.3C70.2 27.2 70.3 26.7 70.6 26.7L98.5 30.1L101.7 26.7C96.6 22 89.9 18.3 82.1 15.9C81.8 15.8 81.9 15.3 82.2 15.3L109.3 18.6L114.9 12.6L106.8 4.90001C100.1 -1.39999 89.6 -1.09999 83.3 5.60001L50.1 40.8C36.8 35.7 21.2 38.8 10.8 49.9C-2.99999 64.5 -2.29999 87.6 12.3 101.4C26.9 115.2 49.8 114.5 63.6 99.9C64.2 99.2 64.8 98.6 65.4 97.9C65.4 97.9 65.6 97.7 65.6 97.6C66.1 97 66.6 96.3 67 95.7C67 95.7 67 95.7 67 95.6C67.4 95 67.7 94.4 68.1 93.9C68.8 92.7 69.5 91.4 70 90.1C72 84.7 72.7 78.9 72 73.2C70.8 65.7 66.8 58.2 60 51.8L60.3 51.7ZM27.3 93.6C22.6 93.6 18.7 89.7 18.7 84.9C18.7 80.1 22.6 76.2 27.3 76.2C32 76.2 35.7 79.9 35.9 84.5V84.9C35.9 89.7 32 93.6 27.3 93.6Z" fill="black"/>
</g>
<defs>
<clipPath id="clip0_3_306">
<rect width="115" height="112" fill="white"/>
</clipPath>
</defs>
</svg>
