<svg width="114" height="134" viewBox="0 0 114 134" fill="none" xmlns="http://www.w3.org/2000/svg">
<g clip-path="url(#clip0_3_343)">
<path d="M85.5 0C79.8 0 74.3 2.2 70.2 6.3L68.7 7.8C68 18.6 64.4 28.4 58.7 37.5C60.7 28.8 62.9 20 61.4 15.1L47.5 29C46.8 39.7 43.2 49.5 37.5 58.5C39.8 49.9 41.3 42 40.4 36.1L26.3 50.1C21.5 54.9 18.8 61.4 18.7 68.2V106.8C18.6 106.8 5.2 120 5.2 120C1.9 123.2 0 127.7 0 132.3V133.4L99.2 34.9C108.5 25.7 113.7 13.1 113.7 0.1H85.5V0Z" fill="black"/>
<path d="M77.8 83L105.1 55.7999C110.5 50.5 113.5 43.2 113.5 35.7V19.2C112.6 22.8 111.4 26.2 109.5 28.9C105.9 33.9 101.9 38.6 97.5 42.9L50.6 89.3999L68.7 87.3C72.1 86.9 75.3 85.3999 77.7 83H77.8Z" fill="black"/>
<path d="M45.5 94.6L23.5 116.5L35.9 116.7C40.9 116.7 45.6 114.9 49.2 111.4L70.4 90.4C69 91.3 67.7 91.8 66.3 92.2L45.6 94.6H45.5Z" fill="black"/>
</g>
<defs>
<clipPath id="clip0_3_343">
<rect width="114" height="134" fill="white"/>
</clipPath>
</defs>
</svg>
