<svg width="285" height="371" viewBox="0 0 285 371" fill="none" xmlns="http://www.w3.org/2000/svg">
<g clip-path="url(#clip0_77_6552)">
<path opacity="0.62" d="M192.348 170.76C239.538 170.76 277.793 132.538 277.793 85.3887C277.793 38.2393 239.538 0.0170898 192.348 0.0170898C145.159 0.0170898 106.904 38.2393 106.904 85.3887C106.904 132.538 145.159 170.76 192.348 170.76Z" fill="#FEFBFD"/>
<path d="M257.881 48.5133C251.274 36.6385 241.606 26.9274 230.135 20.2336C228.325 19.1771 226.016 19.5574 224.611 21.121L224.535 21.2055C222.632 23.3185 223.19 26.6147 225.643 28.0515C235.727 33.9508 244.219 42.4956 250.022 52.9505C251.147 54.9789 253.668 55.7649 255.766 54.7845L255.867 54.7338C258.219 53.6435 259.133 50.7784 257.872 48.5133H257.881Z" fill="white"/>
<path d="M117.876 95.0659C116.497 84.9914 117.207 75.0605 119.694 65.7382C120.295 63.4985 122.537 62.1124 124.821 62.5181H124.829C127.434 62.9829 129.075 65.5692 128.39 68.1216C126.208 76.3368 125.59 85.0844 126.817 93.9503C127.138 96.283 125.548 98.4551 123.239 98.92C120.667 99.4355 118.223 97.6606 117.867 95.0744L117.876 95.0659Z" fill="white"/>
<path d="M161 340.624L163.8 365.236C164.155 368.363 166.98 370.603 170.102 370.248L209.03 365.827C212.075 365.481 214.351 362.776 214.072 359.725C212.651 344.157 203.853 334.919 184.897 341.867" fill="#D5C4E1"/>
<path d="M175.008 345.121C168.19 345.966 160.67 344.022 159.917 337.371C159.223 331.26 162.582 328.758 167.268 329.586L180.405 328.09C184.786 326.231 188.627 327.913 189.32 334.024C190.073 340.675 181.851 344.411 175.008 345.121Z" fill="#B3B3B3"/>
<path d="M141.984 267.161C144.886 265.04 148.98 265.691 151.365 268.37L178.079 298.365C179.517 299.98 180.456 302.718 180.735 305.194L180.862 327.769C180.879 331.361 177.986 333.652 174.407 334.015C170.305 334.429 167.124 332.156 167.099 328.141L166.989 308.972C166.981 307.434 166.414 305.955 165.39 304.806L140.885 277.286C138.212 274.286 138.651 269.595 141.976 267.161H141.984Z" fill="#E5E5E5"/>
<mask id="mask0_77_6552" style="mask-type:luminance" maskUnits="userSpaceOnUse" x="139" y="265" width="42" height="70">
<path d="M141.984 267.161C144.886 265.04 148.98 265.691 151.365 268.37L178.079 298.365C179.517 299.98 180.456 302.718 180.735 305.194L180.862 327.769C180.879 331.361 177.986 333.652 174.407 334.015C170.305 334.429 167.124 332.156 167.099 328.141L166.989 308.972C166.981 307.434 166.414 305.955 165.39 304.806L140.885 277.286C138.212 274.286 138.651 269.595 141.976 267.161H141.984Z" fill="white"/>
</mask>
<g mask="url(#mask0_77_6552)">
<path d="M106.355 292.846C138.5 299.819 170.212 279.433 177.191 247.308" stroke="#B2B2B2" stroke-width="1.19" stroke-miterlimit="10"/>
<path d="M118.578 303.521C150.722 310.494 182.435 290.108 189.414 257.983" stroke="#B2B2B2" stroke-width="1.19" stroke-miterlimit="10"/>
<path d="M125.752 294.689C149.826 317.078 187.511 315.734 209.927 291.68" stroke="#B2B2B2" stroke-width="1.19" stroke-miterlimit="10"/>
<path d="M123.281 302.794C144.183 328.175 181.716 331.817 207.11 310.941" stroke="#B2B2B2" stroke-width="1.19" stroke-miterlimit="10"/>
</g>
<path d="M193.862 340.033C199.454 339.441 204.36 340.599 208.166 344.521C208.843 345.214 208.801 346.338 208.073 346.98C207.422 347.555 206.441 347.529 205.815 346.929C202.837 344.081 198.912 342.923 194.116 343.312C193.245 343.38 192.466 342.737 192.373 341.858C192.272 340.937 192.949 340.126 193.871 340.033H193.862Z" fill="#9888BF"/>
<path d="M168.852 370.991L207.623 366.584C208.584 366.475 209.275 365.608 209.165 364.648L209.051 363.641C208.941 362.681 208.074 361.991 207.113 362.1L168.342 366.507C167.381 366.616 166.691 367.483 166.8 368.443L166.915 369.451C167.024 370.411 167.891 371.101 168.852 370.991Z" fill="#9888BF"/>
<path d="M181.378 161.488C216.508 181.806 246.275 180.961 271.246 161.142C275.661 157.634 283.148 162.088 284.45 169.002C291.37 205.683 231.049 266.392 181.217 252.987" fill="#EEE5F1"/>
<path d="M76.5451 177.522C44.7393 224.564 16.8078 279.07 46.7526 299.667C74.3965 318.684 142.584 301.247 176.742 262.817C224.552 209.021 215.492 151.414 201.476 132.406C190.801 117.928 143.608 91.2204 127.324 110.347C114.814 125.036 110.508 131.426 96.9651 142.988C87.4826 151.084 83.9636 166.551 76.5451 177.522Z" fill="#D1C4DE"/>
<mask id="mask1_77_6552" style="mask-type:luminance" maskUnits="userSpaceOnUse" x="33" y="103" width="180" height="205">
<path d="M76.5451 177.522C44.7393 224.564 16.8078 279.07 46.7526 299.667C74.3965 318.684 142.584 301.247 176.742 262.817C224.552 209.021 215.492 151.414 201.476 132.406C190.801 117.928 143.608 91.2204 127.324 110.347C114.814 125.036 110.508 131.426 96.9651 142.988C87.4826 151.084 83.9636 166.551 76.5451 177.522Z" fill="white"/>
</mask>
<g mask="url(#mask1_77_6552)">
<path d="M219.265 198.938C177.334 205.252 152.465 237.741 141.121 290.962L195.597 286.271L219.265 198.938Z" fill="#E6E6E6"/>
<mask id="mask2_77_6552" style="mask-type:luminance" maskUnits="userSpaceOnUse" x="141" y="198" width="79" height="93">
<path d="M219.265 198.938C177.334 205.252 152.465 237.741 141.121 290.962L195.597 286.271L219.265 198.938Z" fill="white"/>
</mask>
<g mask="url(#mask2_77_6552)">
<path d="M138.879 263.121C163.156 267.525 187.45 269.207 201.425 260.814" stroke="#B3B3B3" stroke-width="1.34" stroke-miterlimit="10"/>
<path d="M146.162 251.044C170.439 255.447 197.897 257.721 211.88 249.336" stroke="#B3B3B3" stroke-width="1.34" stroke-miterlimit="10"/>
<path d="M154.807 238.983C179.084 243.386 203.581 246.581 217.555 238.188" stroke="#B3B3B3" stroke-width="1.34" stroke-miterlimit="10"/>
<path d="M164.426 227.218C185.167 230.979 207.397 232.526 221.219 227.692" stroke="#B3B3B3" stroke-width="1.34" stroke-miterlimit="10"/>
<path d="M179.043 215.166C193.635 217.6 211.432 218.876 223.165 216.89" stroke="#B3B3B3" stroke-width="1.34" stroke-miterlimit="10"/>
<path d="M145.02 275.672C156.152 277.692 180.006 278.445 195.731 275.064" stroke="#B3B3B3" stroke-width="1.34" stroke-miterlimit="10"/>
</g>
</g>
<path d="M68.0099 311.254L49.8146 329.35C47.9282 331.226 47.9198 334.277 49.7977 336.162L78.6513 365.135C80.4784 366.969 83.439 367.028 85.3508 365.27C97.2272 354.367 99.4011 341.478 81.8657 330.753" fill="#D5C4E1"/>
<path d="M73.1777 325.014C68.28 320.196 65.1417 313.097 69.8872 308.381C74.252 304.045 78.3039 305.118 80.5624 309.31L89.8842 318.675C94.063 320.949 95.1203 325.005 90.764 329.341C86.0185 334.066 77.974 329.941 73.1777 325.022" fill="#B3B3B3"/>
<path d="M112.199 257.476C115.659 258.431 117.697 262.04 117.071 265.581L111.759 298.408C111.387 300.538 109.822 302.972 108.046 304.73L90.4088 318.844C87.6004 321.092 84.0053 320.247 81.5015 317.669C78.6339 314.711 78.4393 310.815 81.5776 308.296L96.55 296.312C97.7512 295.348 98.5632 293.987 98.8255 292.475L103.562 262.919C104.256 258.963 108.215 256.394 112.191 257.484L112.199 257.476Z" fill="#E5E5E5"/>
<mask id="mask3_77_6552" style="mask-type:luminance" maskUnits="userSpaceOnUse" x="79" y="257" width="39" height="64">
<path d="M112.199 257.476C115.659 258.431 117.697 262.04 117.071 265.581L111.759 298.408C111.387 300.538 109.822 302.972 108.046 304.73L90.4088 318.844C87.6004 321.092 84.0053 320.247 81.5015 317.669C78.6339 314.711 78.4393 310.815 81.5776 308.296L96.55 296.312C97.7512 295.348 98.5632 293.987 98.8255 292.475L103.562 262.919C104.256 258.963 108.215 256.394 112.191 257.484L112.199 257.476Z" fill="white"/>
</mask>
<g mask="url(#mask3_77_6552)">
<path d="M71.1895 247.435C88.6065 275.318 125.344 283.812 153.25 266.418" stroke="#B2B2B2" stroke-width="1.19" stroke-miterlimit="10"/>
<path d="M72.0605 263.637C89.4776 291.52 126.215 300.014 154.121 282.62" stroke="#B2B2B2" stroke-width="1.19" stroke-miterlimit="10"/>
<path d="M83.3965 262.614C84.1155 295.475 111.362 321.523 144.25 320.796" stroke="#B2B2B2" stroke-width="1.19" stroke-miterlimit="10"/>
<path d="M75.8587 266.502C72.2214 299.169 95.7796 328.589 128.465 332.224" stroke="#B2B2B2" stroke-width="1.19" stroke-miterlimit="10"/>
</g>
<path d="M87.0004 335.291C91.433 338.756 94.1398 342.999 94.1314 348.468C94.1314 349.431 93.3193 350.209 92.355 350.166C91.4837 350.124 90.7985 349.423 90.7647 348.56C90.6124 344.444 88.5992 340.886 84.8942 337.818C84.2174 337.26 84.1159 336.255 84.6489 335.562C85.2156 334.826 86.2645 334.716 87.0004 335.291Z" fill="#9888BF"/>
<path d="M50.5763 336.988L77.5158 365.194C78.1834 365.893 79.2918 365.919 79.9914 365.252L80.7257 364.552C81.4254 363.885 81.4513 362.777 80.7836 362.078L53.8442 333.872C53.1766 333.173 52.0682 333.148 51.3686 333.815L50.6343 334.515C49.9346 335.182 49.9087 336.289 50.5763 336.988Z" fill="#9888BF"/>
<path d="M56.3274 272.727C75.965 238.715 84.3032 206.773 74.9513 201.383C65.5994 195.992 42.0988 219.194 22.4613 253.206C2.82369 287.218 -5.51449 319.16 3.8374 324.55C13.1893 329.941 36.6899 306.738 56.3274 272.727Z" fill="#D4C3E0"/>
<path d="M112.361 123.599C112.361 123.599 112.395 123.574 112.404 123.565C112.421 123.557 112.438 123.54 112.455 123.531L112.361 123.599Z" fill="#333333"/>
<path d="M115.508 121.267C114.451 122.086 113.41 122.856 112.412 123.565L115.508 121.267Z" fill="#333333"/>
<path d="M172.757 135.398L172.724 135.372C179.474 137.79 186.859 138.753 194.463 137.883C220.999 134.865 240.057 110.93 237.037 84.425C235.988 75.2125 232.402 66.9044 227.064 60.1007C217.201 46.9581 200.833 39.2332 183.323 41.2278C175.447 42.1237 168.24 44.8959 162.082 49.0204L162.108 48.9866C157.878 49.1979 154.638 47.0511 151.906 43.6535C151.398 43.0281 150.383 43.1971 150.13 43.9578C148.852 47.8033 149.326 51.6066 151.322 55.3677C151.754 56.1706 151.043 57.1341 150.163 56.8806C145.164 55.4353 141.738 52.0968 139.674 47.1018C139.201 45.9693 137.56 45.9946 137.179 47.161C133.668 57.9708 135.614 67.4369 142.669 75.6266L142.686 75.6097C142.246 77.1311 141.891 78.6862 141.611 80.2582C141.4 81.2809 141.222 82.3205 141.079 83.3685C140.216 93.1134 134.345 102.546 127.324 110.313" fill="#333333"/>
<path d="M217.176 63.7771C213.801 63.8616 210.815 65.4083 208.878 67.7579C208.481 68.2481 208.134 69.0256 207.846 69.9215C207.161 72.0514 203.972 71.6795 203.896 69.4482C203.896 69.4229 203.896 69.3975 203.896 69.3722C203.752 63.6503 208.497 58.8835 214.503 58.7313C216.99 58.6722 219.308 59.4075 221.169 60.7006C222.81 61.8416 221.651 64.3856 219.689 63.9884C218.877 63.8278 218.039 63.7517 217.176 63.7771Z" fill="#2D2D2E"/>
<path d="M185.26 67.4029C188.567 66.7267 191.824 67.5634 194.235 69.4228C194.734 69.8116 195.25 70.4878 195.723 71.2991C196.874 73.2177 199.894 72.1443 199.471 69.9468C199.471 69.9215 199.462 69.8961 199.454 69.8708C198.312 64.2588 192.61 60.6837 186.723 61.8838C184.287 62.3825 182.197 63.6164 180.675 65.2984C179.33 66.7774 181.03 68.9918 182.857 68.172C183.61 67.8339 184.414 67.5719 185.251 67.4029H185.26Z" fill="#2D2D2E"/>
<path d="M215.531 78.2939C217.286 78.0945 218.509 76.1845 218.263 74.0279C218.018 71.8713 216.396 70.2847 214.642 70.4841C212.887 70.6835 211.664 72.5935 211.909 74.7501C212.155 76.9067 213.776 78.4933 215.531 78.2939Z" fill="white" stroke="white" stroke-width="0.99" stroke-miterlimit="10"/>
<path d="M191.762 81.5998C193.521 81.3998 194.748 79.4857 194.502 77.3244C194.256 75.1632 192.63 73.5732 190.871 73.7732C189.112 73.9732 187.885 75.8873 188.131 78.0485C188.377 80.2098 190.003 81.7997 191.762 81.5998Z" fill="white" stroke="white" stroke-width="0.99" stroke-miterlimit="10"/>
<path d="M205.18 88.3128L216.405 87.0366C223.206 86.2675 229.601 88.9044 233.907 93.5867L234.618 94.3812C235.117 94.9813 237.003 97.4661 239.025 100.145C242.899 105.292 246.367 110.735 249.395 116.423L255.452 127.816C256.552 131.189 256.805 134.899 253.972 137.054C250.732 139.531 246.147 138.635 244.041 135.254C236.682 123.438 223.173 116.914 209.334 118.486L208.623 118.57C200.257 119.517 192.712 113.516 191.764 105.166C190.817 96.8068 196.823 89.2678 205.18 88.3128Z" fill="#EAC775"/>
<path d="M227.969 110.685C221.676 116.026 212.929 115.308 208.835 105.766C208.547 105.106 209.233 104.456 209.884 104.768C215.205 107.346 221.168 108.724 227.555 109.332C228.24 109.4 228.502 110.245 227.978 110.685H227.969Z" fill="white"/>
<path d="M162.692 110.364C165.252 110.364 167.328 108.29 167.328 105.732C167.328 103.174 165.252 101.101 162.692 101.101C160.132 101.101 158.057 103.174 158.057 105.732C158.057 108.29 160.132 110.364 162.692 110.364Z" fill="#2D2D2E"/>
<path d="M163.698 91.474C165.379 91.474 166.743 90.1117 166.743 88.4313C166.743 86.7509 165.379 85.3887 163.698 85.3887C162.016 85.3887 160.652 86.7509 160.652 88.4313C160.652 90.1117 162.016 91.474 163.698 91.474Z" fill="#2D2D2E"/>
<path d="M175.058 99.6383C177.455 99.6383 179.398 97.6972 179.398 95.3026C179.398 92.908 177.455 90.9668 175.058 90.9668C172.662 90.9668 170.719 92.908 170.719 95.3026C170.719 97.6972 172.662 99.6383 175.058 99.6383Z" fill="#2D2D2E"/>
<path d="M123.417 224.066L123.391 224.091C101.804 215.715 76.2747 201.93 60.4818 186.354C20.5554 146.985 0.812168 75.2042 24.6327 81.4586C37.7948 84.9154 90.5281 97.0183 126.183 126.076C137.89 135.618 144.733 153.172 151.052 169.205C151.467 170.363 151.932 171.572 152.439 172.806L151.078 169.256C151.543 170.439 152 171.622 152.439 172.806C165.466 208.472 155.84 231.52 123.417 224.066Z" fill="#333333"/>
<mask id="mask4_77_6552" style="mask-type:luminance" maskUnits="userSpaceOnUse" x="14" y="81" width="145" height="145">
<path d="M123.417 224.066L123.391 224.091C101.804 215.715 76.2747 201.93 60.4818 186.354C20.5554 146.985 0.812168 75.2042 24.6327 81.4586C37.7948 84.9154 90.5281 97.0183 126.183 126.076C137.89 135.618 144.733 153.172 151.052 169.205C151.467 170.363 151.932 171.572 152.439 172.806L151.078 169.256C151.543 170.439 152 171.622 152.439 172.806C165.466 208.472 155.84 231.52 123.417 224.066Z" fill="white"/>
</mask>
<g mask="url(#mask4_77_6552)">
<path d="M165.407 178.747C162.261 219.257 148.997 238.772 121.04 227.768L43.2089 184.233L9.19531 89.8682L22.3913 75.0522L80.0731 78.6105L152.38 142.7L165.407 178.747Z" fill="#EEE5F1"/>
<path d="M180.084 172.273C147.61 167.05 117.048 189.126 111.82 221.573" stroke="#B2B2B2" stroke-width="1.19" stroke-miterlimit="10"/>
<path d="M191.959 184.579C159.485 179.356 128.923 201.432 123.695 233.878" stroke="#B2B2B2" stroke-width="1.19" stroke-miterlimit="10"/>
<path d="M167.826 161.252C135.234 156.789 105.204 179.575 100.738 212.132C100.197 216.113 100.053 220.051 100.29 223.914" stroke="#B2B2B2" stroke-width="1.19" stroke-miterlimit="10"/>
<path d="M154.723 152.369C122.063 148.448 92.406 171.715 88.481 204.348C87.6013 211.684 88.0919 218.868 89.7583 225.638" stroke="#B2B2B2" stroke-width="1.19" stroke-miterlimit="10"/>
<path d="M145.199 141.737C112.64 137.071 82.4589 159.663 77.7895 192.194C76.9013 198.381 77.0028 204.483 77.9671 210.34" stroke="#B2B2B2" stroke-width="1.19" stroke-miterlimit="10"/>
<path d="M132.459 121.858C101.119 111.877 67.6129 129.178 57.6313 160.483C47.6412 191.797 64.9568 225.275 96.2888 235.248" stroke="#B2B2B2" stroke-width="1.19" stroke-miterlimit="10"/>
<path d="M144.108 133.243C112.767 123.261 79.2613 140.562 69.2797 171.867C59.2897 203.181 76.6052 236.659 107.937 246.632" stroke="#B2B2B2" stroke-width="1.19" stroke-miterlimit="10"/>
<path d="M111.269 107.152C78.5158 104.101 49.493 128.155 46.4393 160.88C45.4835 171.166 47.2006 181.088 51.0326 189.954" stroke="#B2B2B2" stroke-width="1.19" stroke-miterlimit="10"/>
<path d="M92.009 96.1479C59.1544 97.7284 33.8028 125.619 35.3846 158.446" stroke="#B2B2B2" stroke-width="1.19" stroke-miterlimit="10"/>
<path d="M83.2024 82.4814C50.3477 84.0619 24.9962 111.953 26.578 144.78" stroke="#B2B2B2" stroke-width="1.19" stroke-miterlimit="10"/>
<path d="M72.3333 71.6714C39.4786 73.2519 14.127 101.143 15.7088 133.97" stroke="#B2B2B2" stroke-width="1.19" stroke-miterlimit="10"/>
</g>
<path d="M203.641 133.217C183.475 130.698 152.65 118.173 134.438 106.746C131.646 104.997 127.992 105.546 125.86 108.065C123.314 111.073 123.957 115.629 127.239 117.818C145.9 130.259 180.649 145.489 202.253 146.968C206.001 147.222 209.215 144.373 209.359 140.621L209.384 139.995C209.511 136.589 207.024 133.631 203.649 133.209L203.641 133.217Z" fill="#BC95BF"/>
<path d="M182.638 195.701C178.087 195.701 174.263 192.287 173.747 187.757C173.189 182.855 176.725 178.409 181.64 177.851C181.978 177.809 182.325 177.792 182.663 177.792C187.214 177.792 191.038 181.207 191.554 185.737C191.824 188.112 191.156 190.453 189.659 192.321C188.162 194.188 186.038 195.372 183.661 195.642C183.323 195.684 182.976 195.701 182.638 195.701Z" fill="#BA93BD"/>
<path d="M182.663 178.519C186.851 178.519 190.361 181.655 190.835 185.821C191.08 188.002 190.463 190.157 189.092 191.873C187.722 193.597 185.768 194.679 183.577 194.924C183.264 194.958 182.951 194.975 182.638 194.975C178.451 194.975 174.94 191.839 174.467 187.672C173.951 183.167 177.207 179.077 181.716 178.57C182.029 178.536 182.342 178.519 182.655 178.519M182.663 177.074C182.3 177.074 181.927 177.091 181.555 177.133C176.243 177.733 172.42 182.534 173.029 187.841C173.587 192.777 177.783 196.428 182.638 196.428C183.002 196.428 183.374 196.411 183.746 196.369C189.058 195.769 192.882 190.968 192.273 185.661C191.714 180.725 187.519 177.074 182.663 177.074Z" fill="#BA93BD"/>
<path d="M203.937 193.386C206.619 193.386 208.793 191.214 208.793 188.534C208.793 185.855 206.619 183.683 203.937 183.683C201.256 183.683 199.082 185.855 199.082 188.534C199.082 191.214 201.256 193.386 203.937 193.386Z" fill="#9488BA"/>
</g>
<defs>
<clipPath id="clip0_77_6552">
<rect width="285" height="371" fill="white"/>
</clipPath>
</defs>
</svg>
