<svg width="589" height="135" viewBox="0 0 589 135" fill="none" xmlns="http://www.w3.org/2000/svg">
<g clip-path="url(#clip0_3_248)">
<path d="M159.6 104.7V125.8C159.6 128.4 158.8 130.5 157.2 132C155.6 133.5 153.5 134.3 151 134.3C148.5 134.3 146.3 133.5 144.8 132C143.2 130.5 142.4 128.4 142.4 125.8H147.2C147.2 127.1 147.6 128.1 148.2 128.9C148.8 129.7 149.8 130 151 130C152.2 130 153.2 129.6 153.8 128.8C154.4 128 154.8 127 154.8 125.7V104.6H159.6V104.7Z" fill="white"/>
<path d="M176 133.3C174.4 132.6 173.2 131.6 172.3 130.4C171.4 129.1 171 127.7 171 126H176.1C176.2 127.3 176.7 128.3 177.6 129.1C178.5 129.9 179.7 130.3 181.3 130.3C182.9 130.3 184.2 129.9 185.2 129.1C186.1 128.3 186.6 127.3 186.6 126C186.6 124.7 186.3 124.2 185.7 123.6C185.1 123 184.4 122.5 183.6 122.2C182.7 121.9 181.6 121.5 180 121.1C178.1 120.6 176.5 120.1 175.3 119.6C174.1 119.1 173.1 118.3 172.2 117.2C171.4 116.1 170.9 114.6 170.9 112.8C170.9 111 171.3 109.6 172.2 108.4C173.1 107.2 174.2 106.2 175.7 105.5C177.2 104.8 179 104.5 181 104.5C183.8 104.5 186.2 105.2 188 106.6C189.8 108 190.8 110 191 112.4H185.7C185.7 111.3 185.1 110.4 184.2 109.7C183.3 108.9 182.1 108.6 180.5 108.6C178.9 108.6 178 109 177.1 109.7C176.2 110.4 175.8 111.4 175.8 112.7C175.8 114 176.1 114.3 176.6 114.9C177.1 115.5 177.8 115.9 178.7 116.3C179.6 116.7 180.7 117 182.2 117.4C184.1 117.9 185.7 118.5 186.9 119C188.1 119.5 189.2 120.4 190 121.5C190.9 122.6 191.3 124.1 191.3 125.9C191.3 127.7 190.9 128.8 190.1 130.1C189.3 131.4 188.1 132.5 186.6 133.3C185.1 134.1 183.3 134.5 181.2 134.5C179.1 134.5 177.5 134.2 175.9 133.5L176 133.3Z" fill="white"/>
<path d="M86 0C80.3 0 74.8 2.2 70.7 6.3L69.2 7.8C68.5 18.6 64.9 28.4 59.2 37.5C61.2 28.8 63.4 20 61.9 15.1L48 29C47.3 39.7 43.7 49.5 38 58.5C40.3 49.9 41.8 42 40.9 36.1L26.8 50.1C22 54.9 19.3 61.4 19.2 68.2V106.8C19.1 106.8 5.7 120 5.7 120C2.4 123.2 0.5 127.7 0.5 132.3V133.4L99.7 34.9C109 25.7 114.2 13.1 114.2 0.1H86V0Z" fill="white"/>
<path d="M78.3 83L105.6 55.8C111 50.5 114 43.2 114 35.7V19.2C113.1 22.8 111.9 26.2 110 28.9C106.4 33.9 102.4 38.6 98 42.9L51.1 89.4L69.2 87.3C72.6 86.9 75.8 85.4 78.2 83H78.3Z" fill="white"/>
<path d="M46 94.6L24 116.5L36.4 116.7C41.4 116.7 46.1 114.9 49.7 111.4L70.9 90.4C69.5 91.3 68.2 91.8 66.8 92.2L46.1 94.6H46Z" fill="white"/>
<path d="M235.9 57.6H195.1C195.4 61.3 196.6 64.1 198.6 66C200.7 67.9 203.2 68.9 206.2 68.9C210.7 68.9 213.8 67 215.6 63.2H234.8C233.8 67.1 232 70.5 229.5 73.6C226.9 76.7 223.7 79.1 219.9 80.9C216 82.7 211.7 83.5 206.9 83.5C202.1 83.5 196 82.3 191.5 79.8C187 77.3 183.5 73.8 181 69.3C178.5 64.7 177.2 59.4 177.2 53.3C177.2 47.2 178.4 41.8 180.9 37.3C183.4 32.7 186.9 29.2 191.4 26.8C195.9 24.3 201.1 23.1 206.9 23.1C212.7 23.1 217.7 24.3 222.1 26.7C226.5 29.1 230 32.5 232.5 36.9C235 41.3 236.2 46.5 236.2 52.4C236.2 58.3 236.1 55.8 235.9 57.7V57.6ZM217.8 47.6C217.8 44.5 216.7 42 214.6 40.2C212.5 38.4 209.9 37.5 206.7 37.5C203.5 37.5 201.1 38.4 199.1 40.1C197 41.9 195.7 44.4 195.3 47.6H217.9H217.8Z" fill="white"/>
<path d="M245.5 37.2C247.8 32.6 250.9 29.1 254.8 26.7C258.7 24.2 263.1 23 268 23C272.9 23 275.8 23.8 278.9 25.5C282 27.2 284.4 29.4 286.1 32.1V23.8H304.1V82.6H286.1V74.3C284.3 77 281.9 79.3 278.8 80.9C275.7 82.6 272 83.4 267.9 83.4C263.8 83.4 258.8 82.2 254.8 79.7C250.9 77.2 247.8 73.7 245.5 69.1C243.2 64.5 242.1 59.2 242.1 53.1C242.1 47 243.2 41.7 245.5 37.2ZM282.4 42.6C279.9 40 276.9 38.7 273.3 38.7C269.7 38.7 266.7 40 264.2 42.5C261.7 45.1 260.5 48.6 260.5 53.1C260.5 57.6 261.7 61.2 264.2 63.8C266.7 66.4 269.7 67.8 273.3 67.8C276.9 67.8 279.9 66.5 282.4 63.9C284.9 61.3 286.1 57.7 286.1 53.2C286.1 48.7 284.9 45.2 282.4 42.6Z" fill="white"/>
<path d="M350.1 67.4V82.7H340.9C334.4 82.7 329.3 81.1 325.6 77.9C321.9 74.7 320.1 69.5 320.1 62.2V38.8H312.9V23.8H320.1V9.5H338.1V23.8H349.9V38.8H338.1V62.4C338.1 64.2 338.5 65.4 339.4 66.2C340.2 67 341.6 67.4 343.6 67.4H350H350.1Z" fill="white"/>
<path d="M486.3 57.6H445.5C445.8 61.3 447 64.1 449 66C451.1 67.9 453.6 68.9 456.6 68.9C461.1 68.9 464.2 67 466 63.2H485.2C484.2 67.1 482.4 70.5 479.9 73.6C477.3 76.7 474.1 79.1 470.3 80.9C466.4 82.7 462.1 83.5 457.3 83.5C452.5 83.5 446.4 82.3 441.9 79.8C437.4 77.3 433.9 73.8 431.4 69.3C428.9 64.7 427.6 59.4 427.6 53.3C427.6 47.2 428.8 41.8 431.3 37.3C433.8 32.7 437.3 29.2 441.8 26.8C446.3 24.3 451.5 23.1 457.3 23.1C463.1 23.1 468.1 24.3 472.5 26.7C476.9 29.1 480.4 32.5 482.9 36.9C485.4 41.3 486.6 46.5 486.6 52.4C486.6 58.3 486.5 55.8 486.3 57.7V57.6ZM468.2 47.6C468.2 44.5 467.1 42 465 40.2C462.9 38.4 460.3 37.5 457.1 37.5C453.9 37.5 451.5 38.4 449.5 40.1C447.4 41.9 446.1 44.4 445.7 47.6H468.3H468.2Z" fill="white"/>
<path d="M551.5 80.9C547.5 79.1 544.3 76.7 542 73.7C539.7 70.6 538.4 67.2 538.1 63.4H555.9C556.1 65.4 557.1 67.1 558.7 68.4C560.4 69.7 562.5 70.3 564.9 70.3C567.3 70.3 568.9 69.9 570.1 69C571.3 68.1 571.9 67 571.9 65.6C571.9 64.2 571 62.7 569.3 61.9C567.5 61.1 564.7 60.2 560.8 59.2C556.6 58.2 553.1 57.2 550.3 56.1C547.5 55 545.1 53.3 543 50.9C541 48.5 539.9 45.4 539.9 41.4C539.9 37.4 540.8 35 542.7 32.2C544.6 29.4 547.3 27.2 550.9 25.6C554.5 24 558.8 23.2 563.8 23.2C571.2 23.2 577 25 581.3 28.7C585.6 32.4 588 37.2 588.6 43.3H571.9C571.6 41.3 570.7 39.6 569.2 38.4C567.7 37.2 565.7 36.6 563.2 36.6C560.7 36.6 559.5 37 558.3 37.8C557.2 38.6 556.6 39.7 556.6 41.1C556.6 42.5 557.5 44.1 559.3 44.9C561.1 45.7 563.9 46.6 567.7 47.4C572.1 48.5 575.6 49.6 578.3 50.7C581 51.8 583.4 53.5 585.5 56C587.6 58.4 588.6 61.7 588.7 65.8C588.7 69.2 587.7 72.3 585.8 75C583.9 77.7 581.1 79.8 577.5 81.4C573.9 82.9 569.7 83.7 564.9 83.7C560.1 83.7 555.2 82.8 551.2 81.1L551.5 80.9Z" fill="white"/>
<path d="M412.5 29.9C408.4 25.4 403 23.2 396.3 23.2C389.6 23.2 388.8 24 385.6 25.5C382.4 27 379.9 29.1 378.1 31.7V4.60001H360.1V82.6H378.1V58.5C378.1 58.5 378.1 48.5 378.5 46.6C378.9 44.7 378.8 45.4 379 44.9C379.5 43.6 380.2 42.5 381.1 41.6C383.1 39.4 385.9 38.3 389.3 38.3C392.7 38.3 395.5 39.4 397.5 41.6C399.5 43.8 400.6 46.8 400.6 50.8V82.7H418.5V48.3C418.5 40.5 416.5 34.4 412.4 29.9H412.5Z" fill="white"/>
<path d="M148.6 70.3C155.1 66.4 162.4 60.2 162.6 52.3C162.6 50.1 162.6 47.5 162.6 44.9V38.8H172.3V23.8H162.6V23.3C162.6 20.2 163.3 18.1 164.7 16.9C166.1 15.7 168.5 15.2 172 15.4V0.1C171.4 0.1 170.4 0 169 0C161 0 154.9 1.9 150.8 5.6C146.7 9.4 144.6 14.9 144.6 22.1V23.8H138.1V38.8H144.6V82.7H162.6V68.7C157.9 70.6 152.8 71.4 148.6 70.3Z" fill="white"/>
<path d="M522.1 26C518.9 27.9 516.3 30.4 514.2 33.6V23.8H496.2V28.7C497.2 36.6 505.7 44.1 511.2 49C506.7 49.5 501.3 48 496.2 45.3V82.6H514.2V55.3C514.2 50.4 515.3 47.1 517.6 45.1C519.8 43.2 523.2 42.2 527.7 42.2H532.7V23.1C528.8 23.1 525.3 24 522.2 25.9L522.1 26Z" fill="white"/>
</g>
<defs>
<clipPath id="clip0_3_248">
<rect width="588.5" height="134.3" fill="white" transform="translate(0.5)"/>
</clipPath>
</defs>
</svg>
