<svg width="589" height="136" viewBox="0 0 589 136" fill="none" xmlns="http://www.w3.org/2000/svg">
<g clip-path="url(#clip0_3_268)">
<path d="M235.9 57.8H195.1C195.4 61.5 196.6 64.3 198.6 66.2C200.7 68.1 203.2 69.1 206.2 69.1C210.7 69.1 213.8 67.2 215.6 63.4H234.8C233.8 67.3 232 70.7 229.5 73.8C226.9 76.9 223.7 79.3 219.9 81.1C216 82.9 211.7 83.7 206.9 83.7C202.1 83.7 196 82.5 191.5 80C187 77.5 183.5 74 181 69.5C178.5 64.9 177.2 59.6 177.2 53.5C177.2 47.4 178.4 42 180.9 37.5C183.4 32.9 186.9 29.4 191.4 27C195.9 24.5 201.1 23.3 206.9 23.3C212.7 23.3 217.7 24.5 222.1 26.9C226.5 29.3 230 32.7 232.5 37.1C235 41.5 236.2 46.7 236.2 52.6C236.2 58.5 236.1 56 235.9 57.9V57.8ZM217.8 47.8C217.8 44.7 216.7 42.2 214.6 40.4C212.5 38.6 209.9 37.7 206.7 37.7C203.5 37.7 201.1 38.6 199.1 40.3C197 42.1 195.7 44.6 195.3 47.8H217.9H217.8Z" fill="white"/>
<path d="M245.5 37.4C247.8 32.8 250.9 29.3 254.8 26.9C258.7 24.4 263.1 23.2 268 23.2C272.9 23.2 275.8 24 278.9 25.7C282 27.4 284.4 29.6 286.1 32.3V24H304.1V82.8H286.1V74.5C284.3 77.2 281.9 79.5 278.8 81.1C275.7 82.8 272 83.6 267.9 83.6C263.8 83.6 258.8 82.4 254.8 79.9C250.9 77.4 247.8 73.9 245.5 69.3C243.2 64.7 242.1 59.4 242.1 53.3C242.1 47.2 243.2 41.9 245.5 37.4ZM282.4 42.8C279.9 40.2 276.9 38.9 273.3 38.9C269.7 38.9 266.7 40.2 264.2 42.7C261.7 45.3 260.5 48.8 260.5 53.3C260.5 57.8 261.7 61.4 264.2 64C266.7 66.6 269.7 68 273.3 68C276.9 68 279.9 66.7 282.4 64.1C284.9 61.5 286.1 57.9 286.1 53.4C286.1 48.9 284.9 45.4 282.4 42.8Z" fill="white"/>
<path d="M350.1 67.6V82.9H340.9C334.4 82.9 329.3 81.3 325.6 78.1C321.9 74.9 320.1 69.7 320.1 62.4V39H312.9V24H320.1V9.70001H338.1V24H349.9V39H338.1V62.6C338.1 64.4 338.5 65.6 339.4 66.4C340.2 67.2 341.6 67.6 343.6 67.6H350H350.1Z" fill="white"/>
<path d="M486.3 57.8H445.5C445.8 61.5 447 64.3 449 66.2C451.1 68.1 453.6 69.1 456.6 69.1C461.1 69.1 464.2 67.2 466 63.4H485.2C484.2 67.3 482.4 70.7 479.9 73.8C477.3 76.9 474.1 79.3 470.3 81.1C466.4 82.9 462.1 83.7 457.3 83.7C452.5 83.7 446.4 82.5 441.9 80C437.4 77.5 433.9 74 431.4 69.5C428.9 64.9 427.6 59.6 427.6 53.5C427.6 47.4 428.8 42 431.3 37.5C433.8 32.9 437.3 29.4 441.8 27C446.3 24.5 451.5 23.3 457.3 23.3C463.1 23.3 468.1 24.5 472.5 26.9C476.9 29.3 480.4 32.7 482.9 37.1C485.4 41.5 486.6 46.7 486.6 52.6C486.6 58.5 486.5 56 486.3 57.9V57.8ZM468.2 47.8C468.2 44.7 467.1 42.2 465 40.4C462.9 38.6 460.3 37.7 457.1 37.7C453.9 37.7 451.5 38.6 449.5 40.3C447.4 42.1 446.1 44.6 445.7 47.8H468.3H468.2Z" fill="white"/>
<path d="M551.5 81.1C547.5 79.3 544.3 76.9 542 73.9C539.7 70.8 538.4 67.4 538.1 63.6H555.9C556.1 65.6 557.1 67.3 558.7 68.6C560.4 69.9 562.5 70.5 564.9 70.5C567.3 70.5 568.9 70.1 570.1 69.2C571.3 68.3 571.9 67.2 571.9 65.8C571.9 64.4 571 62.9 569.3 62.1C567.5 61.3 564.7 60.4 560.8 59.4C556.6 58.4 553.1 57.4 550.3 56.3C547.5 55.2 545.1 53.5 543 51.1C541 48.7 539.9 45.6 539.9 41.6C539.9 37.6 540.8 35.2 542.7 32.4C544.6 29.6 547.3 27.4 550.9 25.8C554.5 24.2 558.8 23.4 563.8 23.4C571.2 23.4 577 25.2 581.3 28.9C585.6 32.6 588 37.4 588.6 43.5H571.9C571.6 41.5 570.7 39.8 569.2 38.6C567.7 37.4 565.7 36.8 563.2 36.8C560.7 36.8 559.5 37.2 558.3 38C557.2 38.8 556.6 39.9 556.6 41.3C556.6 42.7 557.5 44.3 559.3 45.1C561.1 45.9 563.9 46.8 567.7 47.6C572.1 48.7 575.6 49.8 578.3 50.9C581 52 583.4 53.7 585.5 56.2C587.6 58.6 588.6 61.9 588.7 66C588.7 69.4 587.7 72.5 585.8 75.2C583.9 77.9 581.1 80 577.5 81.6C573.9 83.1 569.7 83.9 564.9 83.9C560.1 83.9 555.2 83 551.2 81.3L551.5 81.1Z" fill="white"/>
<path d="M412.5 30.1C408.4 25.6 403 23.4 396.3 23.4C389.6 23.4 388.8 24.2 385.6 25.7C382.4 27.2 379.9 29.3 378.1 31.9V4.79999H360.1V82.8H378.1V58.7C378.1 58.7 378.1 48.7 378.5 46.8C378.9 44.9 378.8 45.6 379 45.1C379.5 43.8 380.2 42.7 381.1 41.8C383.1 39.6 385.9 38.5 389.3 38.5C392.7 38.5 395.5 39.6 397.5 41.8C399.5 44 400.6 47 400.6 51V82.9H418.5V48.5C418.5 40.7 416.5 34.6 412.4 30.1H412.5Z" fill="white"/>
<path d="M148.6 70.5C155.1 66.6 162.4 60.4 162.6 52.5C162.6 50.3 162.6 47.7 162.6 45.1V39H172.3V24H162.6V23.5C162.6 20.4 163.3 18.3 164.7 17.1C166.1 15.9 168.5 15.4 172 15.6V0.300012C171.4 0.300012 170.4 0.200012 169 0.200012C161 0.200012 154.9 2.10001 150.8 5.80001C146.7 9.60001 144.6 15.1 144.6 22.3V24H138.1V39H144.6V82.9H162.6V68.9C157.9 70.8 152.8 71.6 148.6 70.5Z" fill="white"/>
<path d="M522.1 26.2C518.9 28.1 516.3 30.6 514.2 33.8V24H496.2V28.9C497.2 36.8 505.7 44.3 511.2 49.2C506.7 49.7 501.3 48.2 496.2 45.5V82.8H514.2V55.5C514.2 50.6 515.3 47.3 517.6 45.3C519.8 43.4 523.2 42.4 527.7 42.4H532.7V23.3C528.8 23.3 525.3 24.2 522.2 26.1L522.1 26.2Z" fill="white"/>
<path d="M150.3 131.2H160.2V135.1H145.5V105.9H150.3V131.3V131.2Z" fill="white"/>
<path d="M174.3 133.4C172 132.1 170.2 130.3 168.9 128.1C167.6 125.8 166.9 123.2 166.9 120.4C166.9 117.6 167.6 115 168.9 112.7C170.2 110.4 172 108.7 174.3 107.4C176.6 106.1 179.1 105.5 181.8 105.5C184.5 105.5 187.1 106.1 189.4 107.4C191.7 108.7 193.5 110.5 194.8 112.7C196.1 115 196.8 117.5 196.8 120.4C196.8 123.3 196.1 125.8 194.8 128.1C193.5 130.4 191.7 132.2 189.4 133.4C187.1 134.7 184.6 135.3 181.8 135.3C179 135.3 176.6 134.7 174.3 133.4ZM187 129.8C188.5 128.9 189.7 127.7 190.6 126C191.5 124.4 191.9 122.5 191.9 120.3C191.9 118.1 191.5 116.2 190.6 114.6C189.7 113 188.6 111.7 187 110.9C185.4 110.1 183.8 109.6 181.8 109.6C179.8 109.6 178.1 110 176.6 110.9C175.1 111.8 173.9 113 173 114.6C172.1 116.2 171.7 118.1 171.7 120.3C171.7 122.5 172.1 124.4 173 126C173.9 127.6 175 128.9 176.6 129.8C178.2 130.7 179.8 131.1 181.8 131.1C183.8 131.1 185.5 130.7 187 129.8Z" fill="white"/>
<path d="M223.4 117.8V121.8H206.1V117.8H223.4Z" fill="white"/>
<path d="M251.7 105.8V109.7H239.3V118.3H249V122.2H239.3V135H234.5V105.8H251.7Z" fill="white"/>
<path d="M265.2 105.8V135H260.4V105.8H265.2Z" fill="white"/>
<path d="M112.9 69.8C110.2 64.6 107 59.7 102.9 55.6C100.6 53.2 97.6 51.1 94.9 49.1C93.9 48.4 93 47.7 92 47C93.2 47.2 94.4 47.6 95.5 48C99.7 49.5 103.5 52 106.5 55.3C117.4 42 116.7 22.4 104.3 10C95.4 1.10002 82.9 -1.79998 71.6 1.10002C66.4 3.70002 61.5 6.80002 57.4 10.8C54.9 13.1 52.8 16 50.7 18.7C50 19.6 49.3 20.6 48.5 21.6C48.7 20.4 49.1 19.3 49.5 18.1C50.9 14.3 53.1 10.9 56 8.10002C42.9 -3.19998 22.9 -2.69998 10.4 9.90002C1.29999 18.9 -1.50001 31.8 1.89999 43.3C1.89999 43.2 1.89999 43.1 1.89999 43C4.59999 48.2 7.79999 53.1 11.9 57.2C14.2 59.6 17.2 61.7 19.9 63.7C20.9 64.4 21.8 65.1 22.8 65.8C21.6 65.6 20.4 65.2 19.3 64.8C15 63.3 11.2 60.7 8.19999 57.4C-2.70001 70.7 -2 90.3 10.4 102.7C19.2 111.5 31.8 114.4 43 111.4C48.2 108.8 53 105.8 57.1 101.7C59.6 99.4 61.7 96.5 63.8 93.8C64.5 92.9 65.2 91.9 66 90.9C65.8 92.1 65.4 93.2 65 94.4C63.6 98.2 61.4 101.6 58.5 104.4C71.8 115.8 91.8 115.2 104.3 102.6C116.8 90 116.1 81 112.9 69.6V69.8ZM43.1 87.6C38.2 92.5 30.4 92.5 25.5 87.6C20.6 82.7 20.6 74.9 25.5 70C30.4 65.1 38.2 65.1 43.1 70C48 74.9 48 82.7 43.1 87.6ZM43.1 42.6C38.2 47.5 30.4 47.5 25.5 42.6C20.6 37.7 20.6 29.9 25.5 25C30.4 20.1 38.2 20.1 43.1 25C48 29.9 48 37.7 43.1 42.6ZM71.6 25C76.5 20.1 84.3 20.1 89.2 25C94.1 29.9 94.1 37.7 89.2 42.6C84.3 47.5 76.5 47.5 71.6 42.6C66.7 37.7 66.7 29.9 71.6 25ZM89.2 87.6C84.3 92.5 76.5 92.5 71.6 87.6C66.7 82.7 66.7 74.9 71.6 70C76.5 65.1 84.3 65.1 89.2 70C94.1 74.9 94.1 82.7 89.2 87.6Z" fill="white"/>
</g>
<defs>
<clipPath id="clip0_3_268">
<rect width="588.5" height="135.3" fill="white" transform="translate(0.5)"/>
</clipPath>
</defs>
</svg>
