<svg width="1512" height="1368" viewBox="0 0 1512 1368" fill="none" xmlns="http://www.w3.org/2000/svg">
<g clip-path="url(#clip0_71_1250)">
<path d="M1512 0H0V1095H1512V0Z" fill="url(#paint0_linear_71_1250)"/>
<path d="M0 0H1512V95C1512 95 1253.67 31 739.511 31C225.351 31 0 95 0 95V0Z" fill="white"/>
<g opacity="0.08">
<path d="M741.86 759.03C744.45 706.79 717.99 635.79 703.19 615.54C685.78 579.98 648.26 552.93 605.99 552.93C587.51 552.93 568.19 558.71 553.01 566.96L555.31 602.46C556.32 596.31 556.85 589.99 556.85 583.55C556.85 577.11 556.38 571.44 555.46 565.58C546.82 510.13 498.87 467.71 441 467.71C403.14 467.71 369.52 485.87 348.38 513.97L370.9 494.72C353.13 464.97 319.1 442.83 281.93 442.83C258.72 442.83 235.4 452.86 218.27 465.93L247.21 492.77C214.86 449.02 162.9 420.66 104.31 420.66C18.48 420.66 -53.24 482.21 -69.8 563.15L-34.42 579.93C-49.21 566.53 -68.83 558.37 -90.36 558.37C-101.87 558.37 -114.09 561.19 -124.06 565.4L-96.37 604.4C-123.52 544.28 -184 502.44 -254.25 502.44C-260.49 502.44 -272.72 497.31 -272.72 503.41C-272.72 573.18 -278 804.49 -278 804.49H726.15" fill="#E1E1E1"/>
</g>
<g opacity="0.02">
<path d="M1596.42 474.59C1594.73 520.25 1517.78 576.71 1471.94 575.02C1426.1 573.32 1381.3 534.29 1382.99 488.63C1383.59 472.5 1390.06 458.76 1400.2 447.8C1422.2 429.18 1461.71 388.54 1446.83 361.29C1391.46 259.86 1319.78 374.15 1233.35 363.77C1174.88 356.75 979.93 290.36 927.72 431.6L927.84 431.65C912.52 469.22 874.84 495.07 831.79 493.48C813.74 492.81 796.99 487.4 782.7 478.5C748.58 457.25 731.28 417.1 738.1 377.61L740.86 361.64C747.89 320.99 730.08 279.67 694.96 257.79C680.25 248.63 663.01 243.06 644.43 242.37C587.81 240.27 540.21 284.29 538.13 340.69C536.05 397.09 473.42 429.2 421.99 424.37C368.97 419.38 330.02 404.29 314.96 355.96C314.96 355.96 315.01 356.48 314.71 354.16C308.32 303.82 271.4 262.18 219.59 260.26C165.03 258.24 119.16 300.66 117.15 355C114.57 424.78 159.94 434.85 159.01 473.73C158.21 495.29 140.02 512.12 118.37 511.32C95.7896 509.42 71.3096 507.3 54.6096 506.09C50.7996 505.95 47.0696 506.25 43.4796 506.94C21.8196 511.14 5.11962 529.73 4.26962 552.64C3.27962 579.34 24.2196 601.79 51.0296 602.79V602.94C108.81 605.08 154.01 653.18 152.47 710.62C150.91 768.6 101.67 814.72 43.4696 812.67C32.9296 812.3 22.8096 810.4 13.3096 807.19C-35.9204 792.1 -54.0804 756 -89.9904 753.43C-115.46 752.49 -136.86 772.28 -137.8 797.65C-138.01 803.36 -137.17 808.86 -135.44 813.97C-127.97 836.11 -103.95 848.18 -81.3404 841.98L-64.6404 837.41C-60.5104 836.58 -56.2204 836.22 -51.8204 836.38C-21.7904 837.49 2.33964 889.58 9.68964 908.99C29.5896 948.28 69.7796 975.89 117.05 977.64C186.22 980.2 244.37 926.43 246.92 857.53C247.94 829.87 239.85 803.97 225.32 782.72L226 782.26C219.95 773.85 216.55 763.45 216.96 752.3C217.95 725.58 240.5 704.72 267.33 705.71C282.65 706.28 296.06 713.85 304.55 725.21L304.9 724.95C331.3 758.28 371.66 780.3 417.59 782C500.68 785.08 570.52 720.49 573.58 637.73L573.65 643.48C576.04 578.88 630.56 528.46 695.42 530.86C760.28 533.26 810.93 587.58 808.53 652.18L807.97 667.35C806.02 719.97 847.27 764.2 900.1 766.16L904.93 766.13C907.69 766.11 910.44 766.07 913.19 765.9C916.68 765.69 920.2 765.64 923.77 765.77C970.25 767.49 1008.55 798.76 1020.67 840.51C1029.81 862.35 1051.06 878.05 1076.35 878.99C1111.02 880.27 1140.15 853.32 1141.43 818.8C1142.63 786.35 1118.8 758.76 1087.15 754.49C1043.92 747.41 1011.73 708.94 1013.39 664.2C1014.13 644.34 1021.42 626.26 1033.13 611.96L1022.8 627.8C1065.8 550.61 1115.71 520.51 1187.74 494.27C1201.87 488.59 1217.41 485.71 1233.62 486.31C1295.25 488.59 1343.36 540.2 1341.09 601.57C1340.2 625.51 1330.78 646.92 1317.17 664.58C1311.78 671.97 1308.47 680.99 1308.11 690.8C1307.14 717.14 1327.78 739.28 1354.22 740.26C1360.85 740.64 1367.68 739.24 1374.64 736.54C1422.5 720.02 1441 654.62 1466.67 638.14C1466.77 638.06 1466.88 637.99 1466.98 637.91C1482.73 626.52 1503.88 626.05 1520.41 636.29C1544.71 651.35 1587.3 682.23 1587.59 714.55" fill="white"/>
<mask id="mask0_71_1250" style="mask-type:luminance" maskUnits="userSpaceOnUse" x="-138" y="242" width="1735" height="736">
<path d="M1596.42 474.59C1594.73 520.25 1517.78 576.71 1471.94 575.02C1426.1 573.32 1381.3 534.29 1382.99 488.63C1383.59 472.5 1390.06 458.76 1400.2 447.8C1422.2 429.18 1461.71 388.54 1446.83 361.29C1391.46 259.86 1319.78 374.15 1233.35 363.77C1174.88 356.75 979.93 290.36 927.72 431.6L927.84 431.65C912.52 469.22 874.84 495.07 831.79 493.48C813.74 492.81 796.99 487.4 782.7 478.5C748.58 457.25 731.28 417.1 738.1 377.61L740.86 361.64C747.89 320.99 730.08 279.67 694.96 257.79C680.25 248.63 663.01 243.06 644.43 242.37C587.81 240.27 540.21 284.29 538.13 340.69C536.05 397.09 473.42 429.2 421.99 424.37C368.97 419.38 330.02 404.29 314.96 355.96C314.96 355.96 315.01 356.48 314.71 354.16C308.32 303.82 271.4 262.18 219.59 260.26C165.03 258.24 119.16 300.66 117.15 355C114.57 424.78 159.94 434.85 159.01 473.73C158.21 495.29 140.02 512.12 118.37 511.32C95.7896 509.42 71.3096 507.3 54.6096 506.09C50.7996 505.95 47.0696 506.25 43.4796 506.94C21.8196 511.14 5.11962 529.73 4.26962 552.64C3.27962 579.34 24.2196 601.79 51.0296 602.79V602.94C108.81 605.08 154.01 653.18 152.47 710.62C150.91 768.6 101.67 814.72 43.4696 812.67C32.9296 812.3 22.8096 810.4 13.3096 807.19C-35.9204 792.1 -54.0804 756 -89.9904 753.43C-115.46 752.49 -136.86 772.28 -137.8 797.65C-138.01 803.36 -137.17 808.86 -135.44 813.97C-127.97 836.11 -103.95 848.18 -81.3404 841.98L-64.6404 837.41C-60.5104 836.58 -56.2204 836.22 -51.8204 836.38C-21.7904 837.49 2.33964 889.58 9.68964 908.99C29.5896 948.28 69.7796 975.89 117.05 977.64C186.22 980.2 244.37 926.43 246.92 857.53C247.94 829.87 239.85 803.97 225.32 782.72L226 782.26C219.95 773.85 216.55 763.45 216.96 752.3C217.95 725.58 240.5 704.72 267.33 705.71C282.65 706.28 296.06 713.85 304.55 725.21L304.9 724.95C331.3 758.28 371.66 780.3 417.59 782C500.68 785.08 570.52 720.49 573.58 637.73L573.65 643.48C576.04 578.88 630.56 528.46 695.42 530.86C760.28 533.26 810.93 587.58 808.53 652.18L807.97 667.35C806.02 719.97 847.27 764.2 900.1 766.16L904.93 766.13C907.69 766.11 910.44 766.07 913.19 765.9C916.68 765.69 920.2 765.64 923.77 765.77C970.25 767.49 1008.55 798.76 1020.67 840.51C1029.81 862.35 1051.06 878.05 1076.35 878.99C1111.02 880.27 1140.15 853.32 1141.43 818.8C1142.63 786.35 1118.8 758.76 1087.15 754.49C1043.92 747.41 1011.73 708.94 1013.39 664.2C1014.13 644.34 1021.42 626.26 1033.13 611.96L1022.8 627.8C1065.8 550.61 1115.71 520.51 1187.74 494.27C1201.87 488.59 1217.41 485.71 1233.62 486.31C1295.25 488.59 1343.36 540.2 1341.09 601.57C1340.2 625.51 1330.78 646.92 1317.17 664.58C1311.78 671.97 1308.47 680.99 1308.11 690.8C1307.14 717.14 1327.78 739.28 1354.22 740.26C1360.85 740.64 1367.68 739.24 1374.64 736.54C1422.5 720.02 1441 654.62 1466.67 638.14C1466.77 638.06 1466.88 637.99 1466.98 637.91C1482.73 626.52 1503.88 626.05 1520.41 636.29C1544.71 651.35 1587.3 682.23 1587.59 714.55" fill="white"/>
</mask>
<g mask="url(#mask0_71_1250)">
<path d="M1107.5 650.1C1107.5 650.1 1104.64 776.27 1027.23 789.54C949.819 802.81 908.589 715.86 908.589 715.86C769.639 683.78 782.499 586.33 766.969 548.98C766.749 548.45 765.969 548.57 765.859 549.13L730.709 742.75L956.929 792.8L1036.34 883.88C1036.34 883.88 1163.61 887.08 1149.84 784.38C1136.06 681.68 1107.51 650.11 1107.51 650.11L1107.5 650.1Z" fill="white"/>
<path d="M1131.13 949.34L1011.53 837C1063.62 887.47 1154.07 822.15 1125.5 731.16L1187.86 850.64L1131.13 949.34Z" fill="white"/>
<path d="M912.999 456.68C1004.16 348.73 1136.32 343.81 1243.39 364.44L971.569 304.62L913.349 390.05L912.999 456.69" fill="white"/>
<path d="M176.159 979.83C56.0193 971.14 79.6493 906.33 1.08929 842.49C-77.4807 778.65 -126.721 845.61 -126.721 845.61L98.5893 1020.28C98.5893 1020.28 296.289 988.51 176.149 979.82L176.159 979.83Z" fill="white"/>
</g>
</g>
<path d="M756.19 1024C1191.8 1024 1544.93 891.749 1544.93 728.61C1544.93 565.47 1191.8 433.22 756.19 433.22C320.581 433.22 -32.5498 565.47 -32.5498 728.61C-32.5498 891.749 320.581 1024 756.19 1024Z" fill="url(#paint1_radial_71_1250)"/>
<path d="M438.01 600.72C440.777 600.72 443.02 598.477 443.02 595.71C443.02 592.943 440.777 590.7 438.01 590.7C435.243 590.7 433 592.943 433 595.71C433 598.477 435.243 600.72 438.01 600.72Z" fill="white"/>
<path opacity="0.08" d="M758.21 810.36L754.56 755.5C751.76 745.5 747.52 735.78 742.45 726.22C768 711.65 797.56 703.33 829.08 703.33C873.24 703.33 914.63 717.58 945.44 744.55C960.33 757.59 971.93 775.21 981.72 792.56L943.41 749.21C960.82 713.65 998.34 686.6 1040.61 686.6C1059.09 686.6 1078.41 692.38 1093.59 700.63L1091.29 736.13C1090.28 729.98 1089.75 723.66 1089.75 717.22C1089.75 711.11 1090.22 705.11 1091.14 699.25C1099.78 643.8 1147.73 601.38 1205.6 601.38C1243.46 601.38 1277.08 619.54 1298.22 647.64L1275.7 628.39C1293.47 598.64 1327.5 576.5 1364.67 576.5C1387.88 576.5 1411.2 586.53 1428.33 599.6L1399.39 626.44C1431.74 582.69 1483.7 554.33 1542.29 554.33L1530.12 758.15L1542.08 938.17H782.32" fill="#E1E1E1"/>
<path d="M354.18 507.04C347.65 507.04 342.35 501.73 342.35 495.21C342.35 494.69 341.92 494.26 341.4 494.26C340.88 494.26 340.45 494.69 340.45 495.21C340.45 501.74 335.14 507.04 328.62 507.04C328.1 507.04 327.67 507.47 327.67 507.99C327.67 508.51 328.1 508.94 328.62 508.94C335.15 508.94 340.45 514.25 340.45 520.77C340.45 521.29 340.88 521.72 341.4 521.72C341.92 521.72 342.35 521.29 342.35 520.77C342.35 514.24 347.66 508.94 354.18 508.94C354.7 508.94 355.13 508.51 355.13 507.99C355.13 507.47 354.7 507.04 354.18 507.04Z" fill="white"/>
<path d="M1316.91 377.294L1278.77 377.343L1257.55 334.869L1289.43 309.89L1339.87 299.642L1370.92 252.771L1419.93 242.819L1438.91 214.149L1483.75 243.881L1489.66 273.021L1472.19 299.419L1487.96 309.878L1463.45 346.895L1404.8 358.798L1409.79 383.418L1357.73 394L1316.91 377.294Z" fill="#251938"/>
<path d="M1278.85 377.091L1236.02 329.732L1279.94 292.98L1332.47 282.274L1361.63 238.062L1412.35 227.716L1423.34 211.074L1438.93 213.317L1419.96 242.089L1370.97 252.077L1339.93 299.114L1289.51 309.398L1257.64 334.465L1278.85 377.091Z" fill="#2E2A63"/>
<path d="M1236.32 329.438L1232.95 312.813L1273.59 279.193L1327.41 268.242L1355.65 225.536L1406.95 215.092L1423.56 211.074L1412.58 227.675L1361.87 237.996L1332.73 282.098L1280.21 292.777L1236.32 329.438Z" fill="#992E6E"/>
<path d="M1237.07 328.975L1245.9 338.661L1232.44 328.95L1228.34 308.818L1270.67 274.188L1325.61 263.069L1353.45 221.14L1418.32 208L1423.56 211.466L1355.82 226.038L1327.72 268.347L1274.17 279.196L1233.73 312.504L1237.07 328.975Z" fill="#EF888D"/>
<path d="M1071.44 728.25L966.8 647.02C942.75 626.35 907.39 625.76 882.66 645.6L756.76 745.75L772.17 776.12L862.23 800.17L1322.6 851.63L1339.38 810.24L1278.9 801.27C1251.45 797.2 1224.57 789.9 1198.83 779.54L1071.45 728.25H1071.44Z" fill="#140D21"/>
<mask id="mask1_71_1250" style="mask-type:luminance" maskUnits="userSpaceOnUse" x="756" y="631" width="584" height="221">
<path d="M1071.44 728.25L966.8 647.02C942.75 626.35 907.39 625.76 882.66 645.6L756.76 745.75L772.17 776.12L862.23 800.17L1322.6 851.63L1339.38 810.24L1278.9 801.27C1251.45 797.2 1224.57 789.9 1198.83 779.54L1071.45 728.25H1071.44Z" fill="white"/>
</mask>
<g mask="url(#mask1_71_1250)">
<path d="M930.899 631.31L1039.99 760.1L1096.95 801.53H1301.88L1048.69 657.25L938.279 625.33L930.899 631.31Z" fill="#2A1B47"/>
</g>
<path d="M843.78 793.46L642.58 621.22C618.53 600.55 583.17 599.96 558.44 619.8L438.01 713.23L548.26 811.17C637.88 784.66 855.74 816.69 843.77 793.45L843.78 793.46Z" fill="#140D21"/>
<mask id="mask2_71_1250" style="mask-type:luminance" maskUnits="userSpaceOnUse" x="438" y="605" width="407" height="207">
<path d="M843.78 793.46L642.58 621.22C618.53 600.55 583.17 599.96 558.44 619.8L438.01 713.23L548.26 811.17C637.88 784.66 855.74 816.69 843.77 793.45L843.78 793.46Z" fill="white"/>
</mask>
<g mask="url(#mask2_71_1250)">
<path d="M723.23 755.91L592.13 601.14L759.87 615.58L844.89 800.74L723.23 755.91Z" fill="#2A1B47"/>
</g>
<path d="M247.29 736.92L255.86 841.33L542.64 803.16L401.24 681.64C377.19 660.97 341.83 660.38 317.1 680.22L254.8 730.21" fill="#140D21"/>
<mask id="mask3_71_1250" style="mask-type:luminance" maskUnits="userSpaceOnUse" x="247" y="665" width="296" height="177">
<path d="M247.29 736.92L255.86 841.33L542.64 803.16L401.24 681.64C377.19 660.97 341.83 660.38 317.1 680.22L254.8 730.21" fill="white"/>
</mask>
<g mask="url(#mask3_71_1250)">
<path d="M356.03 660.14L484.11 811.35L547.54 804.41L430.52 680.49L374.3 661.75L356.03 660.14Z" fill="#2A1B47"/>
</g>
<path d="M1316.51 829.54C1316.51 829.54 1126 838.55 1064.68 806.46C1038.86 791.21 976.37 776.46 942.46 791.98C897.14 803.22 854.3 796.51 813.68 773.36C729.43 725.49 705.96 729.01 594.63 784.79C591.69 785.73 590.8 774.63 589.13 766.95C588.69 765.52 586.64 765.58 586.29 767.04C585.31 774.26 584.65 782.33 582.75 787.04C582.02 788.84 579.48 788.88 578.75 787.08C576.51 781.55 575.32 770.32 573.79 760.91C573.43 759.41 571.29 759.43 570.96 760.94C568.56 775.9 568.93 796.31 564.32 797.76C564.32 797.76 510.38 812 465.25 806.45C368.96 791.97 342.62 810.11 342.62 810.11L262.74 836.4L255.88 841.32V903.15L1294.07 869.41L1316.54 829.53" fill="#251938"/>
<path d="M1030.01 792.74C1002.15 784.77 970.039 772.75 942.709 755.61C930.759 747.35 915.059 746.94 902.689 754.55L847.609 788.48L931.419 816.35L1030 792.74H1030.01Z" fill="#251938"/>
<path d="M882.43 769.18L888.63 741.91C889.06 739.96 891.84 739.96 892.27 741.91L896.28 760.09L882.43 769.18Z" fill="#251938"/>
<path d="M1534.97 801.87H-26.7402V1371.32H1534.97V801.87Z" fill="#251938"/>
<path d="M531.721 1039.7C536.935 1039.7 544.68 1041.5 553.724 1044.22C562.976 1047 574.243 1050.95 586.809 1055.64C611.941 1065.03 642.61 1077.54 673.341 1090C704.124 1102.49 734.979 1114.92 760.648 1124.24C773.485 1128.89 784.944 1132.74 794.398 1135.42C804.011 1138.14 811.044 1139.5 815.261 1139.5H1291.85V1150.5H815.261C809.385 1150.5 801.064 1148.74 791.401 1146C781.581 1143.22 769.841 1139.27 756.896 1134.58C731.001 1125.18 699.955 1112.67 669.207 1100.2C638.407 1087.71 607.913 1075.27 582.959 1065.95C570.481 1061.28 559.474 1057.43 550.56 1054.76C541.437 1052.02 535.122 1050.7 531.721 1050.7H-31.7598V1039.7H531.721Z" fill="#140D21"/>
<path d="M513.971 1061.64C519.194 1061.64 527.089 1063.5 536.36 1066.29C545.852 1069.15 557.462 1073.21 570.442 1078.05C596.405 1087.72 628.182 1100.6 660.024 1113.44C691.918 1126.3 723.886 1139.11 750.392 1148.71C763.646 1153.51 775.455 1157.47 785.156 1160.23C795.026 1163.04 802.186 1164.44 806.391 1164.44H1301.88V1175.44H806.391C800.505 1175.44 792.036 1173.63 782.146 1170.81C772.087 1167.95 760.006 1163.89 746.646 1159.05C719.924 1149.37 687.77 1136.48 655.911 1123.64C624.001 1110.78 592.394 1097.96 566.604 1088.36C553.707 1083.55 542.349 1079.59 533.187 1076.82C523.805 1074 517.362 1072.64 513.971 1072.64H-28.2598V1061.64H513.971Z" fill="#140D21"/>
<path d="M160.86 1176.38C135.52 1157.24 103.85 1145.87 69.4798 1145.87C32.8898 1145.87 -0.660234 1158.76 -26.7402 1180.2V1274.3H143.33L160.86 1176.38Z" fill="#E69F60"/>
<path d="M296.05 1169.5C360.027 1169.5 411.89 1158.53 411.89 1145C411.89 1131.47 360.027 1120.5 296.05 1120.5C232.073 1120.5 180.21 1131.47 180.21 1145C180.21 1158.53 232.073 1169.5 296.05 1169.5Z" fill="#140D21"/>
<path d="M851.431 884.34C865.26 884.34 876.471 881.989 876.471 879.09C876.471 876.19 865.26 873.84 851.431 873.84C837.601 873.84 826.391 876.19 826.391 879.09C826.391 881.989 837.601 884.34 851.431 884.34Z" fill="#140D21"/>
<path d="M972.9 953.14C986.149 953.14 996.89 950.884 996.89 948.1C996.89 945.317 986.149 943.06 972.9 943.06C959.651 943.06 948.91 945.317 948.91 948.1C948.91 950.884 959.651 953.14 972.9 953.14Z" fill="#140D21"/>
<path d="M374.811 992.99C386.132 992.99 395.311 991.065 395.311 988.69C395.311 986.315 386.132 984.39 374.811 984.39C363.489 984.39 354.311 986.315 354.311 988.69C354.311 991.065 363.489 992.99 374.811 992.99Z" fill="#140D21"/>
<path d="M919.44 1096.67C949.733 1096.67 974.29 1091.52 974.29 1085.16C974.29 1078.8 949.733 1073.65 919.44 1073.65C889.147 1073.65 864.59 1078.8 864.59 1085.16C864.59 1091.52 889.147 1096.67 919.44 1096.67Z" fill="#140D21"/>
<path d="M1588.4 615.91H1541.6C1519.42 615.91 1499.58 629.72 1491.87 650.52L1427.8 823.45H1598.96L1588.41 615.91H1588.4Z" fill="#140D21"/>
<mask id="mask4_71_1250" style="mask-type:luminance" maskUnits="userSpaceOnUse" x="1426" y="615" width="172" height="209">
<path d="M1587.4 615.91H1540.6C1518.42 615.91 1498.58 629.72 1490.87 650.52L1426.8 823.45H1597.96L1587.41 615.91H1587.4Z" fill="white"/>
</mask>
<g mask="url(#mask4_71_1250)">
<path d="M1590.49 631.65H1551.26C1531.8 631.65 1514.33 643.56 1507.22 661.67L1437.52 839.11L1396.52 835.39L1483.37 606.19L1597.97 600.25L1590.5 631.66L1590.49 631.65Z" fill="#992E6E"/>
</g>
<path d="M1591.81 671.38H1356.32C1334.14 671.38 1314.3 685.19 1306.59 705.99L1242.52 878.92H1602.37L1591.82 671.38H1591.81Z" fill="#140D21"/>
<mask id="mask5_71_1250" style="mask-type:luminance" maskUnits="userSpaceOnUse" x="1242" y="671" width="361" height="208">
<path d="M1591.81 671.38H1356.32C1334.14 671.38 1314.3 685.19 1306.59 705.99L1242.52 878.92H1602.37L1591.82 671.38H1591.81Z" fill="white"/>
</mask>
<g mask="url(#mask5_71_1250)">
<path d="M1484.99 683.21H1392.84C1373.38 683.21 1355.91 695.12 1348.8 713.23L1279.1 890.67L1238.1 886.95L1324.95 657.75L1512.4 651.31L1503.19 671.52C1499.94 678.64 1492.84 683.21 1485.01 683.21H1484.99Z" fill="#992E6E"/>
</g>
<path d="M1408.48 822.98L1444.7 739.94L1512.63 728.98L1528.63 726.4L1544.33 890.79H1408.48V822.98Z" fill="#251938"/>
<path d="M1456.41 756.09L1424.7 843.49L1402.36 837.02L1444.7 739.94L1528.63 726.4L1456.41 756.09Z" fill="#992E6E"/>
<mask id="mask6_71_1250" style="mask-type:luminance" maskUnits="userSpaceOnUse" x="1342" y="801" width="142" height="90">
<path d="M1342.43 890.79H1483.84V801.54H1342.43V890.79Z" fill="white"/>
</mask>
<g mask="url(#mask6_71_1250)">
<path d="M1350.03 890.65C1346.73 865.07 1360.03 837.35 1392.19 825.02C1397.97 822.8 1404.2 821.98 1410.36 822.65C1446.7 826.57 1468.2 854.25 1468.65 882.57C1468.72 887.09 1465.05 890.79 1460.53 890.78L1350.04 890.65" fill="#251938"/>
<path d="M1387.42 835.44C1359.04 847.81 1345.23 879.72 1354.87 908.52C1354.04 906.99 1353.26 905.41 1352.55 903.78C1339.47 873.77 1353.2 838.84 1383.21 825.77C1413.22 812.69 1448.15 826.42 1461.22 856.43C1461.93 858.06 1462.56 859.7 1463.11 861.36C1448.57 834.68 1415.8 823.07 1387.42 835.44Z" fill="#992E6E"/>
</g>
<path d="M-41.44 630H5.35999C27.54 630 47.38 643.81 55.09 664.61L119.16 837.54H-52L-41.45 630H-41.44Z" fill="#140D21"/>
<mask id="mask7_71_1250" style="mask-type:luminance" maskUnits="userSpaceOnUse" x="-52" y="629" width="172" height="209">
<path d="M-41.3404 629.69H5.45959C27.6396 629.69 47.4796 643.5 55.1896 664.3L119.26 837.23H-51.9004L-41.3504 629.69H-41.3404Z" fill="white"/>
</mask>
<g mask="url(#mask7_71_1250)">
<path d="M-44.4301 645.43H-5.20016C14.2598 645.43 31.7298 657.34 38.8398 675.45L108.54 852.89L149.54 849.17L62.6898 619.97L-51.9102 614.03L-44.4402 645.44L-44.4301 645.43Z" fill="#992E6E"/>
</g>
<path d="M-44.7505 685.16H190.739C212.919 685.16 232.759 698.97 240.469 719.77L325.099 932.76L-55.3105 892.7L-44.7605 685.16H-44.7505Z" fill="#140D21"/>
<mask id="mask8_71_1250" style="mask-type:luminance" maskUnits="userSpaceOnUse" x="-56" y="685" width="382" height="248">
<path d="M-44.7505 685.16H190.739C212.919 685.16 232.759 698.97 240.469 719.77L325.099 932.76L-55.3105 892.7L-44.7605 685.16H-44.7505Z" fill="white"/>
</mask>
<g mask="url(#mask8_71_1250)">
<path d="M61.0692 696.99H153.219C172.679 696.99 190.149 708.9 197.259 727.01L266.959 904.45L319.859 915.97L221.109 671.53L33.6592 665.09L42.8692 685.3C46.1192 692.42 53.2192 696.99 61.0492 696.99H61.0692Z" fill="#992E6E"/>
</g>
<path d="M-45.3298 771.9L11.1402 733.45L67.0602 722.8L142.09 800.26L188 924L5.59019 912.36L-55.2998 892.69L-45.3298 771.9Z" fill="#251938"/>
<path d="M11.1406 733.45L67.0606 722.8L142.091 800.26L179.331 903.82L151.231 904.34L110.581 806.7L58.1406 737.23L11.1406 733.45Z" fill="#992E6E"/>
<mask id="mask9_71_1250" style="mask-type:luminance" maskUnits="userSpaceOnUse" x="-38" y="823" width="143" height="90">
<path d="M104.39 823.53H-37.0195V912.78H104.39V823.53Z" fill="white"/>
</mask>
<g mask="url(#mask9_71_1250)">
<path d="M96.7909 912.65C100.091 887.07 86.7909 859.35 54.6309 847.02C48.8509 844.8 42.6209 843.98 36.4609 844.65C0.120884 848.57 -21.3791 876.25 -21.8291 904.57C-21.8991 909.09 -18.2291 912.79 -13.7091 912.78L96.7809 912.65" fill="#251938"/>
<path d="M59.4009 857.44C87.7809 869.81 101.591 901.72 91.951 930.52C92.781 928.99 93.5609 927.41 94.2709 925.78C107.351 895.77 93.6209 860.84 63.6109 847.77C33.6009 834.69 -1.32905 848.42 -14.399 878.43C-15.109 880.06 -15.7391 881.7 -16.2891 883.36C-1.74906 856.68 31.0209 845.07 59.4009 857.44Z" fill="#992E6E"/>
</g>
<path d="M357 869.49C361.52 869.49 367.14 871.317 373.311 874.062C379.592 876.858 386.889 880.816 394.906 885.496C410.87 894.815 430.284 907.359 450.605 919.688C471.047 932.089 492.635 944.419 513.445 953.643C534.295 962.884 554.043 968.858 570.895 968.869C642.446 967.001 673.914 966.325 709.393 968.899L709.844 968.945C710.914 969.082 712.099 969.426 713.256 969.823C714.646 970.3 716.272 970.954 718.078 971.737C721.692 973.305 726.216 975.477 731.354 978.013C741.688 983.112 754.559 989.707 768.155 996.2C781.736 1002.69 795.876 1008.99 808.589 1013.44C821.457 1017.95 832.305 1020.36 839.538 1019.57L839.729 1019.55H1301.88V1026.55H840.087C831.165 1027.46 819.086 1024.54 806.273 1020.05C793.202 1015.47 778.793 1009.04 765.139 1002.52C751.5 996.005 738.45 989.321 728.256 984.29C723.129 981.76 718.737 979.654 715.292 978.159C713.569 977.411 712.13 976.837 710.984 976.443C710.074 976.131 709.481 975.981 709.143 975.918L708.887 975.881C673.813 973.336 642.707 973.998 571.031 975.869L570.985 975.87H570.939C552.616 975.87 531.782 969.426 510.609 960.042C489.38 950.632 467.485 938.116 446.975 925.673C426.344 913.157 407.334 900.856 391.377 891.541C383.434 886.904 376.396 883.097 370.465 880.458C364.423 877.769 359.952 876.49 357 876.49H301.35V869.49H357Z" fill="#140D21"/>
<path d="M166.4 693.78H154.48C152.77 693.78 151.28 692.62 150.87 690.96L132.9 618.87C132.54 617.41 133.09 615.87 134.3 614.98C137.47 612.65 140.53 609.79 143.42 606.5C144.33 605.46 145.75 605.01 147.09 605.34C148.44 605.67 149.49 606.71 149.82 608.06L169.99 689.17C170.27 690.28 170.02 691.46 169.31 692.36C168.6 693.26 167.52 693.79 166.38 693.79L166.4 693.78ZM157.39 686.34H161.64L144.23 616.36C143.08 617.44 141.9 618.46 140.71 619.43L157.39 686.34Z" fill="#ECE3EF"/>
<path d="M201.78 605.34C191.63 623.42 175.36 630.12 152.13 630.12C118.7 630.12 91.5898 604.6 91.5898 573.13C91.5898 553.88 97.4499 543.45 112.98 533.13" fill="#CFC2DC"/>
<path d="M201.78 605.34C201.73 595.95 188.54 577.21 168.74 559.46C148.23 541.07 127.43 529.85 118.57 531.77C97.9103 539.21 173.28 615.9 201.78 605.34Z" fill="#BA93BD"/>
<path d="M144.79 582.75C143.84 582.75 142.89 582.39 142.16 581.66C140.71 580.21 140.71 577.85 142.16 576.4L177.4 541.16C178.85 539.71 181.21 539.71 182.66 541.16C184.11 542.61 184.11 544.97 182.66 546.42L147.42 581.66C146.69 582.39 145.74 582.75 144.79 582.75Z" fill="#EEE5F1"/>
<path d="M186.01 548.96C179.75 548.96 174.66 543.87 174.66 537.61C174.66 531.35 179.75 526.26 186.01 526.26C192.27 526.26 197.36 531.35 197.36 537.61C197.36 543.87 192.27 548.96 186.01 548.96ZM186.01 533.7C183.85 533.7 182.1 535.45 182.1 537.61C182.1 539.77 183.85 541.52 186.01 541.52C188.17 541.52 189.92 539.77 189.92 537.61C189.92 535.45 188.17 533.7 186.01 533.7Z" fill="#EEE5F1"/>
<path d="M96.78 693.78H84.86C83.71 693.78 82.63 693.25 81.93 692.35C81.22 691.45 80.97 690.27 81.25 689.16L101.42 608.05C101.75 606.71 102.81 605.66 104.15 605.33C105.5 605 106.91 605.45 107.82 606.49C110.71 609.78 113.77 612.63 116.94 614.97C118.15 615.86 118.71 617.4 118.34 618.86L100.37 690.95C99.96 692.61 98.47 693.77 96.76 693.77L96.78 693.78ZM89.63 686.34H93.88L110.56 619.43C109.37 618.47 108.19 617.45 107.04 616.36L89.63 686.34Z" fill="#ECE3EF"/>
<path d="M146.229 664.77H104.009C102.859 664.77 101.779 664.24 101.079 663.34C100.369 662.44 100.119 661.26 100.399 660.15L103.279 648.6C103.689 646.94 105.179 645.78 106.889 645.78H144.209C146.019 645.78 147.559 647.08 147.879 648.86L149.899 660.41C150.089 661.49 149.789 662.6 149.079 663.44C148.369 664.28 147.329 664.77 146.229 664.77ZM108.779 657.33H141.809L141.089 653.23H109.799L108.779 657.33Z" fill="#ECE3EF"/>
<path d="M195 611.35C190.92 611.35 185.62 609.87 179.14 606.91C168.74 602.16 156.48 594.07 144.61 584.11C121.77 564.95 102.78 540.62 110.69 531.2C118.6 521.77 145.86 536.24 168.7 555.39C180.57 565.34 190.67 576.01 197.16 585.42C204.54 596.13 206.38 603.83 202.62 608.3C200.92 610.33 198.37 611.34 194.99 611.34L195 611.35ZM118.28 534.13C116.79 534.13 115.77 534.45 115.27 535.05C112.41 538.46 121.29 556.74 148.45 579.53C159.92 589.15 171.69 596.94 181.62 601.47C192.44 606.41 197.09 605.59 198.03 604.47C198.97 603.35 198.97 598.63 192.22 588.83C186.03 579.85 176.31 569.61 164.84 559.99C142.45 541.21 125.24 534.13 118.27 534.13H118.28Z" fill="#EEE5F1"/>
<path d="M410.455 858.235V883.165H330.766V858.235H410.455ZM334.795 879.135H406.425V862.265H334.795V879.135Z" fill="#ECE3EF"/>
<path d="M145.74 963.68V906.73C145.74 888.03 160.9 872.87 179.6 872.87H309.51V967.84" fill="#CFC2DC"/>
<path d="M328.861 872.87H198.951C180.251 872.87 165.091 888.03 165.091 906.73V966.19H330.701" fill="#ECE3EF"/>
<path d="M305.25 963.68V897.35C305.25 883.83 316.21 872.87 329.73 872.87H396.41C411.4 872.87 425.43 880.23 433.96 892.56L442.56 904.99" fill="#CFC2DC"/>
<path d="M347.424 906.074L344.838 909.166L311.468 881.256L314.054 878.164L347.424 906.074Z" fill="#ECE3EF"/>
<path d="M305.25 985.08C305.25 985.08 306.62 1002.45 322.29 1002.45C337.96 1002.45 352.05 959.8 352.05 959.8L346.12 944.75L305.33 958.7" fill="#CFC2DC"/>
<path d="M410.48 1002.45C426.15 1002.45 440.24 954.64 440.24 954.64H356.01L325.57 1000.43L410.47 1002.45H410.48Z" fill="#CFC2DC"/>
<path d="M135.35 984.41C129.82 984.41 125.32 979.91 125.32 974.38C125.32 968.85 129.82 964.35 135.35 964.35H306.24C311.77 964.35 316.27 968.85 316.27 974.38C316.27 979.91 311.77 984.41 306.24 984.41H135.35Z" fill="#BA93BD"/>
<path d="M306.24 965.02C311.4 965.02 315.6 969.22 315.6 974.38C315.6 979.54 311.4 983.74 306.24 983.74H135.35C130.19 983.74 125.99 979.54 125.99 974.38C125.99 969.22 130.19 965.02 135.35 965.02H306.24ZM306.24 963.68H135.35C129.44 963.68 124.65 968.47 124.65 974.38C124.65 980.29 129.44 985.08 135.35 985.08H306.24C312.15 985.08 316.94 980.29 316.94 974.38C316.94 968.47 312.15 963.68 306.24 963.68Z" fill="#BA93BD"/>
<path d="M430.38 910.46H358.32C354.647 910.46 351.67 913.437 351.67 917.11V943.74C351.67 947.413 354.647 950.39 358.32 950.39H430.38C434.053 950.39 437.03 947.413 437.03 943.74V917.11C437.03 913.437 434.053 910.46 430.38 910.46Z" fill="#A7FBE9"/>
<mask id="mask10_71_1250" style="mask-type:luminance" maskUnits="userSpaceOnUse" x="351" y="910" width="87" height="41">
<path d="M430.38 910.46H358.32C354.647 910.46 351.67 913.437 351.67 917.11V943.74C351.67 947.413 354.647 950.39 358.32 950.39H430.38C434.053 950.39 437.03 947.413 437.03 943.74V917.11C437.03 913.437 434.053 910.46 430.38 910.46Z" fill="white"/>
</mask>
<g mask="url(#mask10_71_1250)">
<path d="M393.837 908.086L360.117 956.186L357.104 954.074L390.824 905.973L393.837 908.086Z" fill="white"/>
<path d="M382.883 908.119L353.443 948.208L350.477 946.031L379.917 905.941L382.883 908.119Z" fill="white"/>
<path d="M433.627 908.086L399.907 956.186L396.894 954.074L430.613 905.973L433.627 908.086Z" fill="white"/>
<path d="M422.687 908.086L388.967 956.186L385.953 954.074L419.673 905.973L422.687 908.086Z" fill="white"/>
</g>
<path d="M436.671 916.1C436.671 913.891 434.88 912.1 432.671 912.1H356.021C353.812 912.1 352.021 913.891 352.021 916.1V944.75C352.021 946.959 353.812 948.75 356.021 948.75H432.671C434.88 948.75 436.671 946.959 436.671 944.75V916.1ZM448.451 944.75C448.451 953.465 441.386 960.53 432.671 960.53H356.021C347.306 960.53 340.241 953.465 340.241 944.75V916.1C340.241 907.385 347.306 900.321 356.021 900.32H432.671C441.386 900.32 448.451 907.385 448.451 916.1V944.75Z" fill="#ECE3EF"/>
<path d="M277.401 1040.29C262.361 1040.29 250.131 1028.06 250.131 1013.02C250.131 997.98 262.361 985.75 277.401 985.75C292.441 985.75 304.671 997.98 304.671 1013.02C304.671 1028.06 292.441 1040.29 277.401 1040.29Z" fill="#BA93BD"/>
<path d="M277.4 986.43C292.07 986.43 304 998.36 304 1013.03C304 1027.7 292.07 1039.63 277.4 1039.63C262.73 1039.63 250.8 1027.7 250.8 1013.03C250.8 998.36 262.73 986.43 277.4 986.43ZM277.4 985.08C261.97 985.08 249.46 997.59 249.46 1013.02C249.46 1028.45 261.97 1040.96 277.4 1040.96C292.83 1040.96 305.34 1028.45 305.34 1013.02C305.34 997.59 292.83 985.08 277.4 985.08Z" fill="#BA93BD"/>
<path d="M165.081 986.43C179.751 986.43 191.681 998.36 191.681 1013.03C191.681 1027.7 179.751 1039.63 165.081 1039.63C150.411 1039.63 138.481 1027.7 138.481 1013.03C138.481 998.36 150.411 986.43 165.081 986.43ZM165.081 985.08C149.651 985.08 137.141 997.59 137.141 1013.02C137.141 1028.45 149.651 1040.96 165.081 1040.96C180.511 1040.96 193.021 1028.45 193.021 1013.02C193.021 997.59 180.511 985.08 165.081 985.08Z" fill="#BA93BD"/>
<path d="M273.631 1028.32C281.915 1028.32 288.631 1021.6 288.631 1013.32C288.631 1005.04 281.915 998.32 273.631 998.32C265.347 998.32 258.631 1005.04 258.631 1013.32C258.631 1021.6 265.347 1028.32 273.631 1028.32Z" fill="#CFC2DC"/>
<path d="M271.63 1022.55C276.728 1022.55 280.86 1018.42 280.86 1013.32C280.86 1008.22 276.728 1004.09 271.63 1004.09C266.533 1004.09 262.4 1008.22 262.4 1013.32C262.4 1018.42 266.533 1022.55 271.63 1022.55Z" fill="#ECE3EF"/>
<path d="M165.081 1040.29C150.041 1040.29 137.811 1028.06 137.811 1013.02C137.811 997.98 150.041 985.75 165.081 985.75C180.121 985.75 192.351 997.98 192.351 1013.02C192.351 1028.06 180.121 1040.29 165.081 1040.29Z" fill="#BA93BD"/>
<path d="M161.311 1028.32C169.595 1028.32 176.311 1021.6 176.311 1013.32C176.311 1005.04 169.595 998.32 161.311 998.32C153.026 998.32 146.311 1005.04 146.311 1013.32C146.311 1021.6 153.026 1028.32 161.311 1028.32Z" fill="#CFC2DC"/>
<path d="M159.31 1022.55C164.408 1022.55 168.54 1018.42 168.54 1013.32C168.54 1008.22 164.408 1004.09 159.31 1004.09C154.213 1004.09 150.08 1008.22 150.08 1013.32C150.08 1018.42 154.213 1022.55 159.31 1022.55Z" fill="#ECE3EF"/>
<path d="M220.8 1040.29C205.76 1040.29 193.53 1028.06 193.53 1013.02C193.53 997.98 205.76 985.75 220.8 985.75C235.84 985.75 248.07 997.98 248.07 1013.02C248.07 1028.06 235.84 1040.29 220.8 1040.29Z" fill="#BA93BD"/>
<path d="M220.8 986.43C235.47 986.43 247.4 998.36 247.4 1013.03C247.4 1027.7 235.47 1039.63 220.8 1039.63C206.13 1039.63 194.2 1027.7 194.2 1013.03C194.2 998.36 206.13 986.43 220.8 986.43ZM220.8 985.08C205.37 985.08 192.86 997.59 192.86 1013.02C192.86 1028.45 205.37 1040.96 220.8 1040.96C236.23 1040.96 248.74 1028.45 248.74 1013.02C248.74 997.59 236.23 985.08 220.8 985.08Z" fill="#BA93BD"/>
<path d="M217.021 1028.32C225.305 1028.32 232.021 1021.6 232.021 1013.32C232.021 1005.04 225.305 998.32 217.021 998.32C208.736 998.32 202.021 1005.04 202.021 1013.32C202.021 1021.6 208.736 1028.32 217.021 1028.32Z" fill="#CFC2DC"/>
<path d="M215.02 1022.55C220.118 1022.55 224.25 1018.42 224.25 1013.32C224.25 1008.22 220.118 1004.09 215.02 1004.09C209.922 1004.09 205.79 1008.22 205.79 1013.32C205.79 1018.42 209.922 1022.55 215.02 1022.55Z" fill="#ECE3EF"/>
<path d="M354.01 960.312C350.911 972.102 346.974 982.101 341.915 989.652C336.842 997.224 330.563 1002.44 322.794 1004.4L321.808 1000.5C328.339 998.847 333.869 994.42 338.566 987.409C343.277 980.378 347.071 970.857 350.112 959.287L354.01 960.312Z" fill="#ECE3EF"/>
<path d="M332.991 1008.5C327.381 1008.5 322.811 1003.93 322.811 998.32C322.811 992.71 327.371 988.14 332.991 988.14H429.541C435.151 988.14 439.721 992.71 439.721 998.32C439.721 1003.93 435.161 1008.5 429.541 1008.5H332.991Z" fill="#BA93BD"/>
<path d="M429.54 988.67C434.86 988.67 439.19 993 439.19 998.32C439.19 1003.64 434.86 1007.97 429.54 1007.97H332.99C327.67 1007.97 323.34 1003.64 323.34 998.32C323.34 993 327.67 988.67 332.99 988.67H429.54ZM429.54 987.62H332.99C327.08 987.62 322.29 992.41 322.29 998.32C322.29 1004.23 327.08 1009.02 332.99 1009.02H429.54C435.45 1009.02 440.24 1004.23 440.24 998.32C440.24 992.41 435.45 987.62 429.54 987.62Z" fill="#BA93BD"/>
<path d="M356.53 1047.94C341.25 1047.94 328.86 1037.3 328.86 1024.19C328.86 1011.08 341.25 1000.44 356.53 1000.44" fill="#CFC2DC"/>
<path d="M356.46 1047.94H457.91C445.78 1032.1 445.78 1016.27 457.91 1000.43H356.46C343.47 1016.27 343.47 1032.1 356.46 1047.94Z" fill="#ECE3EF"/>
<path d="M305.061 983.39C310.037 983.39 314.071 979.356 314.071 974.38C314.071 969.404 310.037 965.37 305.061 965.37C300.085 965.37 296.051 969.404 296.051 974.38C296.051 979.356 300.085 983.39 305.061 983.39Z" fill="#CFC2DC"/>
<path d="M330.691 1033.19C335.667 1033.19 339.701 1029.16 339.701 1024.18C339.701 1019.2 335.667 1015.17 330.691 1015.17C325.715 1015.17 321.681 1019.2 321.681 1024.18C321.681 1029.16 325.715 1033.19 330.691 1033.19Z" fill="#CFC2DC"/>
<path d="M303.021 970.62C304.615 969.796 306.565 970.375 307.458 971.909L307.541 972.06L333.671 1022.64L333.747 1022.8C334.481 1024.41 333.825 1026.34 332.23 1027.16C330.636 1027.98 328.686 1027.41 327.793 1025.87L327.71 1025.72L301.58 975.14L301.505 974.985C300.771 973.369 301.426 971.444 303.021 970.62Z" fill="#ECE3EF"/>
<path d="M332.78 870.74C338.574 870.74 343.27 866.043 343.27 860.25C343.27 854.456 338.574 849.76 332.78 849.76C326.987 849.76 322.29 854.456 322.29 860.25C322.29 866.043 326.987 870.74 332.78 870.74Z" fill="#F6D17B"/>
<path d="M370.61 870.74C376.404 870.74 381.1 866.043 381.1 860.25C381.1 854.456 376.404 849.76 370.61 849.76C364.817 849.76 360.12 854.456 360.12 860.25C360.12 866.043 364.817 870.74 370.61 870.74Z" fill="#F6D17B"/>
<path d="M408.44 870.74C414.234 870.74 418.93 866.043 418.93 860.25C418.93 854.456 414.234 849.76 408.44 849.76C402.647 849.76 397.95 854.456 397.95 860.25C397.95 866.043 402.647 870.74 408.44 870.74Z" fill="#F6D17B"/>
<path d="M335.36 868.25C340.049 868.25 343.85 864.449 343.85 859.76C343.85 855.071 340.049 851.27 335.36 851.27C330.671 851.27 326.87 855.071 326.87 859.76C326.87 864.449 330.671 868.25 335.36 868.25Z" fill="#ECE3EF"/>
<path d="M370.32 870.74C376.114 870.74 380.81 866.043 380.81 860.25C380.81 854.456 376.114 849.76 370.32 849.76C364.527 849.76 359.83 854.456 359.83 860.25C359.83 866.043 364.527 870.74 370.32 870.74Z" fill="#F6D17B"/>
<path d="M372.9 868.25C377.589 868.25 381.39 864.449 381.39 859.76C381.39 855.071 377.589 851.27 372.9 851.27C368.211 851.27 364.41 855.071 364.41 859.76C364.41 864.449 368.211 868.25 372.9 868.25Z" fill="#ECE3EF"/>
<path d="M408.16 870.74C413.953 870.74 418.65 866.043 418.65 860.25C418.65 854.456 413.953 849.76 408.16 849.76C402.366 849.76 397.67 854.456 397.67 860.25C397.67 866.043 402.366 870.74 408.16 870.74Z" fill="#F6D17B"/>
<path d="M410.73 868.25C415.419 868.25 419.22 864.449 419.22 859.76C419.22 855.071 415.419 851.27 410.73 851.27C406.041 851.27 402.24 855.071 402.24 859.76C402.24 864.449 406.041 868.25 410.73 868.25Z" fill="#ECE3EF"/>
<path d="M551.08 1123.19L548.3 1124.06" stroke="black" stroke-width="0.79" stroke-miterlimit="10"/>
<path d="M593.93 1123.73L596.71 1124.59" stroke="black" stroke-width="0.79" stroke-miterlimit="10"/>
<path opacity="0.21" d="M668.22 930.57C669.18 942.24 673.83 949.88 681.26 953.17H680.89C674.24 945.89 670.84 939.03 668.22 930.57Z" fill="black"/>
<path d="M200.41 1180.86L161.087 1043.47L72.9824 1004L-61.5554 1024.12L-74.1895 1309L205.811 1236.11L200.41 1180.86Z" fill="#140D21"/>
<path d="M72.9116 1004L31.8105 1065.06L39.8799 1207.08L131.66 1237L215.001 1230.5L161.052 1043.49L72.9116 1004Z" fill="#251938"/>
<path d="M193.596 1157.53L160.907 1043.59L76.8105 1006L141.712 1050.89L183.465 1158.95L202.811 1206L193.596 1157.53Z" fill="#992E6E"/>
<path d="M59.3105 1348C120.338 1348 169.811 1298.75 169.811 1238C169.811 1177.25 120.338 1128 59.3105 1128C-1.71693 1128 -51.1895 1177.25 -51.1895 1238C-51.1895 1298.75 -1.71693 1348 59.3105 1348Z" fill="#251938"/>
<path d="M99.0349 1149.16C151.618 1172.15 177.206 1231.45 159.34 1285C160.888 1282.16 162.33 1279.22 163.642 1276.19C187.866 1220.42 162.435 1155.5 106.844 1131.2C51.2441 1106.9 -13.4681 1132.41 -37.6915 1188.18C-39.0032 1191.2 -40.1663 1194.26 -41.1895 1197.33C-14.2552 1147.75 46.4606 1126.18 99.0436 1149.16H99.0349Z" fill="#992E6E"/>
<path d="M1330.68 1000C1327.88 1000 1325.29 998.398 1324.06 995.927L1309 965.25L1322.21 959L1337.27 989.677C1338.12 991.413 1338.23 993.358 1337.58 995.181C1336.94 996.991 1335.62 998.459 1333.85 999.291C1332.84 999.768 1331.78 1000 1330.67 1000H1330.68Z" fill="#BA93BD"/>
<path d="M1077 1017C1130.57 1017 1174 1011.85 1174 1005.5C1174 999.149 1130.57 994 1077 994C1023.43 994 980 999.149 980 1005.5C980 1011.85 1023.43 1017 1077 1017Z" fill="#140D21"/>
<path d="M1174.9 975H1332.67C1374.27 975 1408 941.196 1408 899.5C1408 857.804 1374.27 824 1332.67 824H1172" fill="#CFC2DC"/>
<path d="M1162.9 975H1320.67C1362.27 975 1396 941.196 1396 899.5C1396 857.804 1362.27 824 1320.67 824H1160" fill="#ECE3EF"/>
<path d="M1072.08 1000C1071.01 1000 1069.99 999.755 1069.01 999.291C1067.3 998.459 1066.03 996.991 1065.4 995.181C1064.78 993.371 1064.88 991.413 1065.7 989.677L1080.25 959L1093 965.25L1078.46 995.927C1077.28 998.398 1074.77 1000 1072.07 1000H1072.08Z" fill="#BA93BD"/>
<path d="M1080.42 959.97L1093 965.779L1078.04 995.496C1076.88 997.796 1074.41 999.281 1071.75 999.281C1070.7 999.281 1069.68 999.054 1068.72 998.623C1067.04 997.844 1065.78 996.49 1065.15 994.802C1064.53 993.113 1064.64 991.304 1065.46 989.699L1080.42 959.982M1080.05 959L1064.77 989.376C1062.92 993.065 1064.53 997.497 1068.38 999.269C1069.47 999.772 1070.61 1000 1071.73 1000C1074.61 1000 1077.38 998.455 1078.71 995.808L1094 965.432L1080.05 959Z" fill="#BA93BD"/>
<path d="M1208.93 1000C1206.23 1000 1203.72 998.398 1202.54 995.927L1188 965.25L1200.75 959L1215.3 989.677C1216.12 991.413 1216.22 993.358 1215.6 995.181C1214.97 996.991 1213.7 998.459 1211.99 999.291C1211.01 999.768 1209.99 1000 1208.92 1000H1208.93Z" fill="#BA93BD"/>
<path d="M1201.13 959.97L1215.59 989.687C1217.21 993.005 1215.8 997.006 1212.45 998.611C1211.53 999.054 1210.54 999.269 1209.52 999.269C1206.95 999.269 1204.55 997.784 1203.44 995.484L1188.98 965.767L1201.14 959.958M1201.48 959L1188 965.432L1202.78 995.808C1204.07 998.455 1206.74 1000 1209.52 1000C1210.61 1000 1211.72 999.76 1212.76 999.269C1216.49 997.497 1218.05 993.065 1216.26 989.376L1201.48 959Z" fill="#BA93BD"/>
<path d="M1237.49 912H1321.31C1329.42 912 1336 905.409 1336 897.279V872.721C1336 864.591 1329.42 858 1321.31 858H1217" fill="#CFC2DC"/>
<path d="M1320.75 867H1218.25C1214.8 867 1212 869.76 1212 873.165V897.835C1212 901.24 1214.8 904 1218.25 904H1320.75C1324.2 904 1327 901.24 1327 897.835V873.165C1327 869.76 1324.2 867 1320.75 867Z" fill="#A7FBE9"/>
<mask id="mask11_71_1250" style="mask-type:luminance" maskUnits="userSpaceOnUse" x="1211" y="866" width="116" height="39">
<path d="M1320.59 866.699H1217.78C1214.32 866.699 1211.52 869.504 1211.52 872.965V898.04C1211.52 901.5 1214.32 904.305 1217.78 904.305H1320.59C1324.05 904.305 1326.86 901.5 1326.86 898.04V872.965C1326.86 869.504 1324.05 866.699 1320.59 866.699Z" fill="white"/>
</mask>
<g mask="url(#mask11_71_1250)">
<path d="M1285.92 864.285L1254.16 909.586L1251.82 907.944L1283.58 862.642L1285.92 864.285Z" fill="white"/>
<path d="M1275.61 864.31L1243.91 907.466L1241.61 905.774L1273.3 862.617L1275.61 864.31Z" fill="white"/>
<path d="M1255.45 860.129L1223.76 903.285L1221.45 901.593L1253.15 858.436L1255.45 860.129Z" fill="white"/>
<path d="M1323.4 864.285L1291.63 909.586L1289.29 907.944L1321.06 862.642L1323.4 864.285Z" fill="white"/>
<path d="M1313.1 864.285L1281.33 909.586L1278.99 907.944L1310.75 862.642L1313.1 864.285Z" fill="white"/>
</g>
<g opacity="0.14">
<path d="M1178.26 960.612L1231.74 920.061H1329.83C1329.75 939.73 1323.92 960.612 1307.74 960.612H1178.26Z" fill="#BA93BD"/>
<path d="M1329.45 920.437C1329.3 939.827 1323.55 960.248 1307.74 960.248H1179.35L1231.87 920.437H1329.45ZM1330.19 919.697H1231.62L1177.17 960.988H1307.74C1324.18 960.988 1330.19 940.348 1330.19 919.697Z" fill="#BA93BD"/>
</g>
<path d="M1140 985C1188.05 985 1227 946.273 1227 898.5C1227 850.727 1188.05 812 1140 812C1091.95 812 1053 850.727 1053 898.5C1053 946.273 1091.95 985 1140 985Z" fill="#ECE3EF"/>
<mask id="mask12_71_1250" style="mask-type:luminance" maskUnits="userSpaceOnUse" x="1053" y="811" width="175" height="175">
<path d="M1140.26 985.408C1188.17 985.408 1227.02 946.563 1227.02 898.646C1227.02 850.729 1188.17 811.884 1140.26 811.884C1092.34 811.884 1053.49 850.729 1053.49 898.646C1053.49 946.563 1092.34 985.408 1140.26 985.408Z" fill="white"/>
</mask>
<g mask="url(#mask12_71_1250)">
<g opacity="0.14">
<path d="M1042.7 972.718L1044.02 889.047L1071.72 843.454C1068.45 879.533 1075.9 908.619 1093.89 929.937C1115.73 955.836 1153.76 971.021 1206.94 975.118L1116.07 1001.19L1042.71 972.718H1042.7Z" fill="#BA93BD"/>
<path d="M1071.21 844.994C1068.29 880.442 1075.81 909.092 1093.6 930.18C1115.23 955.824 1152.65 970.998 1204.88 975.324L1116.08 1000.8L1043.07 972.464L1044.38 889.144L1071.21 844.982M1072.23 841.891L1043.65 888.938L1042.33 972.973L1116.05 1001.57L1209.02 974.9C1110.15 967.883 1064.13 923.842 1072.24 841.891H1072.23Z" fill="#BA93BD"/>
</g>
<g opacity="0.14">
<path d="M1104.52 985.929L1062.43 943.838C1088.02 948.626 1114.33 951.049 1140.67 951.049C1167 951.049 1194.32 948.601 1221.56 943.778L1190.99 985.929H1104.5H1104.52Z" fill="#BA93BD"/>
<path d="M1220.73 944.299L1190.81 985.553H1104.66L1063.53 944.42C1088.77 949.061 1114.71 951.413 1140.67 951.413C1166.63 951.413 1193.77 949.013 1220.73 944.299ZM1222.4 943.256C1194.96 948.165 1167.72 950.673 1140.67 950.673C1113.62 950.673 1087.57 948.237 1061.32 943.256L1104.36 986.292H1191.18L1222.4 943.256Z" fill="#BA93BD"/>
</g>
</g>
<path d="M1140.6 807C1108.17 807 1079.69 823.784 1063.44 849.093C1062.46 850.622 1063.2 852.669 1064.94 853.223C1066.61 853.752 1068.54 854.354 1069.89 854.716C1086.67 859.171 1111.88 862 1140.06 862C1171.71 862 1199.62 858.436 1216.04 853.006C1217.82 852.416 1218.56 850.321 1217.54 848.756C1201.25 823.64 1172.88 807.012 1140.6 807.012V807Z" fill="#CFC2DC"/>
<mask id="mask13_71_1250" style="mask-type:luminance" maskUnits="userSpaceOnUse" x="1062" y="807" width="156" height="56">
<path d="M1140.26 807C1107.78 807 1079.25 823.894 1062.97 849.369C1061.99 850.908 1062.73 852.968 1064.47 853.526C1066.15 854.059 1068.09 854.665 1069.43 855.029C1086.24 859.513 1111.48 862.361 1139.71 862.361C1171.41 862.361 1199.36 858.773 1215.81 853.308C1217.59 852.714 1218.33 850.605 1217.31 849.03C1201 823.749 1172.58 807.012 1140.26 807.012V807Z" fill="white"/>
</mask>
<g mask="url(#mask13_71_1250)">
<g opacity="0.14">
<path d="M1193.2 861.936C1175.78 840.958 1151.77 830.196 1119.81 829.032C1107.36 828.572 1096.97 819.446 1095.01 807.29L1124.33 801.352L1193.33 812.211L1224.01 852.653L1193.22 861.924L1193.2 861.936Z" fill="#BA93BD"/>
<path d="M1124.33 801.728L1193.11 812.551L1223.38 852.46L1193.33 861.513C1175.85 840.583 1151.79 829.833 1119.82 828.669C1107.68 828.221 1097.5 819.386 1095.44 807.582L1124.34 801.728M1124.32 800.977L1094.59 807L1094.63 807.206C1096.57 819.713 1107.16 828.936 1119.8 829.397C1153.68 830.633 1176.94 842.825 1193.07 862.349L1224.61 852.847L1193.51 811.86L1124.31 800.965L1124.32 800.977Z" fill="#BA93BD"/>
</g>
<path d="M1133.34 808.408C1169.71 803.657 1201.71 822.869 1218.82 851.51C1219.81 853.172 1219.27 855.324 1217.61 856.316C1215.94 857.309 1213.79 856.766 1212.8 855.104C1196.91 828.506 1167.45 811.021 1134.25 815.359C1132.33 815.61 1130.57 814.257 1130.32 812.338C1130.07 810.418 1131.42 808.659 1133.34 808.408Z" fill="#E9D0EE"/>
</g>
<path d="M1058 934C1066.84 934 1074 919.673 1074 902C1074 884.327 1066.84 870 1058 870C1049.16 870 1042 884.327 1042 902C1042 919.673 1049.16 934 1058 934Z" fill="#CFC2DC"/>
<path d="M1222 934C1230.84 934 1238 919.673 1238 902C1238 884.327 1230.84 870 1222 870C1213.16 870 1206 884.327 1206 902C1206 919.673 1213.16 934 1222 934Z" fill="#CFC2DC"/>
<path d="M1043.85 897.498C1045.73 897.42 1047.32 898.827 1047.49 900.673L1047.5 900.853L1047.56 902.025C1047.87 907.834 1048.68 912.896 1049.82 917.026C1051.06 921.48 1052.63 924.632 1054.21 926.508C1055.76 928.343 1056.96 928.597 1057.81 928.463C1058.89 928.291 1060.77 927.29 1063.13 923.921C1064.24 922.336 1066.43 921.951 1068.01 923.062C1069.6 924.173 1069.98 926.358 1068.87 927.944C1066.06 931.951 1062.74 934.779 1058.9 935.387C1054.83 936.032 1051.38 934.016 1048.86 931.03C1046.37 928.086 1044.45 923.866 1043.07 918.898C1041.76 914.194 1040.9 908.618 1040.56 902.4L1040.5 901.148L1040.5 900.967C1040.51 899.113 1041.98 897.577 1043.85 897.498Z" fill="#E9D0EE"/>
<path d="M1057.34 870.159C1060.7 869.628 1063.64 871.251 1065.95 873.98C1068.23 876.686 1070.08 880.667 1071.42 885.521C1072.69 890.097 1073.55 895.557 1073.88 901.685L1073.94 902.919L1073.94 903.117C1073.88 904.099 1073.08 904.896 1072.08 904.939C1071.08 904.981 1070.22 904.252 1070.08 903.279L1070.06 903.081L1070 901.892C1069.69 895.991 1068.86 890.815 1067.68 886.557C1066.42 881.988 1064.77 878.597 1062.98 876.483C1061.22 874.391 1059.52 873.743 1057.95 873.991C1056.35 874.244 1054.32 875.497 1052.05 878.547L1051.59 879.181C1050.97 880.058 1049.76 880.271 1048.89 879.656C1048.01 879.042 1047.8 877.832 1048.41 876.954L1048.92 876.247C1051.5 872.795 1054.32 870.638 1057.34 870.159Z" fill="#ECE3EF"/>
<path d="M1236.08 898.061C1237.09 898.103 1237.88 898.901 1237.94 899.883L1237.94 900.081C1237.66 906.711 1236.78 912.598 1235.42 917.479C1234.08 922.333 1232.23 926.314 1229.95 929.02C1227.64 931.749 1224.7 933.372 1221.34 932.841C1218.32 932.362 1215.5 930.205 1212.92 926.753L1212.41 926.046L1212.31 925.877C1211.83 925.019 1212.06 923.92 1212.89 923.344C1213.71 922.767 1214.82 922.918 1215.47 923.662L1215.59 923.819L1216.05 924.453C1218.32 927.502 1220.36 928.756 1221.95 929.009C1223.52 929.257 1225.22 928.609 1226.98 926.517C1228.77 924.403 1230.42 921.012 1231.69 916.443C1232.94 911.902 1233.79 906.315 1234.06 899.919L1234.08 899.72C1234.22 898.747 1235.08 898.019 1236.08 898.061Z" fill="#ECE3EF"/>
<path d="M1213.25 871.911C1215.89 868.92 1219.42 866.988 1223.53 867.61C1227.19 868.164 1230.45 870.633 1233.27 874.257L1233.83 874.996L1233.93 875.145C1234.95 876.694 1234.58 878.788 1233.07 879.896C1231.56 881.004 1229.45 880.721 1228.28 879.282L1228.17 879.139L1227.72 878.537C1225.47 875.66 1223.65 874.718 1222.48 874.541C1221.45 874.384 1220.12 874.722 1218.5 876.551C1215.06 880.449 1212.06 889.355 1211.5 902.155C1211.42 904.088 1209.78 905.587 1207.85 905.502C1205.91 905.417 1204.41 903.78 1204.5 901.846C1205.08 888.593 1208.18 877.655 1213.25 871.911Z" fill="#E9D0EE"/>
<g opacity="0.14">
<path d="M1057.14 916.364C1054.41 916.364 1052.11 909.626 1052.11 901.664C1052.11 893.701 1054.41 886.963 1057.14 886.963C1059.87 886.963 1062.17 893.701 1062.17 901.664C1062.17 909.626 1059.87 916.364 1057.14 916.364Z" fill="#BA93BD"/>
<path d="M1057.14 887.326C1059.35 887.326 1061.8 893.216 1061.8 901.663C1061.8 910.11 1059.34 916 1057.14 916C1054.95 916 1052.49 910.11 1052.49 901.663C1052.49 893.216 1054.95 887.326 1057.14 887.326ZM1057.14 886.587C1054.16 886.587 1051.75 893.337 1051.75 901.663C1051.75 909.989 1054.16 916.74 1057.14 916.74C1060.12 916.74 1062.54 909.989 1062.54 901.663C1062.54 893.337 1060.12 886.587 1057.14 886.587Z" fill="#BA93BD"/>
</g>
<g opacity="0.14">
<path d="M1224.62 916.364C1221.89 916.364 1219.59 909.626 1219.59 901.664C1219.59 893.701 1221.89 886.963 1224.62 886.963C1227.34 886.963 1229.65 893.701 1229.65 901.664C1229.65 909.626 1227.34 916.364 1224.62 916.364Z" fill="#BA93BD"/>
<path d="M1224.62 887.326C1226.82 887.326 1229.27 893.216 1229.27 901.663C1229.27 910.11 1226.82 916 1224.62 916C1222.41 916 1219.96 910.11 1219.96 901.663C1219.96 893.216 1222.42 887.326 1224.62 887.326ZM1224.62 886.587C1221.64 886.587 1219.22 893.337 1219.22 901.663C1219.22 909.989 1221.64 916.74 1224.62 916.74C1227.6 916.74 1230.01 909.989 1230.01 901.663C1230.01 893.337 1227.6 886.587 1224.62 886.587Z" fill="#BA93BD"/>
</g>
<path d="M1169.92 898.5C1169.92 882.255 1156.75 869.085 1140.5 869.085C1124.25 869.085 1111.08 882.255 1111.08 898.5C1111.08 914.745 1124.25 927.915 1140.5 927.915C1156.75 927.915 1169.92 914.745 1169.92 898.5ZM1178.08 898.5C1178.08 919.258 1161.26 936.085 1140.5 936.085C1119.74 936.085 1102.92 919.258 1102.92 898.5C1102.92 877.742 1119.74 860.915 1140.5 860.915C1161.26 860.915 1178.08 877.742 1178.08 898.5Z" fill="#E9D0EE"/>
<path d="M1148.09 898.5C1148.09 894.308 1144.69 890.91 1140.5 890.91C1136.31 890.91 1132.91 894.308 1132.91 898.5C1132.91 902.692 1136.31 906.09 1140.5 906.09C1144.69 906.09 1148.09 902.692 1148.09 898.5ZM1151.91 898.5C1151.91 904.802 1146.8 909.91 1140.5 909.91C1134.2 909.91 1129.09 904.802 1129.09 898.5C1129.09 892.198 1134.2 887.09 1140.5 887.09C1146.8 887.09 1151.91 892.198 1151.91 898.5Z" fill="#BA93BD"/>
<path d="M1167.09 898.5C1167.09 883.846 1154.99 871.91 1140 871.91C1125.01 871.91 1112.91 883.846 1112.91 898.5C1112.91 913.154 1125.01 925.09 1140 925.09C1154.99 925.09 1167.09 913.154 1167.09 898.5ZM1170.91 898.5C1170.91 915.326 1157.04 928.91 1140 928.91C1122.96 928.91 1109.09 915.326 1109.09 898.5C1109.09 881.674 1122.96 868.09 1140 868.09C1157.04 868.09 1170.91 881.674 1170.91 898.5Z" fill="#BA93BD"/>
<path d="M1150.68 885.621C1151.44 884.891 1152.65 884.917 1153.38 885.679C1154.11 886.44 1154.08 887.649 1153.32 888.379L1129.32 911.379C1128.56 912.109 1127.35 912.083 1126.62 911.321C1125.89 910.56 1125.92 909.351 1126.68 908.621L1150.68 885.621Z" fill="#BA93BD"/>
<path d="M1126.62 885.678C1127.31 884.964 1128.41 884.897 1129.17 885.493L1129.32 885.621L1153.32 908.621L1153.46 908.763C1154.08 909.5 1154.06 910.607 1153.38 911.321C1152.69 912.035 1151.59 912.102 1150.83 911.507L1150.68 911.379L1126.68 888.379L1126.54 888.236C1125.92 887.499 1125.94 886.392 1126.62 885.678Z" fill="#BA93BD"/>
<path d="M1122.12 921.651C1122.32 920.614 1123.31 919.929 1124.35 920.122C1125.39 920.315 1126.07 921.313 1125.88 922.35L1109.88 1008.35C1109.69 1009.39 1108.69 1010.07 1107.65 1009.88C1106.61 1009.69 1105.93 1008.69 1106.12 1007.65L1122.12 921.651Z" fill="#BA93BD"/>
<path d="M1154.63 920.126C1155.6 919.934 1156.54 920.514 1156.83 921.44L1156.87 921.63L1173.87 1007.63L1173.9 1007.82C1173.99 1008.79 1173.34 1009.68 1172.37 1009.87C1171.4 1010.07 1170.46 1009.49 1170.17 1008.56L1170.13 1008.37L1153.13 922.37L1153.1 922.177C1153.01 921.213 1153.66 920.318 1154.63 920.126Z" fill="#BA93BD"/>
<path d="M1157 933.09L1157.2 933.1C1158.16 933.197 1158.91 934.011 1158.91 935C1158.91 935.989 1158.16 936.803 1157.2 936.9L1157 936.91H1122C1120.95 936.91 1120.09 936.055 1120.09 935C1120.09 933.945 1120.95 933.09 1122 933.09H1157Z" fill="#BA93BD"/>
<path d="M1160 948.09L1160.2 948.1C1161.16 948.197 1161.91 949.011 1161.91 950C1161.91 950.989 1161.16 951.803 1160.2 951.9L1160 951.91H1119C1117.95 951.91 1117.09 951.055 1117.09 950C1117.09 948.945 1117.95 948.09 1119 948.09H1160Z" fill="#BA93BD"/>
<path d="M1163 962.09L1163.2 962.1C1164.16 962.197 1164.91 963.011 1164.91 964C1164.91 964.989 1164.16 965.803 1163.2 965.9L1163 965.91H1116C1114.95 965.91 1114.09 965.055 1114.09 964C1114.09 962.945 1114.95 962.09 1116 962.09H1163Z" fill="#BA93BD"/>
<path d="M1166 976.09L1166.2 976.1C1167.16 976.197 1167.91 977.011 1167.91 978C1167.91 978.989 1167.16 979.803 1166.2 979.9L1166 979.91H1114C1112.95 979.91 1112.09 979.055 1112.09 978C1112.09 976.945 1112.95 976.09 1114 976.09H1166Z" fill="#BA93BD"/>
<path d="M1168 992.09L1168.2 992.1C1169.16 992.197 1169.91 993.011 1169.91 994C1169.91 994.989 1169.16 995.803 1168.2 995.9L1168 995.91H1111C1109.95 995.91 1109.09 995.055 1109.09 994C1109.09 992.945 1109.95 992.09 1111 992.09H1168Z" fill="#BA93BD"/>
<path d="M1325 826.495L1325.18 826.5C1327.03 826.594 1328.5 828.125 1328.5 830C1328.5 831.875 1327.03 833.406 1325.18 833.5L1325 833.505H1225C1223.06 833.505 1221.5 831.936 1221.5 830C1221.5 828.064 1223.06 826.495 1225 826.495H1325Z" fill="#E9D0EE"/>
<path d="M1353.14 838.97C1354.23 837.442 1356.32 837.046 1357.88 838.042L1358.03 838.143L1358.88 838.756C1376.41 851.494 1387.4 868.457 1392.2 889.24L1392.42 890.248L1392.46 890.426C1392.76 892.255 1391.58 894.022 1389.75 894.424C1387.92 894.826 1386.11 893.716 1385.62 891.927L1385.58 891.752L1385.37 890.822C1380.95 871.649 1370.9 856.149 1354.76 844.422L1353.97 843.858L1353.83 843.749C1352.37 842.6 1352.06 840.499 1353.14 838.97Z" fill="#E9D0EE"/>
<path d="M254.789 1195L211.811 1203.31L268.679 1219.98L316.811 1260L298.801 1217.9L254.789 1195Z" fill="#992E6E"/>
<path d="M301.47 1173.99L210.32 1191.5L200.26 1210.84L317.32 1202.31L301.47 1173.99Z" fill="#251938"/>
<path d="M166.61 1227.5L118.811 1240.15L148.33 1298L316.811 1259.91L268.845 1220L166.61 1227.5Z" fill="#251938"/>
<path d="M172.948 232.14L151.192 201.136L123.358 203.936L99.7197 198.993L72.3301 205.202L84.0841 231.195L108.955 243.271L136.837 274.159L172.914 282.223L217 282.476L206.567 256.469L199.585 235.816L172.948 232.14Z" fill="#251938"/>
<path d="M72.3301 205.202L101.664 195.084L124.748 200.143L151.72 196.919L174.187 227.971L202.179 232.879L217 282.476L199.585 235.816L172.948 232.14L151.192 201.136L123.358 203.935L99.7197 198.993L72.3301 205.202Z" fill="#323275"/>
<path d="M72.3301 205.202L103.875 190.798L123.57 195.084L154.403 192.873L176.426 225.78L205.184 229.148L217 282.476L202.179 232.879L174.187 227.97L151.72 196.918L124.748 200.143L101.664 195.084L72.3301 205.202Z" fill="#992E6E"/>
<path d="M72.3301 205.202L105.6 186.185L123.666 190.799L156.648 188.519L178.733 222.631L208.847 225.513L217 282.476L205.184 229.148L176.426 225.78L154.403 192.873L123.57 195.084L103.875 190.799L72.3301 205.202Z" fill="#EF888D"/>
<path d="M1285.75 431.4C1282.12 431.4 1279.16 428.44 1279.16 424.81C1279.16 424.52 1278.92 424.28 1278.63 424.28C1278.34 424.28 1278.1 424.52 1278.1 424.81C1278.1 428.44 1275.14 431.4 1271.51 431.4C1271.22 431.4 1270.98 431.64 1270.98 431.93C1270.98 432.22 1271.22 432.46 1271.51 432.46C1275.14 432.46 1278.1 435.42 1278.1 439.05C1278.1 439.34 1278.34 439.58 1278.63 439.58C1278.92 439.58 1279.16 439.34 1279.16 439.05C1279.16 435.42 1282.12 432.46 1285.75 432.46C1286.04 432.46 1286.28 432.22 1286.28 431.93C1286.28 431.64 1286.04 431.4 1285.75 431.4Z" fill="white"/>
<path d="M753.15 587.46C749.52 587.46 746.56 584.5 746.56 580.87C746.56 580.58 746.32 580.34 746.03 580.34C745.74 580.34 745.5 580.58 745.5 580.87C745.5 584.5 742.54 587.46 738.91 587.46C738.62 587.46 738.38 587.7 738.38 587.99C738.38 588.28 738.62 588.52 738.91 588.52C742.54 588.52 745.5 591.48 745.5 595.11C745.5 595.4 745.74 595.64 746.03 595.64C746.32 595.64 746.56 595.4 746.56 595.11C746.56 591.48 749.52 588.52 753.15 588.52C753.44 588.52 753.68 588.28 753.68 587.99C753.68 587.7 753.44 587.46 753.15 587.46Z" fill="white"/>
<path d="M552.61 468.22C554.051 468.22 555.22 467.051 555.22 465.61C555.22 464.169 554.051 463 552.61 463C551.169 463 550 464.169 550 465.61C550 467.051 551.169 468.22 552.61 468.22Z" fill="white"/>
<path d="M375.61 373.22C377.051 373.22 378.22 372.051 378.22 370.61C378.22 369.169 377.051 368 375.61 368C374.169 368 373 369.169 373 370.61C373 372.051 374.169 373.22 375.61 373.22Z" fill="white"/>
<path d="M1197.82 652.52C1199.26 652.52 1200.43 651.351 1200.43 649.91C1200.43 648.468 1199.26 647.3 1197.82 647.3C1196.38 647.3 1195.21 648.468 1195.21 649.91C1195.21 651.351 1196.38 652.52 1197.82 652.52Z" fill="white"/>
<path d="M241 515C242.105 515 243 514.105 243 513C243 511.895 242.105 511 241 511C239.895 511 239 511.895 239 513C239 514.105 239.895 515 241 515Z" fill="#9888BF"/>
<path d="M709.31 524.34C710.752 524.34 711.92 523.172 711.92 521.73C711.92 520.289 710.752 519.12 709.31 519.12C707.869 519.12 706.7 520.289 706.7 521.73C706.7 523.172 707.869 524.34 709.31 524.34Z" fill="#9888BF"/>
<path d="M286.85 608.94C289.12 608.94 290.96 607.1 290.96 604.83C290.96 602.56 289.12 600.72 286.85 600.72C284.58 600.72 282.74 602.56 282.74 604.83C282.74 607.1 284.58 608.94 286.85 608.94Z" fill="#9888BF"/>
<path d="M1132.19 425.33C1135.37 425.33 1137.95 422.751 1137.95 419.57C1137.95 416.389 1135.37 413.81 1132.19 413.81C1129.01 413.81 1126.43 416.389 1126.43 419.57C1126.43 422.751 1129.01 425.33 1132.19 425.33Z" fill="#9888BF"/>
<path d="M1321.95 541.52C1323.39 541.52 1324.56 540.351 1324.56 538.91C1324.56 537.468 1323.39 536.3 1321.95 536.3C1320.51 536.3 1319.34 537.468 1319.34 538.91C1319.34 540.351 1320.51 541.52 1321.95 541.52Z" fill="#9888BF"/>
<path d="M941.61 523.22C943.051 523.22 944.22 522.051 944.22 520.61C944.22 519.169 943.051 518 941.61 518C940.169 518 939 519.169 939 520.61C939 522.051 940.169 523.22 941.61 523.22Z" fill="#9888BF"/>
<path d="M95.2301 442.63C96.6716 442.63 97.8401 441.462 97.8401 440.02C97.8401 438.579 96.6716 437.41 95.2301 437.41C93.7887 437.41 92.6201 438.579 92.6201 440.02C92.6201 441.462 93.7887 442.63 95.2301 442.63Z" fill="#9888BF"/>
<path d="M993.001 493.57C994.442 493.57 995.611 492.402 995.611 490.96C995.611 489.519 994.442 488.35 993.001 488.35C991.559 488.35 990.391 489.519 990.391 490.96C990.391 492.402 991.559 493.57 993.001 493.57Z" fill="#9888BF"/>
<path d="M1051.67 584.24C1053.11 584.24 1054.28 583.071 1054.28 581.63C1054.28 580.189 1053.11 579.02 1051.67 579.02C1050.23 579.02 1049.06 580.189 1049.06 581.63C1049.06 583.071 1050.23 584.24 1051.67 584.24Z" fill="white"/>
<path d="M201.399 384.83C197.439 384.83 194.209 381.61 194.209 377.64C194.209 377.32 193.949 377.06 193.629 377.06C193.309 377.06 193.049 377.32 193.049 377.64C193.049 381.6 189.829 384.83 185.859 384.83C185.539 384.83 185.279 385.09 185.279 385.41C185.279 385.73 185.539 385.99 185.859 385.99C189.819 385.99 193.049 389.21 193.049 393.18C193.049 393.5 193.309 393.76 193.629 393.76C193.949 393.76 194.209 393.5 194.209 393.18C194.209 389.22 197.429 385.99 201.399 385.99C201.719 385.99 201.979 385.73 201.979 385.41C201.979 385.09 201.719 384.83 201.399 384.83Z" fill="#F2C666"/>
<path d="M1438.55 475.59C1434.59 475.59 1431.36 472.37 1431.36 468.4C1431.36 468.08 1431.1 467.82 1430.78 467.82C1430.46 467.82 1430.2 468.08 1430.2 468.4C1430.2 472.36 1426.98 475.59 1423.01 475.59C1422.69 475.59 1422.43 475.85 1422.43 476.17C1422.43 476.49 1422.69 476.75 1423.01 476.75C1426.97 476.75 1430.2 479.97 1430.2 483.94C1430.2 484.26 1430.46 484.52 1430.78 484.52C1431.1 484.52 1431.36 484.26 1431.36 483.94C1431.36 479.98 1434.58 476.75 1438.55 476.75C1438.87 476.75 1439.13 476.49 1439.13 476.17C1439.13 475.85 1438.87 475.59 1438.55 475.59Z" fill="#F2C666"/>
<path d="M1273.83 575.94C1277.29 575.94 1280.09 573.137 1280.09 569.68C1280.09 566.223 1277.29 563.42 1273.83 563.42C1270.37 563.42 1267.57 566.223 1267.57 569.68C1267.57 573.137 1270.37 575.94 1273.83 575.94Z" fill="#45B2B6"/>
<path d="M1187.01 484.28L1269.28 573.97L1278.05 565.19L1187.01 484.28Z" fill="#45B2B6"/>
<path d="M1157.22 524.32C1160.24 524.32 1162.69 521.871 1162.69 518.85C1162.69 515.829 1160.24 513.38 1157.22 513.38C1154.2 513.38 1151.75 515.829 1151.75 518.85C1151.75 521.871 1154.2 524.32 1157.22 524.32Z" fill="#FF7D8D"/>
<path d="M1081.36 444.24L1153.24 522.6L1160.91 514.93L1081.36 444.24Z" fill="#FF7D8D"/>
<path d="M1273.83 574.49C1276.49 574.49 1278.64 572.337 1278.64 569.68C1278.64 567.024 1276.49 564.87 1273.83 564.87C1271.17 564.87 1269.02 567.024 1269.02 569.68C1269.02 572.337 1271.17 574.49 1273.83 574.49Z" fill="#AFEFEF"/>
<path d="M1157.22 522.8C1159.4 522.8 1161.17 521.031 1161.17 518.85C1161.17 516.668 1159.4 514.9 1157.22 514.9C1155.04 514.9 1153.27 516.668 1153.27 518.85C1153.27 521.031 1155.04 522.8 1157.22 522.8Z" fill="#F9AFBB"/>
<path d="M1268.94 1133.83L1313.79 977.26L1414.27 932.28L1567.73 955.21L1582.14 1279.86L1262.78 1196.79L1268.94 1133.83Z" fill="#140D21"/>
<path d="M1414.27 932.28L1461.14 1001.84L1451.94 1163.61L1347.29 1197.7L1276.65 1106.91L1313.79 977.26L1414.27 932.28Z" fill="#251938"/>
<path d="M1371.07 1183.7L1422.44 1065.91L1518.79 1050.37L1541.48 1046.71L1563.75 1279.86H1371.07V1183.7Z" fill="#140D21"/>
<path d="M1439.05 1088.82L1394.08 1212.78L1362.39 1203.61L1422.44 1065.91L1541.48 1046.71L1439.05 1088.82Z" fill="#992E6E"/>
<path d="M1104.36 1191.78C1125.73 1138.09 1178.17 1100.15 1239.47 1100.15C1300.77 1100.15 1347.84 1134.33 1371.07 1183.7L1409.33 1279.87H1100.16L1104.35 1191.79L1104.36 1191.78Z" fill="#251938"/>
<path d="M1129.8 1205.46C1151.17 1151.77 1203.61 1113.83 1264.91 1113.83C1284.62 1113.83 1303.42 1117.77 1320.56 1124.88C1297.39 1109.28 1269.5 1100.15 1239.47 1100.15C1178.17 1100.15 1125.73 1138.1 1104.36 1191.78L1100.17 1279.86H1126.26L1129.8 1205.46Z" fill="#992E6E"/>
<path d="M1100.09 1190.03L1010.96 1218.57L972.9 1279.86L1043.76 1227.96L1142.71 1207.47L1100.09 1190.03Z" fill="#992E6E"/>
<path d="M1201.24 1279.86L1177.2 1221.58L1142.71 1207.47C1142.66 1207.45 1043.74 1227.92 1043.77 1227.96L972.91 1279.86H1201.24Z" fill="#251938"/>
<path d="M1422.44 1423.88C1491.79 1423.88 1548.01 1367.66 1548.01 1298.31C1548.01 1228.96 1491.79 1172.74 1422.44 1172.74C1353.09 1172.74 1296.87 1228.96 1296.87 1298.31C1296.87 1367.66 1353.09 1423.88 1422.44 1423.88Z" fill="#251938"/>
<path d="M1370.25 1200.77C1427.72 1169.18 1499.12 1187.31 1534.96 1240.77C1533.47 1237.39 1531.83 1234.04 1530.02 1230.74C1496.61 1169.97 1420.26 1147.78 1359.49 1181.19C1298.72 1214.6 1276.53 1290.95 1309.94 1351.72C1311.75 1355.02 1313.7 1358.2 1315.76 1361.27C1289.83 1302.36 1312.78 1232.36 1370.25 1200.77Z" fill="#992E6E"/>
<path d="M1276.65 1106.91L1313.79 977.26L1409.34 934.49L1335.6 985.57L1288.16 1108.51L1276.65 1106.91Z" fill="#992E6E"/>
<g clip-path="url(#clip1_71_1250)">
<path d="M776.737 1253.01C793.567 1253.01 807.211 1250.14 807.211 1246.59C807.211 1243.04 793.567 1240.17 776.737 1240.17C759.906 1240.17 746.263 1243.04 746.263 1246.59C746.263 1250.14 759.906 1253.01 776.737 1253.01Z" fill="#140D21"/>
<path d="M597.156 1321C651.366 1321 695.312 1311.74 695.312 1300.32C695.312 1288.89 651.366 1279.63 597.156 1279.63C542.946 1279.63 499 1288.89 499 1300.32C499 1311.74 542.946 1321 597.156 1321Z" fill="#140D21"/>
<path d="M572.518 1179.01L555.092 1169.54C549.93 1166.73 548.012 1160.26 550.807 1155.07L580.261 1095.3C583.444 1088.85 591.32 1086.34 597.625 1089.76L622.192 1103.11L586.923 1174.7C584.128 1179.89 577.68 1181.81 572.518 1179.01Z" fill="white"/>
<path d="M608.092 1132.12L644.207 1151.74L622.692 1191.67C619.9 1196.85 613.442 1198.78 608.283 1195.98L590.858 1186.51C585.699 1183.7 583.776 1177.22 586.568 1172.04L608.083 1132.11L608.092 1132.12Z" fill="white"/>
<path d="M590.627 1188.04L583.638 1195.06C582.69 1196.01 582.904 1197.62 584.087 1198.28L601.39 1207.99C602.462 1208.59 603.818 1208.1 604.267 1206.95L607.838 1197.78C608.216 1196.83 608.5 1196 608.5 1196L591.5 1186.5C591.5 1186.5 590.617 1188.04 590.617 1188.05L590.627 1188.04Z" fill="#999999"/>
<path d="M552.583 1169.54L545.594 1176.56C544.646 1177.51 544.86 1179.12 546.043 1179.78L563.346 1189.49C564.418 1190.09 565.775 1189.6 566.223 1188.45L569.794 1179.28C570.172 1178.33 570.456 1177.5 570.456 1177.5L553.456 1168C553.456 1168 552.573 1169.54 552.573 1169.55L552.583 1169.54Z" fill="#999999"/>
<path opacity="0.62" d="M699.77 1057.49C730.704 1057.49 755.781 1032.31 755.781 1001.24C755.781 970.182 730.704 945 699.77 945C668.837 945 643.76 970.182 643.76 1001.24C643.76 1032.31 668.837 1057.49 699.77 1057.49Z" fill="#FCFAFC"/>
<path d="M697.914 966.515C692.089 966.515 686.6 967.949 681.764 970.459L681.784 970.438C678.683 970.244 676.489 968.389 674.786 965.675C674.469 965.173 673.714 965.213 673.459 965.756C672.204 968.471 672.235 971.299 673.388 974.229C673.633 974.854 673.041 975.499 672.419 975.243C668.889 973.768 666.665 971.033 665.573 967.201C665.328 966.33 664.124 966.207 663.747 967.037C660.288 974.68 660.921 981.78 665.389 988.377H665.399C663.696 992.516 662.747 997.065 662.747 1001.84C662.747 1021.35 678.499 1037.16 697.924 1037.16C717.35 1037.16 733.102 1021.35 733.102 1001.84C733.102 982.333 717.35 966.515 697.924 966.515H697.914Z" fill="#E2A95D"/>
<path d="M688.354 1107.15C710.677 1127.75 744.191 1129.49 779.471 1117.41C781.062 1116.87 782.817 1117.86 783.092 1119.53C787.051 1143.52 758.831 1165.46 729.694 1169.63C713.564 1171.94 678.029 1160.84 678.029 1160.84" fill="#EEE5F1"/>
<path d="M687.334 1003.37C693.995 1003.37 699.394 997.944 699.394 991.256C699.394 984.568 693.995 979.146 687.334 979.146C680.674 979.146 675.275 984.568 675.275 991.256C675.275 997.944 680.674 1003.37 687.334 1003.37Z" stroke="#2E454E" stroke-width="1.09" stroke-linecap="round" stroke-linejoin="round"/>
<path d="M711.187 999.708C717.847 999.708 723.246 994.286 723.246 987.598C723.246 980.91 717.847 975.489 711.187 975.489C704.527 975.489 699.128 980.91 699.128 987.598C699.128 994.286 704.527 999.708 711.187 999.708Z" stroke="#2E454E" stroke-width="1.09" stroke-linecap="round" stroke-linejoin="round"/>
<path d="M675.377 989.719C670.163 987.865 664.348 989.504 660.859 993.817L659.186 995.876" stroke="#2E454E" stroke-width="1.09" stroke-linecap="round" stroke-linejoin="round"/>
<path d="M729.173 1020.66C721.664 1020.24 714.431 1014.52 712.758 1008.38C711.789 1006.21 709.636 1004.71 707.126 1004.71C703.719 1004.71 700.954 1007.48 700.954 1010.91C700.77 1024.2 716.961 1043.37 727.367 1042.94C733.54 1042.94 738.539 1037.92 738.539 1031.72C738.539 1025.53 733.54 1020.51 727.367 1020.51" fill="#EAC775"/>
<path d="M591.106 1098.99L587.188 1100.6C581.546 1102.92 575.16 1102.5 569.865 1099.47C560.764 1094.27 549.583 1101.41 550.419 1111.89L550.909 1118.01C553.592 1151.36 593.34 1187.47 631.548 1187.47C669.755 1187.47 689.262 1156.36 689.262 1118.01C689.497 1107.33 687.456 1099.65 684.396 1093.3C679.978 1087.6 672.745 1083.72 664.358 1080.57C659.257 1078.64 647.066 1078.43 642.362 1079.27" fill="#D1C4DE"/>
<path d="M682.958 1079.27C682.958 1079.27 689.701 1083.1 688.936 1087.23C688.171 1091.36 681.774 1095.69 672.276 1091.53C662.778 1087.37 663.553 1080.81 665.196 1078.64C667.41 1075.72 673.684 1077.1 673.684 1077.1" fill="#BC95BF"/>
<path d="M595.871 1281.6C594.167 1278.1 590.596 1275.7 586.454 1275.7C580.67 1275.7 575.977 1280.41 575.977 1286.22V1290.97H609.685V1273.38H593.902L590.484 1276.51" fill="#D5C4E1"/>
<mask id="mask14_71_1250" style="mask-type:luminance" maskUnits="userSpaceOnUse" x="575" y="1273" width="35" height="18">
<path d="M595.871 1281.6C594.167 1278.1 590.596 1275.7 586.454 1275.7C580.67 1275.7 575.977 1280.41 575.977 1286.22V1290.97H609.685V1273.38H593.902L590.484 1276.51" fill="white"/>
</mask>
<g mask="url(#mask14_71_1250)">
<path d="M593.923 1278.84C585.455 1275.07 578.762 1279.02 575.987 1286.22C575.793 1283.26 576.375 1280.14 577.558 1276.91L587.515 1274.49L593.933 1278.84H593.923Z" fill="#9888BF"/>
</g>
<path d="M633.109 1282.15C634.813 1278.66 638.383 1276.25 642.526 1276.25C648.31 1276.25 653.003 1280.96 653.003 1286.77V1291.53H619.295V1273.93H635.078L638.496 1277.06" fill="#D5C4E1"/>
<mask id="mask15_71_1250" style="mask-type:luminance" maskUnits="userSpaceOnUse" x="619" y="1273" width="35" height="19">
<path d="M633.109 1282.15C634.813 1278.66 638.383 1276.25 642.526 1276.25C648.31 1276.25 653.003 1280.96 653.003 1286.77V1291.53H619.295V1273.93H635.078L638.496 1277.06" fill="white"/>
</mask>
<g mask="url(#mask15_71_1250)">
<path d="M635.057 1279.4C643.525 1275.62 650.218 1279.57 652.993 1286.77C653.187 1283.81 652.605 1280.7 651.422 1277.46L641.464 1275.04L635.047 1279.4H635.057Z" fill="#9888BF"/>
</g>
<path d="M683.794 1034.19C681.713 1048.91 678.295 1063.2 673.674 1077.1C673.408 1077.88 673.153 1078.66 672.878 1079.44C672.459 1080.67 672.796 1082.06 673.806 1082.88C675.367 1084.16 677.357 1084.74 679.887 1084.43C680.734 1084.33 681.448 1083.73 681.723 1082.92C686.845 1068.13 690.609 1052.53 692.833 1036.8C689.814 1036.34 686.794 1035.46 683.794 1034.21V1034.19Z" fill="url(#paint2_linear_71_1250)"/>
<mask id="mask16_71_1250" style="mask-type:luminance" maskUnits="userSpaceOnUse" x="672" y="1034" width="21" height="51">
<path d="M683.794 1034.19C681.713 1048.91 678.295 1063.2 673.674 1077.1C673.408 1077.88 673.153 1078.66 672.878 1079.44C672.459 1080.67 672.796 1082.06 673.806 1082.88C675.367 1084.16 677.357 1084.74 679.887 1084.43C680.734 1084.33 681.448 1083.73 681.723 1082.92C686.845 1068.13 690.609 1052.53 692.833 1036.8C689.814 1036.34 686.794 1035.46 683.794 1034.21V1034.19Z" fill="white"/>
</mask>
<g mask="url(#mask16_71_1250)">
<path d="M674.704 1089.96C680.163 1074.47 687.029 1048.28 689.375 1031.76L680.173 1028.74C677.837 1045.25 671.736 1067.31 666.277 1082.8" fill="#D78C4E"/>
</g>
<path d="M634.211 1051.63C644.943 1075.04 645.454 1097.87 638.822 1120.3C638.261 1122.21 635.965 1123.01 634.374 1121.81C615.081 1107.31 615.296 1071.21 628.467 1051.13C629.885 1048.97 633.129 1049.26 634.211 1051.62V1051.63Z" fill="white" stroke="black" stroke-width="0.8" stroke-miterlimit="10"/>
<path d="M634.211 1051.63C633.19 1044.41 632.017 1037.42 629.283 1032.85C628.171 1031 625.559 1030.74 624.049 1032.29C606.675 1050.16 603.451 1092.89 626.161 1112.67" fill="white"/>
<path d="M634.211 1051.63C633.19 1044.41 632.017 1037.42 629.283 1032.85C628.171 1031 625.559 1030.74 624.049 1032.29C606.675 1050.16 603.451 1092.89 626.161 1112.67" stroke="black" stroke-width="0.8" stroke-miterlimit="10"/>
<path d="M621.631 1265.28H635.353C637.536 1265.28 639.301 1267.05 639.301 1269.24V1272.23C639.301 1274.59 637.394 1276.5 635.057 1276.5H622.916C620.305 1276.5 618.183 1274.37 618.183 1271.74V1268.75C618.183 1266.84 619.733 1265.28 621.641 1265.28H621.631Z" fill="#B3B3B3"/>
<path d="M591.708 1264.48H606.899C609.083 1264.48 610.848 1266.25 610.848 1268.44V1271.43C610.848 1273.79 608.94 1275.7 606.603 1275.7H592.994C590.382 1275.7 588.26 1273.57 588.26 1270.94V1267.95C588.26 1266.04 589.811 1264.48 591.718 1264.48H591.708Z" fill="#B3B3B3"/>
<g clip-path="url(#clip2_71_1250)">
<path d="M596.541 1172.8C598.522 1174.19 599.011 1176.92 597.633 1178.91L580.775 1203.24C577.029 1208.58 576.191 1215.57 579.023 1221.45C579.175 1221.77 579.34 1222.09 579.512 1222.4L605.177 1266.39C605.665 1267.27 605.5 1268.4 604.719 1269.03C602.313 1270.99 596.96 1270.38 595.309 1267.57L575.968 1234.39C575.797 1234.08 570.419 1223.95 570.266 1223.64C567.466 1217.82 567.333 1208.29 571.828 1201.81L590.382 1173.91C591.766 1171.89 594.535 1171.39 596.535 1172.79L596.541 1172.8Z" fill="#E5E5E5"/>
<mask id="mask17_71_1250" style="mask-type:luminance" maskUnits="userSpaceOnUse" x="568" y="1171" width="38" height="100">
<path d="M596.541 1172.8C598.522 1174.19 599.011 1176.92 597.633 1178.91L580.775 1203.24C577.029 1208.58 576.191 1215.57 579.023 1221.45C579.175 1221.77 579.34 1222.09 579.512 1222.4L605.177 1266.39C605.665 1267.27 605.5 1268.4 604.719 1269.03C602.313 1270.99 596.96 1270.38 595.309 1267.57L575.968 1234.39C575.797 1234.08 570.419 1223.95 570.266 1223.64C567.466 1217.82 567.333 1208.29 571.828 1201.81L590.382 1173.91C591.766 1171.89 594.535 1171.39 596.535 1172.79L596.541 1172.8Z" fill="white"/>
</mask>
<g mask="url(#mask17_71_1250)">
<path d="M597.475 1183.96C592.979 1183.16 588.941 1180.73 586.871 1177.1" stroke="#B3B3B3" stroke-width="1.12" stroke-miterlimit="10"/>
<path d="M593.595 1189.82C589.1 1189.02 585.061 1186.59 582.991 1182.96" stroke="#B3B3B3" stroke-width="1.12" stroke-miterlimit="10"/>
<path d="M589.22 1194.95C584.725 1194.15 580.686 1191.72 578.616 1188.09" stroke="#B3B3B3" stroke-width="1.12" stroke-miterlimit="10"/>
<path d="M585.075 1200.26C580.579 1199.46 576.541 1197.03 574.471 1193.4" stroke="#B3B3B3" stroke-width="1.12" stroke-miterlimit="10"/>
<path d="M580.718 1205.41C576.223 1204.61 572.184 1202.18 570.114 1198.55" stroke="#B3B3B3" stroke-width="1.12" stroke-miterlimit="10"/>
<path d="M579.131 1210.76C574.572 1211.02 570.083 1209.62 567.213 1206.57" stroke="#B3B3B3" stroke-width="1.12" stroke-miterlimit="10"/>
<path d="M578.794 1215.3C574.591 1217.08 569.886 1217.25 566.165 1215.34" stroke="#B3B3B3" stroke-width="1.12" stroke-miterlimit="10"/>
<path d="M580.661 1219.47C577.238 1222.49 572.832 1224.15 568.698 1223.51" stroke="#B3B3B3" stroke-width="1.12" stroke-miterlimit="10"/>
<path d="M583.258 1225.58C580.089 1228.87 575.835 1230.87 571.657 1230.58" stroke="#B3B3B3" stroke-width="1.12" stroke-miterlimit="10"/>
<path d="M586.864 1232.07C583.696 1235.36 579.442 1237.36 575.264 1237.06" stroke="#B3B3B3" stroke-width="1.12" stroke-miterlimit="10"/>
<path d="M590.579 1238.32C587.411 1241.6 583.157 1243.61 578.979 1243.31" stroke="#B3B3B3" stroke-width="1.12" stroke-miterlimit="10"/>
<path d="M594.516 1244.32C591.347 1247.61 587.093 1249.61 582.915 1249.31" stroke="#B3B3B3" stroke-width="1.12" stroke-miterlimit="10"/>
<path d="M597.157 1251.01C593.989 1254.3 589.735 1256.3 585.557 1256.01" stroke="#B3B3B3" stroke-width="1.12" stroke-miterlimit="10"/>
<path d="M601.195 1256.58C598.027 1259.87 593.773 1261.87 589.595 1261.57" stroke="#B3B3B3" stroke-width="1.12" stroke-miterlimit="10"/>
<path d="M604.149 1262.44C600.98 1265.73 596.726 1267.73 592.548 1267.43" stroke="#B3B3B3" stroke-width="1.12" stroke-miterlimit="10"/>
</g>
</g>
<path d="M632.874 1167.76C630.773 1169.24 630.252 1172.14 631.722 1174.26L649.606 1200.19C653.575 1205.88 654.473 1213.34 651.473 1219.6C651.31 1219.93 651.137 1220.27 650.953 1220.61L623.723 1267.48C623.203 1268.42 623.376 1269.62 624.213 1270.3C626.763 1272.38 632.446 1271.73 634.201 1268.74L654.728 1233.39C654.911 1233.05 660.614 1222.26 660.778 1221.92C663.747 1215.72 663.889 1205.57 659.125 1198.67L639.424 1168.95C637.955 1166.8 635.017 1166.27 632.895 1167.77L632.874 1167.76Z" fill="#E5E5E5"/>
<mask id="mask18_71_1250" style="mask-type:luminance" maskUnits="userSpaceOnUse" x="623" y="1166" width="40" height="106">
<path d="M632.874 1167.76C630.773 1169.24 630.252 1172.14 631.722 1174.26L649.606 1200.19C653.575 1205.88 654.473 1213.34 651.473 1219.6C651.31 1219.93 651.137 1220.27 650.953 1220.61L623.723 1267.48C623.203 1268.42 623.376 1269.62 624.213 1270.3C626.763 1272.38 632.446 1271.73 634.201 1268.74L654.728 1233.39C654.911 1233.05 660.614 1222.26 660.778 1221.92C663.747 1215.72 663.889 1205.57 659.125 1198.67L639.424 1168.95C637.955 1166.8 635.017 1166.27 632.895 1167.77L632.874 1167.76Z" fill="white"/>
</mask>
<g mask="url(#mask18_71_1250)">
<path d="M652.8 1187.47C649.311 1190.84 644.495 1192.56 639.68 1191.61" stroke="#B3B3B3" stroke-width="0.81" stroke-miterlimit="10"/>
<path d="M657.891 1193.79C654.943 1197.65 650.443 1200.07 645.536 1199.85" stroke="#B3B3B3" stroke-width="0.81" stroke-miterlimit="10"/>
<path d="M662.533 1202.89C658.942 1206.15 654.086 1207.73 649.301 1206.64" stroke="#B3B3B3" stroke-width="0.81" stroke-miterlimit="10"/>
<path d="M665.297 1214.22C660.9 1216.25 655.789 1216.29 651.555 1213.8" stroke="#B3B3B3" stroke-width="0.81" stroke-miterlimit="10"/>
<path d="M661.737 1224.72C656.932 1225.35 652.045 1223.89 648.729 1220.25" stroke="#B3B3B3" stroke-width="0.81" stroke-miterlimit="10"/>
<path d="M656.431 1233.07C651.596 1232.89 647.015 1230.63 644.342 1226.49" stroke="#B3B3B3" stroke-width="0.81" stroke-miterlimit="10"/>
<path d="M652.923 1240.75C648.087 1240.58 643.506 1238.31 640.833 1234.17" stroke="#B3B3B3" stroke-width="0.81" stroke-miterlimit="10"/>
<path d="M648.035 1247.61C643.199 1247.43 638.618 1245.17 635.945 1241.03" stroke="#B3B3B3" stroke-width="0.81" stroke-miterlimit="10"/>
<path d="M643.332 1254.56C638.496 1254.39 633.915 1252.12 631.242 1247.98" stroke="#B3B3B3" stroke-width="0.81" stroke-miterlimit="10"/>
<path d="M638.557 1261.48C633.722 1261.3 629.141 1259.04 626.468 1254.9" stroke="#B3B3B3" stroke-width="0.81" stroke-miterlimit="10"/>
<path d="M634.405 1268.38C629.569 1268.21 624.988 1265.94 622.315 1261.8" stroke="#B3B3B3" stroke-width="0.81" stroke-miterlimit="10"/>
</g>
<path d="M575.977 1290.96H609.685V1293.69C609.685 1294.79 608.787 1295.68 607.695 1295.68H578.537C577.129 1295.68 575.987 1294.54 575.987 1293.12V1290.96H575.977Z" fill="#9888BF"/>
<path d="M650.443 1296.24H621.285C620.183 1296.24 619.296 1295.34 619.296 1294.24V1291.51H653.004V1293.68C653.004 1295.09 651.861 1296.24 650.453 1296.24H650.443Z" fill="#9888BF"/>
<path d="M697.108 1057.48C695.843 1061.4 689.62 1065.11 680.601 1061.16C673.347 1057.98 672.092 1053.4 672.623 1050.45C680.805 1054.6 688.967 1057.07 697.098 1057.49L697.108 1057.48Z" fill="#BC95BF"/>
<path d="M656.819 1024C654.391 1018.93 652.82 1013.44 652.218 1007.75C652.095 1006.57 652.952 1005.52 654.126 1005.41C655.268 1005.31 656.278 1006.13 656.411 1007.28C656.972 1012.49 658.441 1017.51 660.686 1022.14C661.155 1023.11 660.808 1024.28 659.9 1024.84L659.839 1024.87C658.778 1025.54 657.36 1025.13 656.819 1024Z" fill="white"/>
<path d="M750.374 994.78C748.476 982.722 742.192 971.719 732.785 963.994C731.785 963.174 730.326 963.297 729.48 964.271C728.602 965.285 728.735 966.811 729.765 967.662C738.203 974.69 743.824 984.648 745.497 995.538C745.681 996.768 746.783 997.638 748.017 997.546H748.211C749.588 997.423 750.598 996.153 750.384 994.78H750.374Z" fill="white"/>
<path d="M639.251 1121.83C639.353 1121.64 639.444 1121.45 639.506 1121.23C639.516 1121.18 639.536 1121.13 639.546 1121.08C641.138 1116.91 642.148 1111.41 642.781 1106.56C645.433 1088.86 643.291 1070.89 634.894 1052.56C633.874 1045.34 632.701 1038.35 629.967 1033.78C629.854 1033.6 629.722 1033.45 629.589 1033.3C629.222 1031.95 628.793 1030.66 628.304 1029.4C626.661 1025.21 620.397 1026.19 617.346 1029.49C606.399 1041.36 601.798 1053.34 602.482 1065.56C598.921 1059.17 594.157 1054.05 587.698 1050.71C585.831 1049.74 583.546 1050.98 583.322 1053.07C582.475 1061.03 583.291 1068.82 585.525 1075.88C586.25 1084.26 588.27 1091.78 591.106 1098.35C591.3 1098.94 591.677 1099.76 592.198 1100.74C596.819 1110.36 603.237 1117.76 609.878 1122.65C618.724 1130.41 628.936 1134.9 636.414 1126.3C637.414 1125.32 638.251 1124.12 638.883 1122.68C639.016 1122.4 639.138 1122.11 639.261 1121.82L639.251 1121.83Z" fill="#EEE5F1"/>
<mask id="mask19_71_1250" style="mask-type:luminance" maskUnits="userSpaceOnUse" x="582" y="1026" width="62" height="105">
<path d="M639.251 1121.83C639.353 1121.64 639.444 1121.45 639.506 1121.23C639.516 1121.18 639.536 1121.13 639.546 1121.08C641.138 1116.91 642.148 1111.41 642.781 1106.56C645.433 1088.86 643.291 1070.89 634.894 1052.56C633.874 1045.34 632.701 1038.35 629.967 1033.78C629.854 1033.6 629.722 1033.45 629.589 1033.3C629.222 1031.95 628.793 1030.66 628.304 1029.4C626.661 1025.21 620.397 1026.19 617.346 1029.49C606.399 1041.36 601.798 1053.34 602.482 1065.56C598.921 1059.17 594.157 1054.05 587.698 1050.71C585.831 1049.74 583.546 1050.98 583.322 1053.07C582.475 1061.03 583.291 1068.82 585.525 1075.88C586.25 1084.26 588.27 1091.78 591.106 1098.35C591.3 1098.94 591.677 1099.76 592.198 1100.74C596.819 1110.36 603.237 1117.76 609.878 1122.65C618.724 1130.41 628.936 1134.9 636.414 1126.3C637.414 1125.32 638.251 1124.12 638.883 1122.68C639.016 1122.4 639.138 1122.11 639.261 1121.82L639.251 1121.83Z" fill="white"/>
</mask>
<g mask="url(#mask19_71_1250)">
<path d="M591.943 1086.9C617.236 1086.9 637.741 1066.31 637.741 1040.91C637.741 1015.51 617.236 994.924 591.943 994.924C566.649 994.924 546.145 1015.51 546.145 1040.91C546.145 1066.31 566.649 1086.9 591.943 1086.9Z" stroke="#B2B2B2" stroke-width="0.76" stroke-miterlimit="10"/>
<path d="M585.393 1078.1C610.686 1078.1 631.191 1057.51 631.191 1032.11C631.191 1006.71 610.686 986.123 585.393 986.123C560.099 986.123 539.595 1006.71 539.595 1032.11C539.595 1057.51 560.099 1078.1 585.393 1078.1Z" stroke="#B2B2B2" stroke-width="0.76" stroke-miterlimit="10"/>
<path d="M581.413 1064.88C606.707 1064.88 627.211 1044.29 627.211 1018.89C627.211 993.487 606.707 972.897 581.413 972.897C556.12 972.897 535.615 993.487 535.615 1018.89C535.615 1044.29 556.12 1064.88 581.413 1064.88Z" stroke="#B2B2B2" stroke-width="0.76" stroke-miterlimit="10"/>
<path d="M599.032 1096.06C624.326 1096.06 644.83 1075.47 644.83 1050.07C644.83 1024.67 624.326 1004.08 599.032 1004.08C573.739 1004.08 553.234 1024.67 553.234 1050.07C553.234 1075.47 573.739 1096.06 599.032 1096.06Z" stroke="#B2B2B2" stroke-width="0.76" stroke-miterlimit="10"/>
<path d="M604.308 1106.04C629.601 1106.04 650.106 1085.45 650.106 1060.05C650.106 1034.65 629.601 1014.06 604.308 1014.06C579.014 1014.06 558.51 1034.65 558.51 1060.05C558.51 1085.45 579.014 1106.04 604.308 1106.04Z" stroke="#B2B2B2" stroke-width="0.76" stroke-miterlimit="10"/>
<path d="M653.768 1080.37C648.555 1105.22 624.263 1121.12 599.513 1115.89C574.762 1110.65 558.928 1086.26 564.141 1061.4" stroke="#B2B2B2" stroke-width="0.76" stroke-miterlimit="10"/>
<path d="M655.074 1091.64C649.861 1116.49 625.569 1132.39 600.818 1127.16C576.068 1121.92 560.234 1097.53 565.447 1072.67" stroke="#B2B2B2" stroke-width="0.76" stroke-miterlimit="10"/>
</g>
<path d="M659.4 1127.71C655.605 1127.71 652.514 1124.6 652.514 1120.79C652.514 1116.98 655.605 1113.88 659.4 1113.88C663.195 1113.88 666.287 1116.98 666.287 1120.79C666.287 1124.6 663.195 1127.71 659.4 1127.71Z" fill="#BA93BD"/>
<path d="M659.4 1114.43C662.889 1114.43 665.735 1117.28 665.735 1120.79C665.735 1124.31 662.899 1127.16 659.4 1127.16C655.9 1127.16 653.064 1124.31 653.064 1120.79C653.064 1117.28 655.9 1114.43 659.4 1114.43ZM659.4 1113.31C655.288 1113.31 651.952 1116.66 651.952 1120.79C651.952 1124.92 655.288 1128.27 659.4 1128.27C663.511 1128.27 666.847 1124.92 666.847 1120.79C666.847 1116.66 663.511 1113.31 659.4 1113.31Z" fill="#BA93BD"/>
<path d="M678.03 1128.7C680.092 1128.7 681.764 1127.02 681.764 1124.95C681.764 1122.88 680.092 1121.2 678.03 1121.2C675.968 1121.2 674.296 1122.88 674.296 1124.95C674.296 1127.02 675.968 1128.7 678.03 1128.7Z" fill="#9488BA"/>
<path d="M600.655 1180.31L633.609 1155.54C646.994 1145.48 663.716 1140.98 680.315 1142.94L686.008 1143.62C672.989 1188.39 635.925 1195.79 600.655 1180.3V1180.31Z" fill="#E5E5E5"/>
<mask id="mask20_71_1250" style="mask-type:luminance" maskUnits="userSpaceOnUse" x="600" y="1142" width="87" height="46">
<path d="M600.268 1180.35L633.221 1155.58C646.606 1145.52 663.328 1141.02 679.927 1142.98L686.008 1143.62C672.989 1188.39 635.537 1195.83 600.278 1180.35H600.268Z" fill="white"/>
</mask>
<g mask="url(#mask20_71_1250)">
<path d="M682.487 1165.63C707.781 1165.63 728.286 1145.04 728.286 1119.65C728.286 1094.25 707.781 1073.66 682.487 1073.66C657.194 1073.66 636.689 1094.25 636.689 1119.65C636.689 1145.04 657.194 1165.63 682.487 1165.63Z" stroke="#B2B2B2" stroke-width="0.76" stroke-miterlimit="10"/>
<path d="M689.711 1157.39C715.005 1157.39 735.509 1136.8 735.509 1111.4C735.509 1086 715.005 1065.41 689.711 1065.41C664.418 1065.41 643.913 1086 643.913 1111.4C643.913 1136.8 664.418 1157.39 689.711 1157.39Z" stroke="#B2B2B2" stroke-width="0.76" stroke-miterlimit="10"/>
<path d="M675.02 1174.5C700.313 1174.5 720.818 1153.91 720.818 1128.51C720.818 1103.11 700.313 1082.52 675.02 1082.52C649.726 1082.52 629.222 1103.11 629.222 1128.51C629.222 1153.91 649.726 1174.5 675.02 1174.5Z" stroke="#B2B2B2" stroke-width="0.76" stroke-miterlimit="10"/>
<path d="M666.378 1181.73C691.672 1181.73 712.176 1161.14 712.176 1135.74C712.176 1110.34 691.672 1089.75 666.378 1089.75C641.085 1089.75 620.58 1110.34 620.58 1135.74C620.58 1161.14 641.085 1181.73 666.378 1181.73Z" stroke="#B2B2B2" stroke-width="0.76" stroke-miterlimit="10"/>
<path d="M656.778 1188.53C682.071 1188.53 702.576 1167.94 702.576 1142.54C702.576 1117.14 682.071 1096.55 656.778 1096.55C631.484 1096.55 610.979 1117.14 610.979 1142.54C610.979 1167.94 631.484 1188.53 656.778 1188.53Z" stroke="#B2B2B2" stroke-width="0.76" stroke-miterlimit="10"/>
<path d="M646.066 1192.14C671.359 1192.14 691.864 1171.55 691.864 1146.15C691.864 1120.75 671.359 1100.16 646.066 1100.16C620.772 1100.16 600.268 1120.75 600.268 1146.15C600.268 1171.55 620.772 1192.14 646.066 1192.14Z" stroke="#B2B2B2" stroke-width="0.76" stroke-miterlimit="10"/>
</g>
<path d="M694.064 995.393C695.404 995.176 696.275 993.654 696.007 991.995C695.74 990.336 694.437 989.168 693.096 989.386C691.756 989.604 690.886 991.125 691.153 992.784C691.42 994.443 692.724 995.611 694.064 995.393Z" fill="#2E454E"/>
<path d="M705.743 993.493C707.083 993.275 707.953 991.754 707.686 990.095C707.419 988.436 706.115 987.268 704.775 987.486C703.434 987.703 702.564 989.225 702.832 990.884C703.099 992.542 704.402 993.711 705.743 993.493Z" fill="#2E454E"/>
<path d="M704.121 974.317L712.432 976.541C713.408 976.802 713.986 977.805 713.726 978.785L713.529 979.527C713.269 980.508 712.27 981.088 711.294 980.827L702.609 978.503C701.633 978.242 701.054 977.239 701.315 976.259L701.414 975.883C701.73 974.695 702.941 973.991 704.124 974.307L704.121 974.317Z" fill="#27464F"/>
<path d="M685.81 975.957L677.884 978.078C676.703 978.394 676 979.609 676.314 980.793C676.628 981.977 677.84 982.68 679.022 982.364L686.948 980.243C688.129 979.927 688.833 978.711 688.518 977.528C688.204 976.344 686.992 975.641 685.81 975.957Z" fill="#27464F"/>
<path d="M715.288 1027.63C716.879 1032.94 722.062 1035.73 727.837 1031.84C728.235 1031.57 728.092 1030.96 727.612 1030.89C723.684 1030.4 719.828 1029.01 716.023 1027.01C715.614 1026.8 715.155 1027.18 715.288 1027.63Z" fill="white"/>
<path opacity="0.21" d="M701.301 1015.32C702.097 1025.04 705.953 1031.41 712.115 1034.15H711.809C706.3 1028.09 703.474 1022.37 701.301 1015.32Z" fill="black"/>
<path d="M780.512 1071.98V1001.24C813.822 983.787 851.009 1028.3 899.236 1003.87C901.419 1002.76 903.99 1004.39 903.99 1006.84V1067.22C903.99 1068.02 903.572 1068.76 902.878 1069.16C852.877 1097.84 814.649 1050.61 780.512 1068.51" fill="#D1C4DE"/>
<path d="M776.737 991.717C778.818 991.717 780.512 993.417 780.512 995.507V1246.95H772.962V995.507C772.962 993.417 774.656 991.717 776.737 991.717Z" fill="#D1C4DE"/>
<path d="M851.887 1023.91C850.418 1023.91 849.01 1024.48 847.969 1025.53L847.581 1025.91C847.398 1028.7 846.49 1031.22 845.01 1033.54C845.531 1031.31 845.786 1029.35 845.388 1028.11L842.133 1031.35C841.94 1034.11 841.032 1036.62 839.573 1038.93C840.164 1036.71 840.317 1034.91 840.103 1033.38L836.706 1036.78C835.471 1038.01 834.778 1039.69 834.767 1041.44L834.737 1051.34L831.319 1054.74C830.482 1055.57 830.003 1056.71 830.003 1057.9V1058.19L855.376 1032.89C857.753 1030.52 859.09 1027.3 859.1 1023.94L851.897 1023.92L851.887 1023.91Z" fill="white"/>
<path d="M849.897 1045.23L856.896 1038.25C858.263 1036.88 859.038 1035.02 859.049 1033.08V1028.84C858.804 1029.77 858.508 1030.65 858.028 1031.33C857.1 1032.61 856.08 1033.81 854.957 1034.93L842.97 1046.89L847.602 1046.33C848.469 1046.23 849.275 1045.84 849.897 1045.22V1045.23Z" fill="white"/>
<path d="M841.643 1048.21L836.012 1053.82L839.185 1053.88C840.45 1053.9 841.674 1053.41 842.582 1052.51L847.999 1047.11C847.632 1047.34 847.316 1047.47 846.938 1047.57L841.643 1048.2V1048.21Z" fill="white"/>
</g>
</g>
<defs>
<linearGradient id="paint0_linear_71_1250" x1="756" y1="-59" x2="757.893" y2="1284.55" gradientUnits="userSpaceOnUse">
<stop stop-color="#040407"/>
<stop offset="0.235577" stop-color="#3E1996"/>
<stop offset="1" stop-color="#886866"/>
</linearGradient>
<radialGradient id="paint1_radial_71_1250" cx="0" cy="0" r="1" gradientUnits="userSpaceOnUse" gradientTransform="translate(756.103 728.61) scale(788.691 295.39)">
<stop stop-color="#F2C666" stop-opacity="0.4"/>
<stop offset="0.92" stop-color="#9888BF" stop-opacity="0"/>
</radialGradient>
<linearGradient id="paint2_linear_71_1250" x1="672.704" y1="1059.35" x2="692.833" y2="1059.35" gradientUnits="userSpaceOnUse">
<stop stop-color="#E4984C"/>
<stop offset="1" stop-color="#E2A95D"/>
</linearGradient>
<clipPath id="clip0_71_1250">
<rect width="1512" height="1368" fill="white"/>
</clipPath>
<clipPath id="clip1_71_1250">
<rect width="405" height="376" fill="white" transform="translate(499 945)"/>
</clipPath>
<clipPath id="clip2_71_1250">
<rect width="39.45" height="98.1647" fill="white" transform="translate(566 1172)"/>
</clipPath>
</defs>
</svg>
