<svg width="681" height="630" viewBox="0 0 681 630" fill="none" xmlns="http://www.w3.org/2000/svg">
<g clip-path="url(#clip0_112_1845)">
<path opacity="0.2" d="M341.787 629.5C515.299 629.5 655.957 488.694 655.957 315C655.957 141.306 515.299 0.5 341.787 0.5C168.276 0.5 27.6172 141.306 27.6172 315C27.6172 488.694 168.276 629.5 341.787 629.5Z" fill="white"/>
<path d="M340.739 603.816C499.104 603.816 627.484 475.301 627.484 316.77C627.484 158.238 499.104 29.7236 340.739 29.7236C182.374 29.7236 53.9941 158.238 53.9941 316.77C53.9941 475.301 182.374 603.816 340.739 603.816Z" fill="#EC5F62"/>
<mask id="mask0_112_1845" style="mask-type:luminance" maskUnits="userSpaceOnUse" x="53" y="29" width="575" height="575">
<path d="M340.739 603.816C499.104 603.816 627.484 475.301 627.484 316.77C627.484 158.238 499.104 29.7236 340.739 29.7236C182.374 29.7236 53.9941 158.238 53.9941 316.77C53.9941 475.301 182.374 603.816 340.739 603.816Z" fill="white"/>
</mask>
<g mask="url(#mask0_112_1845)">
<path d="M156.867 65.1751V112.282C156.867 143.598 182.229 168.986 213.512 168.986C229.429 168.986 242.332 181.904 242.332 197.837C242.332 210.816 252.842 221.336 265.807 221.336H362.489C377.433 221.336 389.546 233.461 389.546 248.421C389.546 260.419 399.26 270.144 411.245 270.144H509.956C546.12 270.144 575.435 240.797 575.435 204.596V108.951H450.779C441.199 108.951 433.429 101.177 433.429 91.5828C433.429 81.993 425.663 74.2149 416.079 74.2149H303.473C289.985 74.2149 279.053 63.271 279.053 49.769V20.9917H156.867V65.1751Z" fill="#C14D4D"/>
<path d="M177.137 302.702H147.725C142.465 302.702 138.195 306.972 138.195 312.242V321.039C138.195 330.691 130.379 338.515 120.738 338.515H88.8821C81.1007 338.515 74.791 344.831 74.791 352.621C74.791 360.411 81.1007 366.727 88.8821 366.727H145.689C152.532 366.727 158.081 372.282 158.081 379.133C158.081 383.514 161.628 387.065 166.005 387.065H280.697C287.607 387.065 293.209 381.456 293.209 374.54C293.209 351.748 274.753 333.272 251.985 333.272H207.94C196.262 333.272 186.767 323.851 186.663 312.161C186.617 306.926 182.363 302.706 177.133 302.706L177.137 302.702Z" fill="#C14D4D"/>
<path d="M216.144 603.82V530.509C216.144 499.108 241.571 473.654 272.939 473.654H365.095C377.249 473.654 387.102 463.791 387.102 451.624V442.046C387.102 429.879 396.954 420.016 409.109 420.016H502.47C514.625 420.016 524.478 429.879 524.478 442.046C524.478 454.213 534.33 464.076 546.485 464.076H550.396C627.492 464.076 689.993 526.639 689.993 603.82H216.137H216.144Z" fill="#C14D4D"/>
</g>
<path d="M508.64 248.475H506.288C495.894 248.475 487.467 240.039 487.467 229.634C487.467 219.228 495.894 210.792 506.288 210.792H523.78C528.772 210.792 533.56 208.808 537.091 205.272L569.746 172.583C573.278 169.048 578.066 167.063 583.057 167.063H605.833C610.825 167.063 615.613 169.048 619.144 172.583L674.951 228.449C678.483 231.984 680.466 236.777 680.466 241.774V242.289C680.466 252.695 672.039 261.131 661.644 261.131H607.312C602.321 261.131 597.533 259.146 594.001 255.611L592.395 254.003C588.868 250.471 584.08 248.483 579.088 248.483L508.648 248.475H508.64Z" fill="white"/>
<path d="M225.235 212.223H228.317C241.943 212.223 252.991 201.164 252.991 187.524C252.991 173.883 241.943 162.824 228.317 162.824H205.388C198.844 162.824 192.568 160.22 187.942 155.588L145.134 112.736C140.508 108.104 134.233 105.5 127.689 105.5H97.8347C91.2906 105.5 85.0155 108.104 80.3889 112.736L7.22809 185.973C2.6015 190.605 0 196.886 0 203.437V204.111C0 217.751 11.0477 228.81 24.6739 228.81H95.8942C102.438 228.81 108.713 226.206 113.34 221.575L115.446 219.467C120.072 214.835 126.347 212.231 132.892 212.231L225.231 212.22L225.235 212.223Z" fill="white"/>
<path d="M498.214 429.411H500.078C508.319 429.411 515 422.685 515 414.388C515 406.092 508.319 399.366 500.078 399.366H486.211C482.254 399.366 478.459 397.782 475.661 394.965L449.772 368.901C446.974 366.084 443.179 364.5 439.222 364.5H421.167C417.209 364.5 413.414 366.084 410.616 368.901L366.371 413.446C363.573 416.263 362 420.083 362 424.068V424.477C362 432.773 368.681 439.5 376.922 439.5H419.993C423.951 439.5 427.746 437.916 430.544 435.099L431.818 433.817C434.616 431 438.411 429.416 442.368 429.416L498.212 429.409L498.214 429.411Z" fill="white"/>
<g clip-path="url(#clip1_112_1845)">
<path d="M359.01 494.681L333.076 493.017L321.108 511.344L311.933 520.526L325.462 527.498L345.942 515.828L368.14 513.008L376.613 504.994L359.01 494.681Z" fill="#2E2A63"/>
<path d="M311.932 520.526L318.414 510.242L331.644 487.622L358.004 491.652L376.612 504.994L359.009 494.681L333.076 493.017L321.107 511.344L311.932 520.526Z" fill="#992E6E"/>
</g>
<path d="M169.61 5.55288C171.052 5.55288 172.22 4.42175 172.22 3.02644C172.22 1.63113 171.052 0.5 169.61 0.5C168.169 0.5 167 1.63113 167 3.02644C167 4.42175 168.169 5.55288 169.61 5.55288Z" fill="white"/>
</g>
<defs>
<clipPath id="clip0_112_1845">
<rect width="681" height="629" fill="white" transform="translate(0 0.5)"/>
</clipPath>
<clipPath id="clip1_112_1845">
<rect width="66.4929" height="36.8932" fill="white" transform="translate(305 494.803) rotate(-15.0832)"/>
</clipPath>
</defs>
</svg>
