<svg width="355" height="220" viewBox="0 0 355 220" fill="none" xmlns="http://www.w3.org/2000/svg">
<path d="M299.689 137.1L352.187 189.572C358.187 195.569 353.932 205.81 345.457 205.81H308.902C277.495 205.81 247.373 193.339 225.17 171.147L192.479 138.471L299.689 137.091V137.1Z" fill="#9F7EA3"/>
<path d="M56.8565 114.118L52.0374 123.179L13.2152 147.245C9.56834 149.753 7.18049 153.824 7.08498 158.25C6.92868 165.818 13.0155 172.006 20.5525 172.006H251.054V99.7286H83.6526C72.8682 99.7286 62.8045 105.135 56.8565 114.118Z" fill="#EBE4F0"/>
<mask id="mask0_70_819" style="mask-type:luminance" maskUnits="userSpaceOnUse" x="7" y="99" width="245" height="74">
<path d="M56.8565 114.118L52.0374 123.179L13.2152 147.245C9.56834 149.753 7.18049 153.824 7.08498 158.25C6.92868 165.818 13.0155 172.006 20.5525 172.006H251.054V99.7286H83.6526C72.8682 99.7286 62.8045 105.135 56.8565 114.118Z" fill="white"/>
</mask>
<g mask="url(#mask0_70_819)">
<path d="M129.075 99.7286C129.075 112.677 118.568 123.179 105.613 123.179H52.0381C52.177 120.671 54.261 117.485 56.8572 114.118V100.918L92.3277 96.3872L129.075 99.7286Z" fill="#57FFEA"/>
<path d="M52.0378 123.179L0 154.978L17.0536 190.882L12.5124 165.766C12.3821 161.635 14.4053 157.729 17.8611 155.455L66.6949 123.179H52.0552H52.0378Z" fill="#D8C1DB"/>
</g>
<path d="M306.965 99.7286V19.5534C306.965 14.0337 302.484 9.56409 296.97 9.56409C294.322 9.56409 291.778 10.6142 289.902 12.4889L219.474 82.8829C215.584 86.7711 213.396 92.0478 213.396 97.5502V99.7373H251.063L269.15 91.3361L306.965 99.7373V99.7286Z" fill="#EBE4F0"/>
<mask id="mask1_70_819" style="mask-type:luminance" maskUnits="userSpaceOnUse" x="213" y="9" width="94" height="91">
<path d="M306.965 99.7286V19.5534C306.965 14.0337 302.484 9.56409 296.97 9.56409C294.322 9.56409 291.778 10.6142 289.902 12.4889L219.474 82.8829C215.584 86.7711 213.396 92.0478 213.396 97.5502V99.7373H251.063L269.15 91.3361L306.965 99.7373V99.7286Z" fill="white"/>
</mask>
<g mask="url(#mask1_70_819)">
<path d="M211.763 103.113L211.416 88.9494L289.894 12.4888L294.887 17.1754L211.763 103.113Z" fill="#D8C1DB"/>
<path d="M282.583 4.47828L280.907 12.836C283.972 12.6971 295.321 8.8611 295 27.9112V103.183H317.663V0H289.668L282.583 4.47828Z" fill="#9F7EA3"/>
</g>
<path d="M158.64 148.252L106.142 200.724C100.142 206.721 104.396 216.962 112.871 216.962H149.427C180.834 216.962 210.956 204.491 233.158 182.299L265.85 149.623L158.64 148.243V148.252Z" fill="#EBE4F0"/>
<mask id="mask2_70_819" style="mask-type:luminance" maskUnits="userSpaceOnUse" x="103" y="148" width="163" height="69">
<path d="M158.64 148.252L106.142 200.724C100.142 206.721 104.396 216.962 112.871 216.962H149.427C180.834 216.962 210.956 204.491 233.158 182.299L265.85 149.623L158.64 148.243V148.252Z" fill="white"/>
</mask>
<g mask="url(#mask2_70_819)">
<path d="M112.863 216.971V220C112.863 220 111.855 209.091 115.876 205.064L183.048 137.924H156.13L93.5947 200.429V219.375L112.863 216.971Z" fill="#D8C1DB"/>
</g>
<path d="M278.884 183.132C305 183.132 326.172 161.971 326.172 135.867C326.172 109.764 305 88.6023 278.884 88.6023C252.767 88.6023 231.596 109.764 231.596 135.867C231.596 161.971 252.767 183.132 278.884 183.132Z" fill="#9F7EA3"/>
<path d="M278.884 171.459C298.55 171.459 314.493 155.524 314.493 135.867C314.493 116.21 298.55 100.275 278.884 100.275C259.217 100.275 243.274 116.21 243.274 135.867C243.274 155.524 259.217 171.459 278.884 171.459Z" fill="#57FFEA"/>
<path d="M278.884 155.872C289.937 155.872 298.898 146.916 298.898 135.867C298.898 124.819 289.937 115.863 278.884 115.863C267.83 115.863 258.869 124.819 258.869 135.867C258.869 146.916 267.83 155.872 278.884 155.872Z" fill="white"/>
<path d="M241.13 164.343L194.389 208.101C213.049 200.655 229.399 188.791 243.266 172.188L257.141 172.006L241.121 164.343H241.13Z" fill="#9F7EA3"/>
<path d="M207.335 119.577C206.102 119.577 204.921 120.063 204.044 120.931L203.714 121.261C203.567 123.587 202.794 125.696 201.552 127.64C201.986 125.774 202.203 124.133 201.865 123.092L199.13 125.809C198.973 128.117 198.209 130.209 196.976 132.144C197.471 130.295 197.601 128.785 197.428 127.51L194.571 130.356C193.538 131.389 192.947 132.786 192.947 134.244L192.921 142.533L190.047 145.379C189.344 146.074 188.944 147.028 188.944 148.018V148.252L210.27 127.084C212.267 125.106 213.396 122.406 213.396 119.594L207.344 119.577H207.335Z" fill="#D8C1DB"/>
<path d="M205.668 137.412L211.555 131.571C212.71 130.426 213.361 128.872 213.361 127.249V123.708C213.162 124.481 212.91 125.218 212.502 125.791C211.72 126.859 210.861 127.865 209.923 128.794L199.842 138.801L203.732 138.341C204.461 138.254 205.139 137.924 205.659 137.412H205.668Z" fill="#D8C1DB"/>
<path d="M198.722 139.92L193.989 144.624L196.664 144.676C197.732 144.694 198.756 144.286 199.52 143.531L204.07 139.009C203.766 139.2 203.489 139.313 203.176 139.4L198.722 139.929V139.92Z" fill="#D8C1DB"/>
</svg>
