<?xml version="1.0" encoding="UTF-8" standalone="no"?>
<!-- Created with Inkscape (http://www.inkscape.org/) -->

<svg
   width="210mm"
   height="210mm"
   viewBox="0 0 210 210"
   version="1.1"
   id="svg387"
   inkscape:version="1.2.2 (b0a84865, 2022-12-01)"
   sodipodi:docname="cloud-logo-grey.svg"
   xmlns:inkscape="http://www.inkscape.org/namespaces/inkscape"
   xmlns:sodipodi="http://sodipodi.sourceforge.net/DTD/sodipodi-0.dtd"
   xmlns="http://www.w3.org/2000/svg"
   xmlns:svg="http://www.w3.org/2000/svg">
  <sodipodi:namedview
     id="namedview389"
     pagecolor="#ffffff"
     bordercolor="#000000"
     borderopacity="0.25"
     inkscape:showpageshadow="2"
     inkscape:pageopacity="0.0"
     inkscape:pagecheckerboard="0"
     inkscape:deskcolor="#d1d1d1"
     inkscape:document-units="mm"
     showgrid="false"
     inkscape:zoom="0.2102413"
     inkscape:cx="397.16269"
     inkscape:cy="561.25984"
     inkscape:window-width="1492"
     inkscape:window-height="896"
     inkscape:window-x="10"
     inkscape:window-y="48"
     inkscape:window-maximized="0"
     inkscape:current-layer="layer1" />
  <defs
     id="defs384" />
  <g
     inkscape:label="Layer 1"
     inkscape:groupmode="layer"
     id="layer1">
    <g
       id="g1081"
       transform="translate(-15.253192,-15.816795)">
      <path
         class="cls-1"
         d="M 92.11321,61.207873 C 79.131819,62.47838 67.837025,70.930417 62.735946,83.184443 A 9.5287916,9.5287916 0 0 1 58.257414,87.71062 C 41.918712,94.6984 32.570968,112.52041 35.934631,130.27254 a 48.190276,48.190276 0 0 0 1.905758,6.74004 c 6.441463,16.8342 23.653638,26.82673 41.123089,23.84739 1.905758,-0.31763 4.103733,-2.16621 4.945442,-3.91316 l 0.873474,-1.81365 c 0.838533,-1.74376 0,-3.69082 -1.762828,-3.24613 -7.785022,1.99787 -12.435072,2.03598 -16.834197,1.00369 a 35.351817,35.351817 0 0 1 -6.578043,-2.3949 30.374612,30.374612 0 0 1 -10.799297,-9.32234 37.295691,37.295691 0 0 1 -3.414484,-6.11431 31.295728,31.295728 0 0 1 -2.058219,-16.47527 38.070699,38.070699 0 0 1 1.721534,-6.7845 30.866932,30.866932 0 0 1 14.156608,-16.040128 c 1.708831,-0.911587 4.729457,-1.832704 6.482755,-2.649004 v 0 c 1.715183,-0.803595 2.909459,-3.855984 3.592355,-5.66963 a 32.254959,32.254959 0 0 1 1.435671,-3.255671 35.574155,35.574155 0 0 1 3.91951,-5.806211 28.078172,28.078172 0 0 1 11.066103,-7.835842 32.258136,32.258136 0 0 1 6.800381,-1.6326 27.792308,27.792308 0 0 1 12.069807,1.375322 26.810843,26.810843 0 0 1 4.68499,2.15033 l 3.11592,-3.125443 c 1.36897,-1.36897 1.16886,-3.360487 -0.54632,-4.262546 a 35.193004,35.193004 0 0 0 -12.705063,-3.827398 42.266544,42.266544 0 0 0 -7.003662,0 m 77.767655,12.203205 -0.72102,0.724188 c -1.36896,1.372146 -1.78188,3.897277 -1.09581,5.717276 a 29.736182,29.736182 0 0 1 1.99152,8.893539 27.671611,27.671611 0 0 1 -0.73054,6.943312 c -0.19057,0.717836 -0.41291,1.429319 -0.63525,2.13445 -0.60666,1.842234 -1.78823,4.926381 -1.32133,6.768611 a 6.717798,6.717798 0 0 0 1.33403,2.61089 c 1.21651,1.47697 4.36101,2.34409 6.289,2.5029 a 22.773812,22.773812 0 0 1 8.45522,2.68394 31.984977,31.984977 0 0 1 5.64104,4.12914 28.07182,28.07182 0 0 1 2.71571,3.00475 33.185604,33.185604 0 0 1 3.57648,6.01266 27.725607,27.725607 0 0 1 1.58812,16.51657 33.754156,33.754156 0 0 1 -2.2742,6.62569 26.766375,26.766375 0 0 1 -11.87288,11.96816 31.64194,31.64194 0 0 1 -6.60027,2.32185 c -8.0296,1.63578 -16.77068,-0.96876 -22.76429,-6.55263 -1.41661,-1.31815 -3.16038,-4.03703 -4.76439,-5.10425 a 8.4552144,8.4552144 0 0 0 -6.27629,-1.27051 c -1.87401,0.3875 -3.86552,2.90946 -4.97404,4.50077 a 31.876984,31.876984 0 0 1 -5.08202,5.74267 33.407944,33.407944 0 0 1 -5.78715,3.93223 29.456671,29.456671 0 0 1 -7.41976,2.541 32.715518,32.715518 0 0 1 -6.98777,0.51138 28.290982,28.290982 0 0 1 -7.24824,-1.41661 c -1.8327,-0.61619 -3.92904,0.1048 -4.7644,1.84859 l -0.317627,0.63525 c -0.838534,1.74376 -0.104814,3.85598 1.715187,4.51665 14.73469,5.352 31.23538,0.47008 40.88487,-12.09522 1.1784,-1.53731 2.95075,-1.61989 4.2816,-0.21598 a 33.735098,33.735098 0 0 0 23.50435,10.5706 40.147975,40.147975 0 0 0 6.98778,-0.53043 33.986023,33.986023 0 0 0 21.70659,-14.0105 42.333245,42.333245 0 0 0 3.40179,-6.11114 35.447105,35.447105 0 0 0 0.76865,-26.2677 42.196665,42.196665 0 0 0 -3.04921,-6.3017 34.097192,34.097192 0 0 0 -20.85218,-15.31912 25.927842,25.927842 0 0 0 -3.81152,-0.66066 c 3.26521,-11.475841 2.16622,-20.191509 -1.41343,-27.881244 -0.8163,-1.756474 -2.72524,-2.001046 -4.0942,-0.635253"
         id="path22"
         style="fill:#959595;fill-opacity:1;stroke-width:0.317626" />
      <path
         class="cls-1"
         d="m 156.98841,64.536599 c 10.65318,-0.673369 24.17137,-5.491761 27.91935,-19.489555 -2.93168,-11.720414 -15.88132,-8.115354 -23.35824,-6.320766 -10.1831,3.493891 -19.08935,11.501252 -26.04536,21.312731 2.30596,-6.18101 0.59396,-8.344045 -3.3732,-3.309667 -5.73633,3.49389 -10.59284,16.310115 -12.4446,18.739957 -4.87874,-9.014237 -5.79986,14.035909 -12.14285,13.454654 -5.37107,1.089458 -2.12175,20.105747 -6.13655,12.152377 -5.120139,6.80992 0.11117,19.79765 -6.933786,20.76006 -2.62677,9.15399 -3.300138,18.99089 -2.858637,28.65943 10.049703,-26.0263 19.648373,-53.996479 37.591083,-73.117587 2.90947,-3.176263 8.77602,-6.644743 2.89676,-1.124397 -26.04537,28.973874 -38.750427,71.383344 -46.980126,112.725594 -1.883525,5.01532 -4.542058,19.6039 3.328724,15.00468 -0.21281,-11.65054 -0.133403,-24.11738 3.290609,-35.44076 6.085722,-12.67965 19.016293,-14.21695 26.750503,-24.52393 3.02062,-4.94227 15.88131,-17.55839 5.52987,-17.04383 5.68234,-0.83537 16.24024,-17.78708 4.74851,-14.74739 -2.85863,-0.38433 7.38483,-6.44782 9.29694,-9.78925 3.23343,-4.071965 12.5367,-12.584352 11.30114,-14.798208 -3.57648,1.391203 -16.91679,-2.166212 -6.43512,-2.706177 7.78503,1.702478 14.29319,-3.433542 19.20688,-10.500729 3.91951,-3.560591 8.20111,-10.580134 0.18422,-9.150815 l -5.34565,-0.746422"
         id="path24"
         style="fill:#959595;fill-opacity:1;stroke-width:0.317626" />
    </g>
  </g>
</svg>
