<svg width="342" height="447" viewBox="0 0 342 447" fill="none" xmlns="http://www.w3.org/2000/svg">
<path d="M88.112 328.77C76.842 327.81 75.8221 354.82 66.3421 371.77C66.1421 372.13 66.572 372.5 66.902 372.25C82.482 360.18 107.242 352.36 104.732 338.05" fill="#EC5F62"/>
<path d="M88.112 328.77C76.842 327.81 75.8221 354.82 66.3421 371.77C66.1421 372.13 66.572 372.5 66.902 372.25C82.482 360.18 107.242 352.36 104.732 338.05" stroke="#EC5F62" stroke-width="0.99" stroke-miterlimit="10"/>
<path d="M92.5521 330.99C87.6721 330.57 87.2321 342.26 83.1321 349.6C83.0421 349.76 83.2321 349.92 83.3721 349.81C90.1121 344.59 100.832 341.2 99.7421 335.01" fill="#FED06C"/>
<path d="M92.5521 330.99C87.6721 330.57 87.2321 342.26 83.1321 349.6C83.0421 349.76 83.2321 349.92 83.3721 349.81C90.1121 344.59 100.832 341.2 99.7421 335.01" stroke="#FED06C" stroke-width="0.99" stroke-miterlimit="10"/>
<path d="M70.3005 227.136L113.835 250.695L87.8967 298.627C84.5318 304.845 76.7518 307.161 70.5338 303.796L49.5318 292.431C43.3138 289.066 40.9975 281.286 44.3623 275.068L70.3005 227.136Z" fill="white"/>
<path d="M113.424 247.513L156.959 271.071L131.02 319.003C127.656 325.221 119.876 327.537 113.658 324.172L92.6556 312.807C86.4376 309.442 84.1212 301.662 87.4861 295.444L113.424 247.513Z" fill="white"/>
<path d="M92.332 314.64L83.912 323.06C82.762 324.21 83.032 326.13 84.452 326.92L105.312 338.58C106.612 339.3 108.242 338.72 108.782 337.34L113.092 326.33C113.542 325.18 113.062 323.88 111.982 323.29L95.232 314.23C94.282 313.71 93.102 313.89 92.342 314.65L92.332 314.64Z" fill="#999999"/>
<path opacity="0.62" d="M217.472 223.12C274.114 223.12 320.032 177.202 320.032 120.56C320.032 63.9177 274.114 18 217.472 18C160.83 18 114.912 63.9177 114.912 120.56C114.912 177.202 160.83 223.12 217.472 223.12Z" fill="#FEFBFD"/>
<path d="M152.652 392.11C152.072 391.87 152.292 391.01 152.912 391.05C157.722 391.36 162.192 393.77 165.002 397.71C169.762 404.38 167.222 411.87 166.972 412.55C164.782 420 159.662 425.14 152.112 428.36C134.482 423.45 119.332 399.2 119.262 391.07C124.892 382.12 131.522 373.89 138.752 366.07L162.662 380.86C159.472 386.19 159.822 389.87 160.552 393.37C161.132 396.17 156.432 393.68 152.652 392.1V392.11Z" fill="#D5C4E1"/>
<path d="M167.349 377.379C171.494 371.736 169.042 362.89 161.872 357.623C154.701 352.356 145.527 352.661 141.382 358.305C137.236 363.949 139.688 372.794 146.858 378.061C154.029 383.329 163.203 383.023 167.349 377.379Z" fill="#B3B3B3"/>
<path d="M186.482 287.94C190.472 288.78 193.022 292.73 192.562 296.78L187.442 342.05C187.162 344.49 185.562 347.35 183.682 349.47L164.702 366.68C161.682 369.42 157.552 368.71 154.542 365.97C151.092 362.82 150.592 358.42 153.972 355.35L170.092 340.73C171.382 339.56 172.202 337.96 172.402 336.22L177.102 294.68C177.612 290.15 181.912 286.96 186.482 287.93V287.94Z" fill="#E6E6E6"/>
<mask id="mask0_292_24098" style="mask-type:luminance" maskUnits="userSpaceOnUse" x="151" y="287" width="42" height="82">
<path d="M186.482 287.94C190.472 288.78 193.022 292.73 192.562 296.78L187.442 342.05C187.162 344.49 185.562 347.35 183.682 349.47L164.702 366.68C161.682 369.42 157.552 368.71 154.542 365.97C151.092 362.82 150.592 358.42 153.972 355.35L170.092 340.73C171.382 339.56 172.202 337.96 172.402 336.22L177.102 294.68C177.612 290.15 181.912 286.96 186.482 287.93V287.94Z" fill="white"/>
</mask>
<g mask="url(#mask0_292_24098)">
<path d="M173.652 320.61C178.912 318.07 184.852 317.69 190.022 320.58" stroke="#B3B3B3" stroke-width="0.99" stroke-miterlimit="10"/>
<path d="M172.482 330.74C177.742 328.2 183.782 327.82 188.952 330.71" stroke="#B3B3B3" stroke-width="0.99" stroke-miterlimit="10"/>
<path d="M170.672 338.9C176.482 338.34 183.452 341.22 187.292 345.72" stroke="#B3B3B3" stroke-width="0.99" stroke-miterlimit="10"/>
<path d="M165.252 345.11C170.962 346.34 176.022 349.18 178.322 354.63" stroke="#B3B3B3" stroke-width="0.99" stroke-miterlimit="10"/>
<path d="M157.582 351.6C163.292 352.83 168.292 356.85 170.592 362.3" stroke="#B3B3B3" stroke-width="0.99" stroke-miterlimit="10"/>
</g>
<path d="M153.902 391.18C159.692 393.86 163.782 397.85 165.192 403.89C165.442 404.96 164.742 406.03 163.672 406.23C162.702 406.41 161.762 405.82 161.502 404.87C160.272 400.36 157.122 396.95 152.242 394.53C151.352 394.09 150.982 393.01 151.392 392.1C151.822 391.14 152.962 390.75 153.912 391.19L153.902 391.18Z" fill="#9888BF"/>
<path d="M152.132 428.36C140.632 426.2 118.242 400.46 119.282 391.07L120.742 388.81C124.342 403.6 135.972 416.66 153.982 427.5L152.132 428.36Z" fill="#9888BF"/>
<path d="M216.972 267.07L240.622 189.89C257.772 192.34 275.372 191.02 293.842 184.19C301.952 181.42 311.702 185.49 313.552 193.86C316.732 208.26 303.602 226.46 282.872 241.23C258.712 257.16 236.412 266.9 216.972 267.06V267.07Z" fill="#F1E6F3"/>
<path d="M182.232 73.13C180.362 70.1 173.112 69.59 172.762 74.12L173.732 81.29L182.242 73.13H182.232Z" fill="#AA5055"/>
<path d="M164.642 74.22C163.022 71.24 155.212 69.99 154.772 75.97L155.612 82.17L164.642 74.22Z" fill="#AA5055"/>
<path d="M69.6421 196.01C103.942 225.65 124.532 196.97 130.372 161.41L133.322 146.2L134.362 140.83L136.752 128.52C139.522 114.22 147.142 102.09 157.572 93.5L157.382 93.55C154.102 86.56 154.002 80.4 155.012 74.54C155.292 72.94 157.362 72.49 158.332 73.8C162.322 79.16 166.822 84.09 170.262 85.54C171.062 85.16 171.852 84.75 172.672 84.41C172.082 80.64 172.262 77.07 172.862 73.62C173.142 72.02 180.912 78.86 183.242 81.08C190.972 79.41 199.162 79.23 207.422 80.83C240.102 87.17 261.462 118.81 255.122 151.49L250.902 173.26L238.242 238.51L235.792 251.13L108.242 301.39" fill="#AA5055"/>
<path d="M222.912 296.53C214.932 304.64 202.372 312.04 191.002 312.22L165.632 315.69C157.392 316.38 147.482 314.64 136.962 312L135.972 308.31L133.232 303.36L126.692 297.12L121.382 292.51L107.632 280.57" fill="white"/>
<path d="M222.912 296.53C214.932 304.64 202.372 312.04 191.002 312.22L165.632 315.69C157.392 316.38 147.482 314.64 136.962 312L135.972 308.31L133.232 303.36L126.692 297.12L121.382 292.51L107.632 280.57" stroke="black" stroke-width="0.99" stroke-miterlimit="10"/>
<path d="M73.9621 193.59C107.702 221.87 130.682 196.74 136.462 161.53L139.412 146.32L140.452 140.95L142.842 128.64C145.612 114.34 153.232 102.21 163.662 93.62L163.472 93.67C160.192 86.7 160.092 80.56 161.092 74.71C161.372 73.09 163.442 72.6 164.422 73.92C168.412 79.28 172.912 84.21 176.352 85.66C176.352 85.66 176.372 85.66 176.372 85.65C177.742 85 178.582 83.57 178.472 82.06C178.262 79.21 178.472 76.46 178.932 73.78C179.212 72.16 181.282 71.67 182.262 72.99C184.542 76.06 187.002 78.9699 189.322 81.1999C197.052 79.5299 205.242 79.3499 213.502 80.9499C246.182 87.2899 267.542 118.93 261.202 151.61L256.982 173.38L244.322 238.63L241.872 251.25C202.512 287.15 159.322 322.79 106.132 305.77C60.6821 297.56 44.5421 260.2 46.3421 206.14C46.8021 192.18 63.2521 184.62 73.9621 193.59Z" fill="#EC5F62"/>
<path d="M130.532 181.04C120.622 204.63 100.502 216.23 73.482 193.59C62.782 184.62 46.332 192.18 45.862 206.14C44.072 260.2 60.212 297.56 105.652 305.77C158.842 322.8 202.512 287.15 241.872 251.25L247.242 224.78C198.792 236.37 159.212 220.85 130.522 181.04H130.532Z" fill="#D5C4E1"/>
<path d="M246.036 134.478C246.551 131.822 245.106 129.306 242.807 128.86C240.508 128.414 238.227 130.206 237.711 132.863C237.196 135.52 238.642 138.035 240.94 138.481C243.239 138.927 245.521 137.135 246.036 134.478Z" fill="#27464F"/>
<path d="M228.657 131.762C229.173 129.106 227.727 126.59 225.428 126.144C223.129 125.698 220.848 127.49 220.333 130.147C219.817 132.804 221.263 135.319 223.562 135.765C225.86 136.211 228.142 134.419 228.657 131.762Z" fill="#27464F"/>
<path d="M213.073 118.135L225.554 117.273C227.41 117.145 228.812 115.538 228.684 113.684C228.556 111.83 226.947 110.431 225.09 110.559L212.61 111.421C210.753 111.549 209.351 113.156 209.479 115.01C209.607 116.864 211.216 118.263 213.073 118.135Z" fill="#27464F"/>
<path d="M255.826 118.57L244.572 113.105C242.898 112.292 240.883 112.988 240.071 114.66C239.259 116.332 239.958 118.346 241.633 119.159L252.886 124.624C254.56 125.437 256.576 124.74 257.387 123.069C258.199 121.397 257.5 119.383 255.826 118.57Z" fill="#27464F"/>
<path d="M251.152 203.45C230.582 202.44 216.752 181.37 221.152 163.79L251.152 203.45Z" fill="#D67369"/>
<path d="M266.852 171.68C255.192 173 242.632 166.44 238.542 157.81C236.362 154.27 232.952 150.97 229.092 151.62C223.842 152.5 221.002 157.51 221.002 164.61C222.472 190.18 252.942 211.28 269.622 205.04C279.122 203.44 285.572 194.73 284.032 185.59C282.492 176.45 273.542 170.33 264.052 171.93" fill="#F2C666"/>
<path d="M170.712 121.59C174.07 121.59 176.792 118.868 176.792 115.51C176.792 112.152 174.07 109.43 170.712 109.43C167.354 109.43 164.632 112.152 164.632 115.51C164.632 118.868 167.354 121.59 170.712 121.59Z" fill="#AA5055"/>
<path d="M178.792 129.92C180.471 129.92 181.832 128.559 181.832 126.88C181.832 125.201 180.471 123.84 178.792 123.84C177.113 123.84 175.752 125.201 175.752 126.88C175.752 128.559 177.113 129.92 178.792 129.92Z" fill="#AA5055"/>
<path d="M166.502 134.75C168.96 134.75 170.952 132.758 170.952 130.3C170.952 127.842 168.96 125.85 166.502 125.85C164.044 125.85 162.052 127.842 162.052 130.3C162.052 132.758 164.044 134.75 166.502 134.75Z" fill="#AA5055"/>
<path d="M261.942 194.81C254.182 198.08 245.892 194.71 244.832 184.16C244.762 183.43 245.622 183.01 246.152 183.51C250.542 187.65 255.922 190.82 261.942 193.36C262.582 193.63 262.582 194.54 261.942 194.81Z" fill="#F2F2F2"/>
<path d="M242.142 249.87C239.382 262.02 237.762 265.58 234.452 276.33C229.252 293.19 215.982 306.58 199.022 311.45C171.282 319.41 135.082 317.31 100.112 304.6" fill="#D5C4E1"/>
<path d="M128.772 176.98C114.842 169.18 107.622 161.49 97.372 146.5C92.362 139.54 82.0521 137.22 75.7021 142.98C49.7521 166.51 79.522 245.94 139.822 264.43C162.092 270.38 165.962 232.28 166.502 214.04" fill="#F0E7F4"/>
<path d="M80.9621 371.15C80.5521 370.66 81.1421 369.99 81.6921 370.32C85.8021 372.8 88.6621 376.98 89.3521 381.75C90.5321 389.86 84.8421 395.36 84.3121 395.85C78.9521 401.48 72.0421 403.69 63.8621 403.1C50.4321 390.66 48.0621 362.17 51.7321 354.91C60.8321 349.53 70.4921 345.24 80.5021 341.61L94.9821 365.71C89.7021 368.98 88.3321 372.42 87.3721 375.87C86.6121 378.61 83.5921 374.29 80.9521 371.16L80.9621 371.15Z" fill="#D5C4E1"/>
<path d="M99.0386 365.208C104.994 361.523 106.026 352.403 101.344 344.837C96.6619 337.271 88.039 334.125 82.084 337.81C76.129 341.495 75.097 350.616 79.7788 358.181C84.4607 365.747 93.0836 368.893 99.0386 365.208Z" fill="#B3B3B3"/>
<path d="M148.912 290.64C152.292 292.91 153.182 297.53 151.242 301.11L129.572 341.19C128.402 343.35 125.852 345.41 123.312 346.67L99.272 355.54C95.452 356.95 91.882 354.75 90.112 351.08C88.082 346.87 89.272 342.6 93.552 341.02L113.962 333.49C115.602 332.89 116.962 331.71 117.792 330.17L137.672 293.4C139.842 289.39 145.022 288.04 148.902 290.65L148.912 290.64Z" fill="#E6E6E6"/>
<mask id="mask1_292_24098" style="mask-type:luminance" maskUnits="userSpaceOnUse" x="89" y="289" width="64" height="67">
<path d="M148.912 290.64C152.292 292.91 153.182 297.53 151.242 301.11L129.572 341.19C128.402 343.35 125.852 345.41 123.312 346.67L99.272 355.54C95.452 356.95 91.882 354.75 90.112 351.08C88.082 346.87 89.272 342.6 93.552 341.02L113.962 333.49C115.602 332.89 116.962 331.71 117.792 330.17L137.672 293.4C139.842 289.39 145.022 288.04 148.902 290.65L148.912 290.64Z" fill="white"/>
</mask>
<g mask="url(#mask1_292_24098)">
<path d="M134.692 298.23C140.532 298.07 146.072 300.37 149.592 305.12" stroke="#B3B3B3" stroke-width="0.99" stroke-miterlimit="10"/>
<path d="M129.502 306.96C135.342 306.8 141.262 309.17 144.782 313.93" stroke="#B3B3B3" stroke-width="0.99" stroke-miterlimit="10"/>
<path d="M125.152 315.67C130.992 315.51 136.672 317.88 140.192 322.64" stroke="#B3B3B3" stroke-width="0.99" stroke-miterlimit="10"/>
<path d="M120.482 324.47C126.322 324.31 131.762 326.11 135.292 330.86" stroke="#B3B3B3" stroke-width="0.99" stroke-miterlimit="10"/>
<path d="M107.112 335.44C112.112 338.89 115.572 344.05 115.362 350.54" stroke="#B3B3B3" stroke-width="0.99" stroke-miterlimit="10"/>
<path d="M96.062 339.56C101.062 343.01 104.182 348.01 103.972 354.5" stroke="#B3B3B3" stroke-width="0.99" stroke-miterlimit="10"/>
<path d="M115.922 331.93C121.532 333.56 126.342 338.09 128.242 343.7" stroke="#B3B3B3" stroke-width="0.99" stroke-miterlimit="10"/>
</g>
<path d="M82.4721 370.85C86.3921 375.88 88.2021 381.3 86.6921 387.32C86.4221 388.38 85.3121 389.02 84.2621 388.7C83.3221 388.41 82.7521 387.46 82.9521 386.49C83.9221 381.92 82.6821 377.44 79.4521 373.05C78.8621 372.25 79.0221 371.12 79.8121 370.5C80.6321 369.85 81.8221 370.02 82.4721 370.84V370.85Z" fill="#9888BF"/>
<path d="M62.002 403.16C53.152 396.27 45.8521 363.06 50.8521 355.52L53.082 354.23C49.662 368.41 53.362 386.1 63.942 403.24L61.992 403.16H62.002Z" fill="#9888BF"/>
<path d="M303.332 92.6999C298.382 77.1399 289.312 63.42 277.412 52.81C275.532 51.13 272.722 51.0399 270.702 52.5399L270.592 52.62C267.852 54.65 267.722 58.67 270.272 60.94C280.732 70.28 288.692 82.36 293.032 96.05C293.872 98.7 296.652 100.23 299.352 99.5799L299.492 99.55C302.522 98.82 304.282 95.6699 303.332 92.7099V92.6999Z" fill="white"/>
<path d="M127.552 114.26C128.332 102.07 131.522 90.55 136.672 80.15C137.902 77.66 140.882 76.56 143.472 77.58H143.482C146.442 78.74 147.752 82.18 146.342 85.03C141.822 94.18 139.022 104.34 138.352 115.07C138.172 117.89 135.792 120.07 132.962 120.07C129.822 120.07 127.362 117.4 127.562 114.26H127.552Z" fill="white"/>
<path d="M246.892 218.72C202.322 230.57 156.512 214.67 130.782 175.22C129.622 173.44 127.002 173.54 126.002 175.41C125.572 176.21 125.562 177.18 125.972 177.98C147.792 220.37 198.882 240.21 246.352 226.07C248.042 225.57 249.292 224.13 249.522 222.38L249.682 221.16C249.882 219.59 248.422 218.31 246.892 218.71V218.72Z" fill="#C494C3"/>
<path d="M152.262 315.78L179.152 281.19C191.352 265.49 209.302 255.29 229.042 252.85L241.892 251.26C237.072 300.48 205.192 319.76 152.272 315.78H152.262Z" fill="#E6E6E6"/>
<mask id="mask2_292_24098" style="mask-type:luminance" maskUnits="userSpaceOnUse" x="152" y="251" width="90" height="66">
<path d="M152.262 315.78L179.152 281.19C191.352 265.49 209.302 255.29 229.042 252.85L241.892 251.26C237.072 300.48 205.192 319.76 152.272 315.78H152.262Z" fill="white"/>
</mask>
<g mask="url(#mask2_292_24098)">
<path d="M163.482 300.11C184.302 305.6 205.332 308.72 218.072 302.37" stroke="#B3B3B3" stroke-width="0.99" stroke-miterlimit="10"/>
<path d="M170.642 290.09C191.462 295.58 215.212 299.43 227.942 293.08" stroke="#B3B3B3" stroke-width="0.99" stroke-miterlimit="10"/>
<path d="M178.982 280.18C199.802 285.67 220.902 290.12 233.642 283.77" stroke="#B3B3B3" stroke-width="0.99" stroke-miterlimit="10"/>
<path d="M188.162 270.58C205.952 275.27 225.192 278.13 237.552 274.87" stroke="#B3B3B3" stroke-width="0.99" stroke-miterlimit="10"/>
<path d="M201.702 261.09C214.242 264.2 229.642 266.53 239.982 265.6" stroke="#B3B3B3" stroke-width="0.99" stroke-miterlimit="10"/>
<path d="M156.472 309.18C166.022 311.7 178.372 314.27 186.732 315.04" stroke="#B3B3B3" stroke-width="0.99" stroke-miterlimit="10"/>
</g>
<path d="M204.492 251.25C208.59 251.25 211.912 247.928 211.912 243.83C211.912 239.732 208.59 236.41 204.492 236.41C200.394 236.41 197.072 239.732 197.072 243.83C197.072 247.928 200.394 251.25 204.492 251.25Z" fill="#3C63AC"/>
<path d="M227.952 247.66C230.962 247.66 233.402 245.22 233.402 242.21C233.402 239.2 230.962 236.76 227.952 236.76C224.942 236.76 222.502 239.2 222.502 242.21C222.502 245.22 224.942 247.66 227.952 247.66Z" fill="#9888BF"/>
<path d="M80.6265 228.76L67.347 215.48C66.8628 214.996 66.0777 214.996 65.5934 215.48L54.9373 226.136C54.4531 226.621 54.4531 227.406 54.9373 227.89L68.2168 241.17C68.701 241.654 69.4862 241.654 69.9704 241.17L80.6265 230.513C81.1108 230.029 81.1107 229.244 80.6265 228.76Z" fill="#F0E7F4"/>
<path d="M66.5321 222.36C67.2521 221.52 67.8821 220.17 67.1121 218.88C66.0321 218.25 65.3621 219.47 64.9521 220.15C64.4721 221.16 64.4221 222.4 64.6421 223.62C64.3521 223 64.0721 222.97 64.1521 223.62C63.9921 224.3 64.5921 225.59 64.6321 225.9C63.6121 225.61 65.2521 227.35 64.7421 227.78C64.4321 228.26 66.0721 229.4 65.1921 229.12C65.3221 229.99 66.6621 230.55 66.2221 231.14C66.7121 232 67.3921 232.76 68.1321 233.43C66.9321 230.8 65.5621 228.06 65.4521 225.34C65.4321 224.9 65.6021 224.21 65.5821 225.04C65.8321 229.07 68.0521 233.09 70.5121 236.7C70.7421 237.2 71.6321 238.46 71.8621 237.54C70.9821 236.71 70.0721 235.8 69.4821 234.72C68.9821 233.35 69.8121 232.28 69.6121 230.96C69.4621 230.38 69.4621 228.51 68.7521 229.31C69.1021 228.83 68.6121 226.82 68.0021 227.89C67.7621 228.07 68.0621 226.88 67.9521 226.49C67.8821 225.96 67.9321 224.65 67.6821 224.58C67.5221 224.95 66.2921 225.67 67.0121 224.86C67.7021 224.41 67.7921 223.55 67.6321 222.68C67.6521 222.13 67.4421 221.31 66.9721 222C66.8221 222.11 66.6721 222.23 66.5321 222.34" fill="#8E89C2"/>
<path d="M43.8521 307.95C32.5821 306.99 31.562 334 22.082 350.95C21.882 351.31 22.312 351.68 22.642 351.43C38.222 339.36 62.9821 331.54 60.4721 317.23" fill="#EC5F62"/>
<path d="M43.8521 307.95C32.5821 306.99 31.562 334 22.082 350.95C21.882 351.31 22.312 351.68 22.642 351.43C38.222 339.36 62.9821 331.54 60.4721 317.23" stroke="#EC5F62" stroke-width="0.99" stroke-miterlimit="10"/>
<path d="M48.2821 310.16C43.4021 309.74 42.9621 321.43 38.8621 328.77C38.7721 328.93 38.9621 329.09 39.1021 328.98C45.8421 323.76 56.5621 320.37 55.4721 314.18" fill="#FED06C"/>
<path d="M48.2821 310.16C43.4021 309.74 42.9621 321.43 38.8621 328.77C38.7721 328.93 38.9621 329.09 39.1021 328.98C45.8421 323.76 56.5621 320.37 55.4721 314.18" stroke="#FED06C" stroke-width="0.99" stroke-miterlimit="10"/>
<path d="M50.5121 292.97L40.7721 302.71C39.6421 303.84 39.9021 305.74 41.3021 306.52L62.2421 318.22C63.5221 318.93 65.1321 318.36 65.6621 316.99L70.7721 303.93L50.5221 292.97H50.5121Z" fill="#999999"/>
</svg>
