<svg width="412" height="578" viewBox="0 0 412 578" fill="none" xmlns="http://www.w3.org/2000/svg">
<path d="M168.449 518.58C171.259 512.83 177.169 508.87 183.999 508.87C193.559 508.87 201.299 516.62 201.299 526.17V533.98H145.619V505.04H171.689L177.339 510.18" fill="#D5C4E1"/>
<mask id="mask0_77_3635" style="mask-type:luminance" maskUnits="userSpaceOnUse" x="145" y="505" width="57" height="29">
<path d="M168.449 518.58C171.259 512.83 177.169 508.87 183.999 508.87C193.559 508.87 201.299 516.62 201.299 526.17V533.98H145.619V505.04H171.689L177.339 510.18" fill="white"/>
</mask>
<g mask="url(#mask0_77_3635)">
<path d="M171.668 514.04C185.648 507.83 196.708 514.32 201.298 526.17C201.618 521.3 200.658 516.18 198.708 510.86L182.268 506.88L171.658 514.04H171.668Z" fill="#9888BF"/>
</g>
<path d="M149.489 490.81H172.159C175.759 490.81 178.679 493.73 178.679 497.33V502.25C178.679 506.12 175.539 509.27 171.659 509.27H151.599C147.279 509.27 143.779 505.76 143.779 501.45V496.53C143.779 493.38 146.339 490.82 149.489 490.82V490.81Z" fill="#B3B3B3"/>
<path d="M168.059 330.39C164.589 332.83 163.729 337.61 166.149 341.1L195.699 383.75C202.259 393.11 203.729 405.36 198.779 415.67C198.509 416.23 198.219 416.79 197.919 417.33L152.929 494.43C152.069 495.97 152.359 497.96 153.729 499.07C157.939 502.5 167.329 501.43 170.219 496.51L204.119 438.34C204.419 437.79 213.839 420.04 214.109 419.48C219.009 409.28 219.249 392.59 211.379 381.22L178.839 332.35C176.409 328.81 171.559 327.93 168.049 330.39H168.059Z" fill="#E5E5E5"/>
<mask id="mask1_77_3635" style="mask-type:luminance" maskUnits="userSpaceOnUse" x="152" y="328" width="66" height="174">
<path d="M168.059 330.39C164.589 332.83 163.729 337.61 166.149 341.1L195.699 383.75C202.259 393.11 203.729 405.36 198.779 415.67C198.509 416.23 198.219 416.79 197.919 417.33L152.929 494.43C152.069 495.97 152.359 497.96 153.729 499.07C157.939 502.5 167.329 501.43 170.219 496.51L204.119 438.34C204.419 437.79 213.839 420.04 214.109 419.48C219.009 409.28 219.249 392.59 211.379 381.22L178.839 332.35C176.409 328.81 171.559 327.93 168.049 330.39H168.059Z" fill="white"/>
</mask>
<g mask="url(#mask1_77_3635)">
<path d="M200.979 362.81C195.209 368.35 187.269 371.19 179.309 369.61" stroke="#B3B3B3" stroke-width="1.36" stroke-miterlimit="10"/>
<path d="M209.388 373.22C204.518 379.57 197.088 383.56 188.988 383.2" stroke="#B3B3B3" stroke-width="1.36" stroke-miterlimit="10"/>
<path d="M217.059 388.18C211.129 393.55 203.109 396.15 195.199 394.35" stroke="#B3B3B3" stroke-width="1.36" stroke-miterlimit="10"/>
<path d="M221.63 406.81C214.36 410.15 205.93 410.22 198.93 406.12" stroke="#B3B3B3" stroke-width="1.36" stroke-miterlimit="10"/>
<path d="M215.75 424.08C207.82 425.13 199.74 422.71 194.26 416.73" stroke="#B3B3B3" stroke-width="1.36" stroke-miterlimit="10"/>
<path d="M206.98 437.83C198.98 437.55 191.42 433.82 187.01 427.01" stroke="#B3B3B3" stroke-width="1.36" stroke-miterlimit="10"/>
<path d="M201.189 450.46C193.189 450.18 185.629 446.45 181.219 439.64" stroke="#B3B3B3" stroke-width="1.36" stroke-miterlimit="10"/>
<path d="M193.099 461.74C185.099 461.46 177.539 457.73 173.129 450.92" stroke="#B3B3B3" stroke-width="1.36" stroke-miterlimit="10"/>
<path d="M185.349 473.19C177.349 472.91 169.789 469.18 165.379 462.37" stroke="#B3B3B3" stroke-width="1.36" stroke-miterlimit="10"/>
<path d="M177.449 484.56C169.449 484.28 161.889 480.55 157.479 473.74" stroke="#B3B3B3" stroke-width="1.36" stroke-miterlimit="10"/>
<path d="M170.589 495.93C162.589 495.65 155.029 491.92 150.619 485.11" stroke="#B3B3B3" stroke-width="1.36" stroke-miterlimit="10"/>
</g>
<path d="M197.091 541.75H148.921C147.101 541.75 145.631 540.27 145.631 538.46V533.99H201.311V537.54C201.311 539.87 199.421 541.76 197.091 541.76V541.75Z" fill="#9888BF"/>
<path d="M320.481 271.85C337.469 271.85 351.241 268.962 351.241 265.4C351.241 261.838 337.469 258.95 320.481 258.95C303.492 258.95 289.721 261.838 289.721 265.4C289.721 268.962 303.492 271.85 320.481 271.85Z" fill="#D08D57"/>
<path d="M326.129 278.3C343.117 278.3 356.889 275.412 356.889 271.85C356.889 268.288 343.117 265.4 326.129 265.4C309.141 265.4 295.369 268.288 295.369 271.85C295.369 275.412 309.141 278.3 326.129 278.3Z" fill="#EA9350"/>
<path d="M136.391 313.22C153.379 313.22 167.151 310.332 167.151 306.77C167.151 303.208 153.379 300.32 136.391 300.32C119.403 300.32 105.631 303.208 105.631 306.77C105.631 310.332 119.403 313.22 136.391 313.22Z" fill="#D08D57"/>
<path d="M142.039 319.68C159.028 319.68 172.799 316.792 172.799 313.23C172.799 309.668 159.028 306.78 142.039 306.78C125.051 306.78 111.279 309.668 111.279 313.23C111.279 316.792 125.051 319.68 142.039 319.68Z" fill="#EA9350"/>
<path d="M229.76 238.99L226.01 351.27L341.8 350.97" stroke="#ECE3EF" stroke-width="4.87" stroke-miterlimit="10"/>
<path d="M32.3198 331.28C35.1698 339.43 15.9698 347.45 3.54977 356.74C2.00977 357.89 -0.0702281 356.38 0.549772 354.57C5.58977 339.69 7.84977 322.08 18.9198 321.23" fill="#D86866"/>
<path d="M32.3198 331.28C35.1698 339.43 15.9698 347.45 3.54977 356.74C2.00977 357.89 -0.0702281 356.38 0.549772 354.57C5.58977 339.69 7.84977 322.08 18.9198 321.23" stroke="#D86866" stroke-width="0.86" stroke-miterlimit="10"/>
<path d="M27.4506 329.92C28.8406 333.92 19.1506 336.79 13.8806 341.8C13.7706 341.91 13.5906 341.78 13.6506 341.64C16.5806 334.87 17.1206 325.17 22.5306 324.75" fill="#F4CF7B"/>
<path d="M27.4506 329.92C28.8406 333.92 19.1506 336.79 13.8806 341.8C13.7706 341.91 13.5906 341.78 13.6506 341.64C16.5806 334.87 17.1206 325.17 22.5306 324.75" stroke="#F4CF7B" stroke-width="0.86" stroke-miterlimit="10"/>
<path d="M60.7709 359.67C63.6209 367.82 44.4209 375.84 32.0009 385.13C30.4609 386.28 28.3809 384.77 29.0009 382.96C34.0409 368.08 36.3009 350.47 47.3709 349.62" fill="#D86866"/>
<path d="M60.7709 359.67C63.6209 367.82 44.4209 375.84 32.0009 385.13C30.4609 386.28 28.3809 384.77 29.0009 382.96C34.0409 368.08 36.3009 350.47 47.3709 349.62" stroke="#D86866" stroke-width="0.86" stroke-miterlimit="10"/>
<path d="M55.8998 358.31C57.2898 362.31 47.5998 365.18 42.3298 370.19C42.2198 370.3 42.0398 370.17 42.0998 370.03C45.0298 363.26 45.5698 353.56 50.9798 353.14" fill="#F4CF7B"/>
<path d="M55.8998 358.31C57.2898 362.31 47.5998 365.18 42.3298 370.19C42.2198 370.3 42.0398 370.17 42.0998 370.03C45.0298 363.26 45.5698 353.56 50.9798 353.14" stroke="#F4CF7B" stroke-width="0.86" stroke-miterlimit="10"/>
<path d="M70.3721 352.463L55.0165 338.656C50.4731 334.571 50.0936 327.56 54.1855 323.009L85.6972 287.962L117.531 316.585L86.0196 351.632C81.9343 356.175 74.923 356.555 70.3721 352.463Z" fill="white"/>
<path d="M41.253 323.256L25.8974 309.45C21.3539 305.364 20.9745 298.353 25.0664 293.802L56.5781 258.756L88.4121 287.379L56.9004 322.425C52.8152 326.969 45.8039 327.348 41.253 323.256Z" fill="white"/>
<path d="M39.8509 324.02L35.4409 333.32C34.8409 334.59 33.1909 334.93 32.1409 334.01L16.5909 320.4C15.6209 319.56 15.6309 318.05 16.5909 317.21L24.3109 310.51C25.1209 309.81 26.3209 309.82 27.1109 310.53L39.3509 321.54C40.0509 322.17 40.2509 323.17 39.8509 324.02Z" fill="#969696"/>
<path d="M69.6493 351.8L64.5393 362.57C63.9493 363.82 62.3293 364.16 61.2893 363.24L45.6793 349.58C44.7293 348.75 44.7293 347.27 45.6793 346.44L54.8393 338.49L69.6493 351.81V351.8Z" fill="#969696"/>
<path opacity="0.62" d="M258.78 166.04C304.63 166.04 341.8 128.871 341.8 83.02C341.8 37.1693 304.63 0 258.78 0C212.929 0 175.76 37.1693 175.76 83.02C175.76 128.871 212.929 166.04 258.78 166.04Z" fill="#FAF8FA"/>
<path d="M256.019 31.75C247.379 31.75 239.249 33.86 232.069 37.58L232.099 37.55C227.499 37.26 224.259 34.53 221.719 30.52C221.249 29.78 220.129 29.84 219.759 30.63C217.899 34.63 217.949 38.81 219.649 43.14C220.009 44.06 219.129 45.02 218.209 44.64C212.979 42.46 209.679 38.42 208.059 32.76C207.689 31.47 205.909 31.3 205.359 32.52C200.229 43.8 201.169 54.28 207.799 64.02L207.819 64C205.289 70.13 203.879 76.84 203.879 83.89C203.879 112.69 227.219 136.03 256.019 136.03C284.819 136.03 308.159 112.69 308.159 83.89C308.159 55.09 284.819 31.75 256.019 31.75Z" fill="#E0A75C"/>
<path d="M241.851 239.35C274.941 269.76 324.611 272.34 376.921 254.5C379.281 253.69 381.881 255.17 382.291 257.64C388.161 293.05 346.331 325.43 303.141 331.59C279.241 335 226.561 318.61 226.561 318.61" fill="#ECE3EF"/>
<path d="M258.779 68.2802C258.779 78.1502 250.779 86.1502 240.909 86.1502C231.039 86.1502 223.039 78.1502 223.039 68.2802C223.039 58.4102 231.039 50.4102 240.909 50.4102C250.779 50.4102 258.779 58.4102 258.779 68.2802Z" stroke="#2E454E" stroke-width="1.64" stroke-linecap="round" stroke-linejoin="round"/>
<path d="M293.57 62.8798C293.57 72.7498 285.57 80.7498 275.7 80.7498C265.83 80.7498 257.83 72.7498 257.83 62.8798C257.83 53.0098 265.83 45.0098 275.7 45.0098C285.57 45.0098 293.57 53.0098 293.57 62.8798Z" stroke="#2E454E" stroke-width="1.64" stroke-linecap="round" stroke-linejoin="round"/>
<path d="M223.18 66.01C215.45 63.27 206.83 65.69 201.66 72.06L199.18 75.11" stroke="#2E454E" stroke-width="1.64" stroke-linecap="round" stroke-linejoin="round"/>
<path d="M302.369 111.68C291.239 111.06 280.509 102.62 278.039 93.5501C276.609 90.3601 273.409 88.1401 269.689 88.1401C264.639 88.1401 260.539 92.2401 260.539 97.2901C260.269 116.91 284.269 145.22 299.699 144.58C308.849 144.58 316.259 137.16 316.259 128.02C316.259 118.87 308.839 111.46 299.699 111.46" fill="#E8C574"/>
<path d="M97.7108 227.32L91.9008 229.69C83.5408 233.11 74.0708 232.49 66.2208 228.02C52.7408 220.34 36.1608 230.88 37.3908 246.35L38.1108 255.38C42.0908 304.62 101.011 357.92 157.641 357.92C214.271 357.92 243.181 312.01 243.181 255.38C243.531 239.63 240.501 228.28 235.971 218.91C229.421 210.5 218.691 204.77 206.271 200.12C198.721 197.26 180.631 196.96 173.661 198.2" fill="#CFC2DC"/>
<path d="M233.849 198.2C233.849 198.2 243.849 203.85 242.709 209.95C241.569 216.05 232.089 222.44 218.009 216.3C203.929 210.16 205.079 200.46 207.519 197.26C210.799 192.96 220.099 195 220.099 195" fill="#BA93BD"/>
<path d="M235.1 131.67C232.01 153.4 226.96 174.49 220.1 195C219.71 196.15 219.32 197.31 218.93 198.46C218.31 200.27 218.82 202.31 220.3 203.52C222.62 205.41 225.56 206.27 229.31 205.81C230.57 205.66 231.62 204.76 232.03 203.57C239.62 181.74 245.2 158.72 248.5 135.5C244.02 134.82 239.55 133.51 235.1 131.67Z" fill="url(#paint0_linear_77_3635)"/>
<mask id="mask2_77_3635" style="mask-type:luminance" maskUnits="userSpaceOnUse" x="218" y="131" width="31" height="75">
<path d="M235.1 131.67C232.01 153.4 226.96 174.49 220.1 195C219.71 196.15 219.32 197.31 218.93 198.46C218.31 200.27 218.82 202.31 220.3 203.52C222.62 205.41 225.56 206.27 229.31 205.81C230.57 205.66 231.62 204.76 232.03 203.57C239.62 181.74 245.2 158.72 248.5 135.5C244.02 134.82 239.55 133.51 235.1 131.67Z" fill="white"/>
</mask>
<g mask="url(#mask2_77_3635)">
<path d="M221.621 213.97C229.711 191.1 239.891 152.44 243.361 128.08L229.731 123.62C226.261 147.99 217.231 180.55 209.141 203.42" fill="#D58A4D"/>
</g>
<path d="M254.839 166.04C252.969 171.83 243.749 177.3 230.379 171.47C219.629 166.78 217.759 160.02 218.559 155.66C230.689 161.78 242.789 165.43 254.839 166.04Z" fill="#BA93BD"/>
<path d="M202.639 130.73C197.239 124.43 192.889 117.2 189.869 109.31C189.239 107.68 190.069 105.85 191.709 105.24C193.299 104.65 195.069 105.44 195.679 107.02C198.469 114.24 202.479 120.85 207.459 126.6C208.499 127.8 208.439 129.59 207.359 130.75L207.289 130.82C206.019 132.18 203.839 132.14 202.629 130.72L202.639 130.73Z" fill="white"/>
<path d="M325.541 53.33C318.241 36.85 305.051 23.56 288.641 16.13C286.901 15.34 284.851 16.07 284.011 17.79C283.141 19.56 283.911 21.69 285.711 22.52C300.461 29.33 312.301 41.38 318.841 56.28C319.581 57.96 321.481 58.78 323.211 58.18L323.481 58.08C325.421 57.4 326.381 55.21 325.541 53.33Z" fill="white"/>
<path d="M209.98 259.5C209.98 265.6 205.04 270.54 198.94 270.54C192.84 270.54 187.9 265.6 187.9 259.5C187.9 253.4 192.84 248.46 198.94 248.46C205.04 248.46 209.98 253.4 209.98 259.5Z" fill="#4562A4"/>
<path d="M232.089 265.64C232.089 268.69 229.609 271.17 226.559 271.17C223.509 271.17 221.029 268.69 221.029 265.64C221.029 262.59 223.509 260.11 226.559 260.11C229.609 260.11 232.089 262.59 232.089 265.64Z" fill="#9286B8"/>
<path d="M111.85 347.34L160.7 310.79C180.54 295.95 205.32 289.29 229.93 292.19L238.37 293.19C219.08 359.27 164.13 370.19 111.85 347.34Z" fill="#E3E3E3"/>
<mask id="mask3_77_3635" style="mask-type:luminance" maskUnits="userSpaceOnUse" x="111" y="291" width="128" height="68">
<path d="M111.289 347.4L160.139 310.85C179.979 296.01 204.759 289.35 229.369 292.25L238.379 293.18C219.089 359.26 163.569 370.24 111.299 347.39L111.289 347.4Z" fill="white"/>
</mask>
<g mask="url(#mask3_77_3635)">
<path d="M301.05 257.8C301.05 295.29 270.66 325.69 233.16 325.69C195.67 325.69 165.27 295.3 165.27 257.8C165.27 220.31 195.66 189.91 233.16 189.91C270.65 189.91 301.05 220.3 301.05 257.8Z" stroke="#B0B0B0" stroke-width="1.14" stroke-miterlimit="10"/>
<path d="M311.759 245.63C311.759 283.12 281.369 313.52 243.869 313.52C206.379 313.52 175.979 283.13 175.979 245.63C175.979 208.14 206.369 177.74 243.869 177.74C281.359 177.74 311.759 208.13 311.759 245.63Z" stroke="#B0B0B0" stroke-width="1.14" stroke-miterlimit="10"/>
<path d="M289.979 270.88C289.979 308.37 259.589 338.77 222.089 338.77C184.599 338.77 154.199 308.38 154.199 270.88C154.199 233.39 184.589 202.99 222.089 202.99C259.579 202.99 289.979 233.38 289.979 270.88Z" stroke="#B0B0B0" stroke-width="1.14" stroke-miterlimit="10"/>
<path d="M277.169 281.56C277.169 319.05 246.779 349.45 209.279 349.45C171.789 349.45 141.389 319.06 141.389 281.56C141.389 244.07 171.779 213.67 209.279 213.67C246.769 213.67 277.169 244.06 277.169 281.56Z" stroke="#B0B0B0" stroke-width="1.14" stroke-miterlimit="10"/>
<path d="M195.048 359.48C232.543 359.48 262.938 329.085 262.938 291.59C262.938 254.096 232.543 223.7 195.048 223.7C157.554 223.7 127.158 254.096 127.158 291.59C127.158 329.085 157.554 359.48 195.048 359.48Z" stroke="#B0B0B0" stroke-width="1.14" stroke-miterlimit="10"/>
<path d="M247.069 296.92C247.069 334.41 216.679 364.81 179.179 364.81C141.689 364.81 111.289 334.42 111.289 296.92C111.289 259.43 141.679 229.03 179.179 229.03C216.669 229.03 247.069 259.42 247.069 296.92Z" stroke="#B0B0B0" stroke-width="1.14" stroke-miterlimit="10"/>
</g>
<path d="M250.33 74.3892C252.32 74.0673 253.612 71.8218 253.216 69.3739C252.82 66.926 250.886 65.2025 248.896 65.5245C246.906 65.8464 245.614 68.0919 246.01 70.5398C246.406 72.9877 248.34 74.7112 250.33 74.3892Z" fill="#2E454E"/>
<path d="M267.641 71.5904C269.631 71.2684 270.923 69.023 270.527 66.5751C270.131 64.1272 268.197 62.4037 266.207 62.7257C264.217 63.0476 262.925 65.293 263.321 67.741C263.717 70.1889 265.651 71.9123 267.641 71.5904Z" fill="#2E454E"/>
<path d="M277.537 46.5768L264.675 43.1499C263.229 42.7645 261.744 43.6246 261.359 45.0708L261.068 46.1627C260.683 47.6089 261.543 49.0937 262.989 49.4791L275.85 52.906C277.296 53.2913 278.781 52.4313 279.166 50.9851L279.457 49.8932C279.843 48.447 278.983 46.9622 277.537 46.5768Z" fill="#2E454E"/>
<path d="M238.652 45.5404L225.791 48.9673C224.344 49.3526 223.484 50.8374 223.87 52.2837L224.161 53.3756C224.546 54.8218 226.031 55.6818 227.477 55.2965L240.338 51.8695C241.784 51.4842 242.644 49.9994 242.259 48.5532L241.968 47.4613C241.583 46.015 240.098 45.155 238.652 45.5404Z" fill="#2E454E"/>
<path d="M281.78 121.97C284.14 129.82 291.82 133.94 300.38 128.19C300.97 127.79 300.75 126.88 300.04 126.8C294.21 126.08 288.5 124.01 282.86 121.08C282.26 120.77 281.58 121.33 281.78 121.98V121.97Z" fill="white"/>
<path opacity="0.21" d="M261.051 103.8C262.231 118.15 267.941 127.54 277.081 131.59H276.621C268.451 122.64 264.261 114.2 261.051 103.8Z" fill="black"/>
<path d="M165.251 254.02C190.741 280.06 229.271 284.5 271.291 272.12C273.391 271.5 275.431 273.24 275.541 275.75C277.091 311.44 238.641 340.26 201.541 342.9C187.881 343.87 164.301 335.11 150.021 329.13C138.131 324.15 127.041 316.87 117.551 307.21C105.421 294.86 94.151 277.08 103.951 259.09C112.881 242.7 126.541 239.48 137.951 240.35C148.171 241.13 157.631 246.23 165.251 254.02Z" fill="#E3E3E3"/>
<path d="M339.419 235.48H226.289V350.16H339.419V235.48Z" fill="#969696"/>
<path d="M228.16 353.53L224.73 350.07L280.95 294.34L226.85 239.48C225.78 238.41 225.46 236.79 226.04 235.37C226.63 233.95 228 233.04 229.53 233.04H339.16C340.92 233.04 342.5 234.09 343.17 235.72C343.84 237.35 343.47 239.21 342.23 240.45L287.82 294.38L341.14 348.44L337.67 351.86L284.36 297.81L228.15 353.53H228.16ZM232.14 237.92L284.41 290.93L337.89 237.92H232.14ZM230.31 236.06H230.32C230.32 236.06 230.32 236.06 230.31 236.06Z" fill="#ECE3EF"/>
<path d="M364.961 215.62V333.18C364.961 333.27 364.921 333.35 364.851 333.41L342.271 351.2C342.081 351.35 341.801 351.21 341.801 350.97V234.09" fill="#969696"/>
<path d="M342.059 353.41H340.889C339.939 352.95 339.369 352.03 339.369 350.97V234.09H344.239V346.56L362.529 332.14V215.36H367.399V333.18C367.399 334.02 367.019 334.8 366.359 335.32L344.569 352.32C344.079 352.71 342.659 353.4 342.059 353.4V353.41Z" fill="#ECE3EF"/>
<path d="M246.801 217.8L225.721 235.05C225.311 235.39 225.551 236.06 226.081 236.06H341.981L364.931 217.97C365.001 217.92 364.961 217.8 364.871 217.8L303.321 217.59L246.791 217.8H246.801Z" fill="#969696"/>
<path d="M342.821 238.48H226.081C224.811 238.48 223.891 237.68 223.461 236.49C223.031 235.3 223.41 233.96 224.39 233.16L245.93 215.37L303.321 215.15L364.881 215.36C365.941 215.36 366.901 216.04 367.261 217.05C367.621 218.06 367.291 219.19 366.451 219.86L342.83 238.48H342.821ZM231.31 233.62H341.131L358.15 220.21L303.321 220.02L247.67 220.23L231.31 233.62Z" fill="#ECE3EF"/>
<path d="M54.1999 494.48C58.6899 489.92 65.5399 488.03 72.0199 490.19C81.0899 493.21 85.9799 503.01 82.9599 512.08L80.4899 519.49L27.6699 501.88L36.8199 474.42L61.5499 482.66L65.2799 489.32" fill="#D5C4E1"/>
<mask id="mask4_77_3635" style="mask-type:luminance" maskUnits="userSpaceOnUse" x="27" y="474" width="57" height="46">
<path d="M54.1999 494.48C58.6899 489.92 65.5399 488.03 72.0199 490.19C81.0899 493.21 85.9799 503.01 82.9599 512.08L80.4899 519.49L27.6699 501.88L36.8199 474.42L61.5499 482.66L65.2799 489.32" fill="white"/>
</mask>
<g mask="url(#mask4_77_3635)">
<path d="M58.6895 491.2C73.9195 489.73 82.3495 499.39 82.9695 512.08C84.8095 507.56 85.5195 502.4 85.3595 496.73L71.0195 487.76L58.6895 491.2Z" fill="#9888BF"/>
</g>
<path d="M44.9559 462.133L66.4619 469.304C69.8771 470.442 71.7235 474.136 70.5848 477.551L69.0285 482.219C67.8044 485.89 63.8293 487.885 60.1485 486.658L41.1184 480.312C37.0203 478.946 34.8102 474.509 36.1735 470.42L37.7298 465.753C38.7261 462.765 41.9645 461.146 44.9527 462.142L44.9559 462.133Z" fill="#B3B3B3"/>
<path d="M113.34 315.84C109.28 317.05 106.95 321.32 108.14 325.39L122.69 375.19C125.96 386.14 123.47 398.24 115.52 406.44C115.09 406.89 114.64 407.32 114.18 407.75L47.1204 466.66C45.8204 467.85 45.4704 469.83 46.4104 471.32C49.3204 475.91 58.5604 477.86 62.8704 474.11L113.43 429.65C113.89 429.23 128.44 415.37 128.87 414.92C136.75 406.8 142.25 391.03 138.38 377.76L122.97 321.11C121.79 316.98 117.47 314.61 113.35 315.84H113.34Z" fill="#E5E5E5"/>
<mask id="mask5_77_3635" style="mask-type:luminance" maskUnits="userSpaceOnUse" x="45" y="315" width="95" height="162">
<path d="M113.34 315.84C109.28 317.05 106.95 321.32 108.14 325.39L122.69 375.19C125.96 386.14 123.47 398.24 115.52 406.44C115.09 406.89 114.64 407.32 114.18 407.75L47.1204 466.66C45.8204 467.85 45.4704 469.83 46.4104 471.32C49.3204 475.91 58.5604 477.86 62.8704 474.11L113.43 429.65C113.89 429.23 128.44 415.37 128.87 414.92C136.75 406.8 142.25 391.03 138.38 377.76L122.97 321.11C121.79 316.98 117.47 314.61 113.35 315.84H113.34Z" fill="white"/>
</mask>
<g mask="url(#mask5_77_3635)">
<path d="M134.321 357C127.091 360.43 118.661 360.61 111.611 356.6" stroke="#B3B3B3" stroke-width="1.36" stroke-miterlimit="10"/>
<path d="M139 369.53C132.37 374.01 124.06 375.45 116.49 372.54" stroke="#B3B3B3" stroke-width="1.36" stroke-miterlimit="10"/>
<path d="M141.551 386.15C134.231 389.37 125.791 389.3 118.861 385.09" stroke="#B3B3B3" stroke-width="1.36" stroke-miterlimit="10"/>
<path d="M139.992 405.27C132.042 406.14 124.022 403.54 118.672 397.44" stroke="#B3B3B3" stroke-width="1.36" stroke-miterlimit="10"/>
<path d="M128.951 419.8C121.091 418.29 114.201 413.44 110.881 406.03" stroke="#B3B3B3" stroke-width="1.36" stroke-miterlimit="10"/>
<path d="M116.282 430.06C108.782 427.26 102.792 421.33 100.762 413.48" stroke="#B3B3B3" stroke-width="1.36" stroke-miterlimit="10"/>
<path d="M106.801 440.22C99.3013 437.42 93.3112 431.49 91.2812 423.64" stroke="#B3B3B3" stroke-width="1.36" stroke-miterlimit="10"/>
<path d="M95.561 448.36C88.061 445.56 82.071 439.63 80.041 431.78" stroke="#B3B3B3" stroke-width="1.36" stroke-miterlimit="10"/>
<path d="M84.5806 456.77C77.0806 453.97 71.0905 448.04 69.0605 440.19" stroke="#B3B3B3" stroke-width="1.36" stroke-miterlimit="10"/>
<path d="M73.4907 465.06C65.9907 462.26 60.0007 456.33 57.9707 448.48" stroke="#B3B3B3" stroke-width="1.36" stroke-miterlimit="10"/>
<path d="M63.3911 473.67C55.8911 470.87 49.9011 464.94 47.8711 457.09" stroke="#B3B3B3" stroke-width="1.36" stroke-miterlimit="10"/>
</g>
<path d="M74.076 525.532L28.3793 510.295C26.6527 509.72 25.7264 507.851 26.2989 506.134L27.7128 501.893L80.5339 519.505L79.411 522.873C78.674 525.084 76.2832 526.279 74.0728 525.542L74.076 525.532Z" fill="#9888BF"/>
<path d="M223.859 350.17L223.289 235.39L228.159 235.03L228.719 350.15L223.859 350.17Z" fill="#ECE3EF"/>
<path d="M165.251 254.02C190.741 280.06 229.271 284.5 271.291 272.12C273.391 271.5 275.431 273.24 275.541 275.75C277.091 311.44 238.641 340.26 201.541 342.9C187.881 343.87 164.301 335.11 150.021 329.13C138.131 324.15 127.041 316.87 117.551 307.21C105.421 294.86 94.151 277.08 103.951 259.09C112.881 242.7 126.541 239.48 137.951 240.35C148.171 241.13 157.631 246.23 165.251 254.02Z" fill="#E3E3E3"/>
<defs>
<linearGradient id="paint0_linear_77_3635" x1="218.66" y1="168.8" x2="248.5" y2="168.8" gradientUnits="userSpaceOnUse">
<stop stop-color="#E2964C"/>
<stop offset="1" stop-color="#E0A75C"/>
</linearGradient>
</defs>
</svg>
