<svg width="294" height="342" viewBox="0 0 294 342" fill="none" xmlns="http://www.w3.org/2000/svg">
<g clip-path="url(#clip0_77_2301)">
<path d="M282.143 184.539C286.021 172.448 288.465 157.535 292.721 151.902C292.988 151.551 293.192 151.184 293.339 150.818C295.467 146.644 292.177 141.522 287.272 141.869C271.731 142.969 244.948 147.845 221.51 151.601C221.062 151.667 220.617 151.736 220.173 151.814C207.517 150.08 195.205 146.189 183.055 140.838L180.34 139.526C159.617 129.512 134.637 137.897 124.225 158.365C114.891 176.721 120.29 199.089 136.978 211.203L150.734 221.19C152.773 221.939 154.851 222.596 156.952 223.171C157.052 223.51 157.176 223.854 157.338 224.205C214.044 249.472 271.187 218.704 282.139 184.547L282.143 184.539Z" fill="#EEE5F1"/>
<path opacity="0.62" d="M194.758 128.106C230.148 128.106 258.837 99.4286 258.837 64.0531C258.837 28.6775 230.148 0 194.758 0C159.369 0 130.68 28.6775 130.68 64.0531C130.68 99.4286 159.369 128.106 194.758 128.106Z" fill="#FEFBFD"/>
<path d="M248.409 46.6539C245.315 36.937 239.65 28.3668 232.215 21.7383C231.041 20.6921 229.284 20.6304 228.021 21.5684L227.952 21.6186C226.237 22.8887 226.16 25.398 227.751 26.8187C234.282 32.6558 239.26 40.1953 241.975 48.7462C242.5 50.4024 244.234 51.3559 245.926 50.9506L246.01 50.9313C247.903 50.4757 249 48.5107 248.409 46.6577V46.6539Z" fill="white"/>
<path d="M138.581 60.1194C139.064 52.5104 141.064 45.3106 144.278 38.8173C145.05 37.2615 146.904 36.5744 148.522 37.2075H148.53C150.376 37.9333 151.198 40.0797 150.318 41.8594C147.495 47.5767 145.745 53.9157 145.324 60.6174C145.216 62.3817 143.721 63.7444 141.953 63.7444C139.987 63.7444 138.454 62.0767 138.577 60.1194H138.581Z" fill="white"/>
<path d="M80.9449 211.516C69.8416 210.57 68.8414 237.169 59.503 253.861C59.306 254.213 59.7347 254.583 60.0514 254.336C75.3991 242.454 99.7916 234.752 97.316 220.665" fill="#EC5F62"/>
<path d="M80.9449 211.516C69.8416 210.57 68.8414 237.169 59.503 253.861C59.306 254.213 59.7347 254.583 60.0514 254.336C75.3991 242.454 99.7916 234.752 97.316 220.665" stroke="#EC5F62" stroke-width="2.53" stroke-miterlimit="10"/>
<path d="M85.3117 213.697C80.5074 213.288 80.0748 224.796 76.0351 232.019C75.9502 232.173 76.1355 232.332 76.2746 232.224C82.9173 227.081 93.4721 223.75 92.3985 217.654" fill="#FED06C"/>
<path d="M85.3117 213.697C80.5074 213.288 80.0748 224.796 76.0351 232.019C75.9502 232.173 76.1355 232.332 76.2746 232.224C82.9173 227.081 93.4721 223.75 92.3985 217.654" stroke="#FED06C" stroke-width="2.53" stroke-miterlimit="10"/>
<path d="M128.045 92.2339C138.444 100.769 139.954 116.14 131.415 126.535L80.1247 188.975C73.6693 196.833 62.0456 197.977 54.1808 191.522L44.9848 183.974C37.123 177.521 35.9785 165.902 42.4364 158.041L93.7272 95.6008C102.266 85.2061 117.643 83.6962 128.042 92.2315L128.045 92.2339Z" fill="white"/>
<path d="M105.844 131.502L148.729 154.7L123.18 201.894C119.866 208.016 112.202 210.296 106.078 206.984L85.3899 195.793C79.2658 192.48 76.9842 184.82 80.2982 178.698L105.847 131.504L105.844 131.502Z" fill="white"/>
<path d="M85.1032 197.599L76.8114 205.887C75.6799 207.018 75.9464 208.914 77.3405 209.693L97.8903 221.171C99.1648 221.885 100.779 221.306 101.308 219.947L105.549 209.103C105.993 207.972 105.522 206.686 104.452 206.107L87.9572 197.182C87.0188 196.676 85.8602 196.842 85.1071 197.599H85.1032Z" fill="#999999"/>
<path d="M32.1017 194.225C21.3807 191.183 15.3367 217.106 2.98981 231.714C2.72719 232.023 3.07863 232.467 3.4378 232.285C20.7667 223.541 46.1826 220.619 46.4336 206.32" fill="#EC5F62"/>
<path d="M32.1017 194.225C21.3807 191.183 15.3367 217.106 2.98981 231.714C2.72719 232.023 3.07863 232.467 3.4378 232.285C20.7667 223.541 46.1826 220.619 46.4336 206.32" stroke="#EC5F62" stroke-width="2.53" stroke-miterlimit="10"/>
<path d="M35.9746 197.197C31.3364 195.881 28.7179 207.099 23.3767 213.419C23.2647 213.554 23.4153 213.743 23.5698 213.666C31.0699 209.883 42.065 208.616 42.1732 202.432" fill="#FED06C"/>
<path d="M35.9746 197.197C31.3364 195.881 28.7179 207.099 23.3767 213.419C23.2647 213.554 23.4153 213.743 23.5698 213.666C31.0699 209.883 42.065 208.616 42.1732 202.432" stroke="#FED06C" stroke-width="2.53" stroke-miterlimit="10"/>
<path d="M41.3505 180.995L30.1004 188.588C28.7951 189.468 28.6947 191.352 29.8957 192.368L47.9507 207.601C49.0513 208.528 50.7159 208.273 51.4883 207.057L58.8763 195.387L41.3466 180.998L41.3505 180.995Z" fill="#999999"/>
<path d="M59.9078 225.961H87.6255C92.3488 225.961 96.1876 229.795 96.1876 234.52V236.914C96.1876 238.203 95.141 239.253 93.8473 239.253H53.69C52.4001 239.253 51.3496 238.207 51.3496 236.914V234.52C51.3496 229.799 55.1846 225.961 59.9117 225.961H59.9078Z" fill="#9B7FD6" stroke="#9B7FD6" stroke-width="3.14" stroke-miterlimit="10"/>
<path d="M155.805 224.595C159.316 224.174 162.529 226.707 163.297 230.158L171.902 268.767C172.366 270.844 171.86 273.642 170.913 275.909L160.2 295.331C158.497 298.419 154.905 298.99 151.654 297.577C147.927 295.956 146.278 292.474 148.185 289.015L157.284 272.523C158.014 271.199 158.234 269.655 157.906 268.18L150.012 232.76C149.151 228.896 151.781 225.081 155.809 224.599L155.805 224.595Z" fill="#E5E5E5"/>
<mask id="mask0_77_2301" style="mask-type:luminance" maskUnits="userSpaceOnUse" x="147" y="224" width="26" height="75">
<path d="M155.805 224.595C159.316 224.174 162.529 226.707 163.297 230.158L171.902 268.767C172.366 270.844 171.86 273.642 170.913 275.909L160.2 295.331C158.497 298.419 154.905 298.99 151.654 297.577C147.927 295.956 146.278 292.474 148.185 289.015L157.284 272.523C158.014 271.199 158.234 269.655 157.906 268.18L150.012 232.76C149.151 228.896 151.781 225.081 155.809 224.599L155.805 224.595Z" fill="white"/>
</mask>
<g mask="url(#mask0_77_2301)">
<path d="M168.132 245.758C163.938 249.221 158.4 250.734 153.062 249.256" stroke="#B3B3B3" stroke-width="2.4" stroke-miterlimit="10"/>
<path d="M170.657 254.51C166.463 257.973 160.925 259.486 155.588 258.008" stroke="#B3B3B3" stroke-width="2.4" stroke-miterlimit="10"/>
<path d="M171.55 264.841C166.885 267.644 161.176 268.315 156.117 266.065" stroke="#B3B3B3" stroke-width="2.4" stroke-miterlimit="10"/>
<path d="M170.774 277.854C165.328 278.186 159.941 276.156 156.48 271.832" stroke="#B3B3B3" stroke-width="2.4" stroke-miterlimit="10"/>
<path d="M167.198 285.012C161.741 284.915 156.531 282.468 153.418 277.885" stroke="#B3B3B3" stroke-width="2.4" stroke-miterlimit="10"/>
<path d="M163.301 291.895C157.844 291.798 152.634 289.351 149.521 284.769" stroke="#B3B3B3" stroke-width="2.4" stroke-miterlimit="10"/>
</g>
<path d="M136.951 296.771L127.563 319.231C126.373 322.08 127.725 325.365 130.583 326.57L166.202 341.556C168.991 342.73 172.239 341.506 173.463 338.757C179.704 324.72 176.568 312.552 156.918 309.371" fill="#D9C3E3"/>
<path d="M146.845 307.383C140.569 304.82 135.039 299.523 137.576 293.455C139.909 287.88 143.998 287.351 147.633 290.324L159.651 295.381C164.316 295.898 166.807 299.195 164.475 304.774C161.937 310.842 153.066 310.078 146.845 307.387" fill="#B3B3B3"/>
<path d="M165.51 312.12C170.608 314.309 174.269 317.668 175.663 322.872C175.911 323.79 175.335 324.736 174.404 324.933C173.566 325.111 172.732 324.62 172.481 323.802C171.284 319.926 168.461 317.038 164.151 315.054C163.363 314.691 163.011 313.765 163.344 312.969C163.695 312.132 164.668 311.761 165.506 312.12H165.51Z" fill="#BC95BF"/>
<path d="M129.158 326.604L164.63 341.529C165.511 341.899 166.519 341.486 166.886 340.614L167.268 339.695C167.635 338.819 167.218 337.807 166.341 337.441L130.869 322.516C129.988 322.145 128.98 322.558 128.613 323.431L128.231 324.35C127.864 325.226 128.281 326.237 129.158 326.604Z" fill="#BC95BF"/>
<path d="M197.025 30.8644C173.748 25.6527 154.203 44.1251 155.975 65.6705C157.482 83.3244 152.743 106.68 106.167 146.046C95.1294 155.376 84.8719 165.973 75.6841 177.551C73.2549 180.612 70.0263 184.639 66.5968 188.615L32.92 239.736C29.5176 244.272 29.1198 250.074 31.9197 255.089C34.4416 259.598 39.3927 262.2 44.5794 262.3C53.4196 262.474 64.1444 262.173 75.8309 261.223C94.5694 259.698 144.799 264.983 164.731 259.733C186.995 253.865 182.299 230.397 190.977 207.026C193.53 199.66 195.036 185.531 195.457 165.031C195.909 142.865 200.956 121.698 210.453 102.117C218.154 86.2391 223.082 73.0478 222.101 60.2851C220.939 46.1519 210.936 33.9798 197.029 30.8644H197.025Z" fill="#E6E5E5"/>
<mask id="mask1_77_2301" style="mask-type:luminance" maskUnits="userSpaceOnUse" x="30" y="29" width="193" height="234">
<path d="M197.025 30.8644C173.748 25.6527 154.203 44.1251 155.975 65.6705C157.482 83.3244 152.743 106.68 106.167 146.046C95.1294 155.376 84.8719 165.973 75.6841 177.551C73.2549 180.612 70.0263 184.639 66.5968 188.615L32.92 239.736C29.5176 244.272 29.1198 250.074 31.9197 255.089C34.4416 259.598 39.3927 262.2 44.5794 262.3C53.4196 262.474 64.1444 262.173 75.8309 261.223C94.5694 259.698 144.799 264.983 164.731 259.733C186.995 253.865 182.299 230.397 190.977 207.026C193.53 199.66 195.036 185.531 195.457 165.031C195.909 142.865 200.956 121.698 210.453 102.117C218.154 86.2391 223.082 73.0478 222.101 60.2851C220.939 46.1519 210.936 33.9798 197.029 30.8644H197.025Z" fill="white"/>
</mask>
<g mask="url(#mask1_77_2301)">
<path d="M199.212 142.934C183.03 199.849 132.573 241.021 62.3613 273.113L212.934 256.973L199.216 142.93L199.212 142.934Z" fill="#DBD9D9" stroke="#E6E5E5" stroke-width="2.57" stroke-miterlimit="10"/>
<path d="M140.505 105.974C87.707 144.528 45.9933 191.997 17.2715 249.919L41.4477 269.569L180.422 265.161C197.222 222.684 205.043 179.056 202.197 134.066L140.508 105.977" fill="#D1C4DE"/>
<path d="M215.471 166.946C166.748 170.428 135.265 205.52 117.438 265.647L180.423 265.161L215.471 166.946Z" fill="#E6E6E6"/>
<mask id="mask2_77_2301" style="mask-type:luminance" maskUnits="userSpaceOnUse" x="117" y="166" width="99" height="100">
<path d="M215.471 166.946C166.748 170.428 135.265 205.52 117.438 265.647L180.423 265.161L215.471 166.946Z" fill="white"/>
</mask>
<g mask="url(#mask2_77_2301)">
<path d="M117.371 233.458C144.849 240.701 172.598 244.82 189.409 236.439" stroke="#B3B3B3" stroke-width="3.39" stroke-miterlimit="10"/>
<path d="M126.826 220.236C154.304 227.479 185.637 232.563 202.448 224.182" stroke="#B3B3B3" stroke-width="3.39" stroke-miterlimit="10"/>
<path d="M137.832 207.165C165.31 214.407 193.159 220.279 209.971 211.898" stroke="#B3B3B3" stroke-width="3.39" stroke-miterlimit="10"/>
<path d="M149.943 194.502C173.421 200.691 198.813 204.462 215.127 200.158" stroke="#B3B3B3" stroke-width="3.39" stroke-miterlimit="10"/>
<path d="M167.809 181.975C184.35 186.083 204.675 189.156 218.32 187.924" stroke="#B3B3B3" stroke-width="3.39" stroke-miterlimit="10"/>
<path d="M123.295 248.426C135.901 251.75 163.224 254.757 181.584 252.294" stroke="#B3B3B3" stroke-width="3.39" stroke-miterlimit="10"/>
</g>
</g>
<path d="M189.322 57.2259C190.686 57.1113 191.679 55.6664 191.539 53.9986C191.399 52.3308 190.179 51.0716 188.814 51.1862C187.45 51.3007 186.457 52.7456 186.597 54.4134C186.738 56.0812 187.957 57.3404 189.322 57.2259Z" fill="#2E454E"/>
<path d="M201.197 56.2552C202.561 56.1406 203.554 54.6957 203.414 53.0279C203.274 51.3601 202.054 50.1009 200.689 50.2155C199.325 50.33 198.332 51.7749 198.472 53.4427C198.613 55.1105 199.832 56.3697 201.197 56.2552Z" fill="#2E454E"/>
<path d="M210.159 44.4803L200.006 42.6543C199.349 42.5385 198.917 41.9131 199.032 41.2607L199.395 39.2648C199.515 38.6124 200.141 38.18 200.797 38.2997L210.951 40.1257C211.607 40.2415 212.04 40.8669 211.924 41.5193L211.561 43.5152C211.441 44.1676 210.815 44.6 210.159 44.4803Z" fill="#2E454E"/>
<path d="M186.025 45.3955L176.309 48.8391C175.683 49.063 174.992 48.7348 174.768 48.1133L174.084 46.2024C173.86 45.577 174.188 44.8937 174.814 44.6697L184.531 41.2262C185.157 41.0023 185.848 41.3304 186.072 41.952L186.755 43.8629C186.979 44.4883 186.651 45.1716 186.025 45.3955Z" fill="#2E454E"/>
<path d="M195.044 68.2338C206.645 73.5111 218.281 77.8348 229.956 81.1355C235.711 82.7608 241.473 84.139 247.243 85.2585C249.873 75.2522 218.467 65.8596 212.577 64.2189L204.988 62.1072C200.678 60.9877 196.225 63.7286 195.044 68.2338C193.862 72.7351 196.461 76.862 200.705 78.4139C212.345 81.8266 219.772 82.9114 230.292 81.2321" fill="#EAC775"/>
<path d="M228.412 79.8002C224.422 81.1823 220.375 79.2366 220.182 73.9477C220.17 73.581 220.614 73.3995 220.865 73.6659C222.932 75.8664 225.523 77.619 228.458 79.0783C228.771 79.2327 228.74 79.6844 228.408 79.8002H228.412Z" fill="white"/>
<path d="M61.9462 279.862L42.8872 295.003C40.4695 296.925 40.0756 300.45 42.0066 302.878L66.0747 333.121C67.9594 335.487 71.4004 335.982 73.7987 334.163C86.0336 324.879 89.1387 312.722 73.4164 300.492" fill="#D9C3E3"/>
<path d="M65.5313 293.906C61.256 288.644 58.9465 281.348 64.0946 277.26C68.8256 273.5 72.6721 275.005 74.4332 279.356L82.555 289.559C86.4016 292.254 87.0041 296.338 82.2731 300.098C77.125 304.191 69.6984 299.257 65.5351 293.906" fill="#B3B3B3"/>
<path d="M113.246 225.761C116.532 227.081 118.131 230.841 117.146 234.235L106.12 272.16C105.525 274.202 103.737 276.406 101.818 277.935L83.06 289.779C80.0785 291.663 76.6452 290.435 74.4747 287.637C71.9837 284.425 72.2116 280.583 75.5484 278.476L91.4792 268.415C92.7575 267.608 93.6921 266.361 94.117 264.91L104.232 230.115C105.336 226.321 109.48 224.247 113.249 225.761H113.246Z" fill="#E5E5E5"/>
<mask id="mask3_77_2301" style="mask-type:luminance" maskUnits="userSpaceOnUse" x="72" y="225" width="46" height="66">
<path d="M113.246 225.761C116.532 227.081 118.131 230.841 117.146 234.235L106.12 272.16C105.525 274.202 103.737 276.406 101.818 277.935L83.06 289.779C80.0785 291.663 76.6452 290.435 74.4747 287.637C71.9837 284.425 72.2116 280.583 75.5484 278.476L91.4792 268.415C92.7575 267.608 93.6921 266.361 94.117 264.91L104.232 230.115C105.336 226.321 109.48 224.247 113.249 225.761H113.246Z" fill="white"/>
</mask>
<g mask="url(#mask3_77_2301)">
<path d="M117.486 235.539C112.087 236.253 106.576 234.605 102.822 230.528" stroke="#B3B3B3" stroke-width="2.4" stroke-miterlimit="10"/>
<path d="M115.76 243.677C110.361 244.391 104.85 242.743 101.096 238.666" stroke="#B3B3B3" stroke-width="2.4" stroke-miterlimit="10"/>
<path d="M112.674 251.352C107.275 252.066 101.764 250.417 98.0098 246.341" stroke="#B3B3B3" stroke-width="2.4" stroke-miterlimit="10"/>
<path d="M110.805 259.331C105.406 260.045 99.8945 258.397 96.1406 254.32" stroke="#B3B3B3" stroke-width="2.4" stroke-miterlimit="10"/>
<path d="M108.533 267.184C103.134 267.898 97.623 266.25 93.8691 262.173" stroke="#B3B3B3" stroke-width="2.4" stroke-miterlimit="10"/>
<path d="M100.292 279.499C95.4834 276.908 91.9729 272.341 91.3086 266.852" stroke="#B3B3B3" stroke-width="2.4" stroke-miterlimit="10"/>
<path d="M93.7995 284.266C88.9913 281.676 85.4807 277.109 84.8164 271.619" stroke="#B3B3B3" stroke-width="2.4" stroke-miterlimit="10"/>
<path d="M87.1647 288.66C82.3565 286.069 78.8459 281.502 78.1816 276.013" stroke="#B3B3B3" stroke-width="2.4" stroke-miterlimit="10"/>
</g>
<path d="M79.6394 307.028C83.065 311.394 84.6638 316.096 83.3816 321.32C83.1538 322.242 82.196 322.794 81.2846 322.52C80.4658 322.273 79.9676 321.443 80.1414 320.605C80.9563 316.637 79.8672 312.753 77.0364 308.947C76.5188 308.252 76.6579 307.271 77.3337 306.735C78.0443 306.171 79.0794 306.314 79.6432 307.032L79.6394 307.028Z" fill="#BC95BF"/>
<path d="M40.7503 302.224L64.7246 332.352C65.3168 333.096 66.4004 333.22 67.1449 332.628L67.9186 332.013C68.6631 331.421 68.7866 330.338 68.1944 329.593L44.2201 299.466C43.6279 298.721 42.5443 298.598 41.7998 299.19L41.0261 299.805C40.2816 300.397 40.1581 301.48 40.7503 302.224Z" fill="#BC95BF"/>
<path d="M151.739 149.208C129.309 91.6287 34.693 62.2814 13.6141 89.2005C8.45441 95.7903 11.4706 105.685 18.6231 110.105C46.3871 126.323 61.171 150.173 70.0922 178.177L70.9032 181.08C77.1095 203.235 99.934 216.403 122.172 210.655C142.115 205.501 155.315 186.651 153.357 166.124L151.743 149.208" fill="#EEE5F1"/>
<path d="M133.735 128.512L103.723 100.604L22.2961 88.6598C16.4953 88.1618 10.8336 88.1039 5.39588 88.7717C0.251675 89.4048 -1.82609 95.7553 1.88145 99.3996C12.9925 110.317 34.3765 127.156 52.7056 142.236C77.9362 163.715 119.341 156.369 151.735 149.204L133.731 128.512H133.735Z" fill="#EEE5F1"/>
<path d="M151.739 149.208C133.155 89.9919 70.1465 60.5982 37.2807 75.0016C25.6483 80.0974 12.8457 88.1388 5.80523 88.6754C1.19012 89.0267 0.205302 95.3155 4.43035 97.3731C18.1869 104.071 45.893 104.878 57.9386 105.943C90.2058 110.553 144.031 166.727 151.739 149.208Z" fill="#EEE5F1"/>
<path d="M149.503 104.079C163.313 113.305 181.152 121.393 197.79 125.852C201.362 126.809 203.405 130.538 202.212 134.021L202.196 134.067C201.138 137.155 197.898 138.939 194.708 138.19C176.591 133.932 155.945 125.941 141.717 114.637C139.06 112.525 138.523 108.723 140.508 105.978L140.767 105.619C142.779 102.836 146.641 102.168 149.507 104.082L149.503 104.079Z" fill="#BC95BF"/>
<path d="M184.252 165.97C187.821 165.97 190.713 163.078 190.713 159.511C190.713 155.944 187.821 153.053 184.252 153.053C180.684 153.053 177.791 155.944 177.791 159.511C177.791 163.078 180.684 165.97 184.252 165.97Z" fill="#3C63AC"/>
<path d="M269.204 324.704C263.735 324.704 259.296 320.257 259.296 314.796C259.296 314.36 258.936 314 258.5 314C258.064 314 257.704 314.36 257.704 314.796C257.704 320.265 253.257 324.704 247.796 324.704C247.36 324.704 247 325.064 247 325.5C247 325.936 247.36 326.296 247.796 326.296C253.265 326.296 257.704 330.743 257.704 336.204C257.704 336.64 258.064 337 258.5 337C258.936 337 259.296 336.64 259.296 336.204C259.296 330.735 263.743 326.296 269.204 326.296C269.64 326.296 270 325.936 270 325.5C270 325.064 269.64 324.704 269.204 324.704Z" fill="white"/>
</g>
<defs>
<clipPath id="clip0_77_2301">
<rect width="294" height="342" fill="white"/>
</clipPath>
</defs>
</svg>
