<svg width="539" height="488" viewBox="0 0 539 488" fill="none" xmlns="http://www.w3.org/2000/svg">
<path d="M424.22 248.141C421.736 242.859 435.806 239.819 434.246 226.664C433.968 218.522 416.571 194.866 414.58 190.132C412.392 185.003 408.519 173.892 404.699 162.728L404.717 162.907C403.829 160.414 402.851 157.957 401.748 155.563C397.946 146.982 391.122 138.122 387.795 134.212L387.84 134.293C371.843 116.224 348.492 104.827 322.469 104.827C297.917 104.827 275.741 114.978 259.887 131.289L259.914 131.226V42.0294C259.914 20.6696 242.984 2.79794 221.624 2.43926C199.807 2.0716 182.007 19.6563 182.007 41.3838V142.749C182.007 151.295 175.013 158.235 166.467 158.397C149.51 158.711 131.934 152.918 131.764 136.598V115.39L108.055 127.092V136.49C108.055 172.529 144.731 182.276 166.09 182.635C187.908 183.003 205.708 165.418 205.708 143.691V42.3254C205.708 33.7796 212.702 26.5252 221.248 26.6776C229.793 26.83 236.205 33.6003 236.205 41.9218V178.591V178.573C235.523 182.994 235.165 187.513 235.165 192.131C235.165 193.772 235.219 195.404 235.308 197.019C234.833 203.322 237.702 215.518 239.89 220.468C243.567 231.175 249.261 240.94 256.525 249.306C260.264 253.279 265.133 258.318 268.299 260.784C280.234 270.325 294.483 276.423 310.301 278.584C313.744 279.05 316.847 280.916 318.856 283.74C321.994 288.143 331.867 288.529 334.073 286.888C345.246 278.575 359.674 276.746 375.941 278.064C376.667 278.127 377.394 278.172 378.129 278.252C384.675 278.952 400.233 278.315 401.623 274.908C402.591 272.549 403.847 270.648 405.353 269.106C409.702 264.676 415.746 263.277 423.817 263.277C430.56 262.757 426.883 253.79 424.22 248.123V248.141Z" fill="#67A8A0"/>
<path d="M335.849 272.128L320.039 302.58C315.789 310.758 316.157 320.568 320.99 328.406L337.14 354.59C340.108 359.405 338.61 365.718 333.795 368.695C328.791 371.78 322.236 370.229 319.152 365.225L301.406 336.449C293.828 324.164 293.263 308.812 299.917 296.007L317.26 262.613C319.735 257.852 325.599 255.996 330.361 258.471L331.759 259.197C336.458 261.636 338.297 267.429 335.849 272.137V272.128Z" fill="#E5E5E5"/>
<path d="M389.267 246.67L387.697 280.943C387.276 290.143 391.715 298.895 399.4 303.988L425.046 320.981C429.762 324.111 431.054 330.468 427.933 335.185C424.687 340.081 418.087 341.426 413.191 338.18L385.007 319.511C372.982 311.539 366.015 297.837 366.678 283.427L368.4 245.845C368.642 240.483 373.188 236.34 378.551 236.582L380.129 236.654C385.42 236.896 389.518 241.388 389.276 246.679L389.267 246.67Z" fill="#E5E5E5"/>
<path d="M373.501 189.979C362.991 214.702 332.252 223.256 310.479 207.528L301.934 201.35C285.102 189.181 279.731 166.512 289.326 148.093L296.527 134.266C305.781 116.098 311 95.985 310.426 72.8137C310.426 62.7256 318.667 53.4087 328.701 54.5386C345.954 56.4755 361.234 78.0236 369.798 106.737C378.343 139.709 380.711 168.261 373.501 189.97V189.979Z" fill="#D8C2E2"/>
<path d="M440.97 354.285C432.622 348.501 421.17 350.582 415.396 358.93C409.612 367.279 411.692 378.73 420.041 384.505L428.192 390.154L461.559 341.991L442.521 328.8L424.237 355.765L440.979 354.276L440.97 354.285Z" fill="#D8C2E2"/>
<path d="M428.18 390.101L461.543 341.936L464.337 343.871C465.922 344.969 466.318 347.153 465.22 348.738L436.08 390.806C434.849 392.583 432.404 393.027 430.627 391.796L428.18 390.101Z" fill="#9A86C2"/>
<path d="M414.348 373.699C413.308 368.077 414.106 363.01 417.791 358.85C418.446 358.114 419.585 358.069 420.293 358.751C420.93 359.37 420.984 360.365 420.419 361.047C417.764 364.284 416.895 368.355 417.657 373.188C417.8 374.067 417.2 374.901 416.321 375.071C415.397 375.251 414.518 374.623 414.348 373.699Z" fill="#9A86C2"/>
<path d="M337.354 391.275C332.207 382.523 320.944 379.608 312.192 384.756C303.44 389.903 300.526 401.166 305.673 409.918L310.704 418.472L361.198 388.755L349.451 368.794L321.536 385.598L337.354 391.275Z" fill="#D8C2E2"/>
<path d="M310.715 418.382L361.209 388.662L362.933 391.591C363.911 393.252 363.355 395.401 361.693 396.379L317.59 422.337C315.727 423.433 313.321 422.81 312.225 420.948L310.715 418.382Z" fill="#9A86C2"/>
<path d="M304.866 399.901C305.574 394.225 307.861 389.643 312.641 386.782C313.483 386.28 314.586 386.576 315.053 387.446C315.465 388.226 315.223 389.194 314.479 389.678C310.964 391.965 308.91 395.579 308.175 400.412C308.04 401.291 307.215 401.91 306.337 401.802C305.404 401.695 304.758 400.834 304.875 399.901H304.866Z" fill="#9A86C2"/>
<path opacity="0.62" d="M91.9676 183.935C142.76 183.935 183.935 142.76 183.935 91.9676C183.935 41.1753 142.76 0 91.9676 0C41.1753 0 0 41.1753 0 91.9676C0 142.76 41.1753 183.935 91.9676 183.935Z" fill="#FFFAFC"/>
<path d="M152.326 38.0301C142.632 27.0632 130.222 19.0824 116.618 14.6795C114.466 13.989 112.126 14.9216 111.014 16.8854L110.951 16.993C109.436 19.6563 110.79 22.9921 113.704 23.9426C125.666 27.8254 136.57 34.8467 145.089 44.5044C146.739 46.3785 149.564 46.6206 151.555 45.1142L151.653 45.0424C153.877 43.3476 154.173 40.1284 152.326 38.0391V38.0301Z" fill="white"/>
<path d="M45.85 161.553C37.2594 154.756 30.3995 146.515 25.3689 137.422C24.1583 135.243 24.8667 132.491 26.9381 131.101H26.9471C29.3144 129.504 32.5157 130.294 33.8967 132.786C38.3354 140.794 44.3883 148.04 51.9566 154.012C53.9474 155.581 54.3329 158.46 52.8892 160.54C51.2841 162.853 48.0649 163.311 45.85 161.553Z" fill="white"/>
<path d="M76.516 78.6601C71.5213 77.7275 67.7461 73.3515 67.7461 68.0878C67.7461 62.1425 72.5615 57.3271 78.5067 57.3271H134.166C140.111 57.3271 144.927 62.1425 144.927 68.0878C144.927 72.8404 141.851 76.8667 137.583 78.2925" fill="#27464F"/>
<path d="M76.516 78.6601C71.5213 77.7275 67.7461 73.3515 67.7461 68.0878C67.7461 62.1425 72.5615 57.3271 78.5067 57.3271H134.166C140.111 57.3271 144.927 62.1425 144.927 68.0878C144.927 72.8404 141.851 76.8667 137.583 78.2925" stroke="#27464F" stroke-width="0.83" stroke-linecap="round" stroke-linejoin="round"/>
<path d="M98.863 38.2183H117.246C127.791 38.2183 136.355 46.7819 136.355 57.3274H79.7539C79.7539 46.7819 88.3176 38.2183 98.863 38.2183Z" fill="#27464F" stroke="#27464F" stroke-width="0.83" stroke-linecap="round" stroke-linejoin="round"/>
<mask id="mask0_77_4375" style="mask-type:luminance" maskUnits="userSpaceOnUse" x="108" y="2" width="327" height="286">
<path d="M424.22 248.141C421.736 242.859 435.806 239.819 434.246 226.664C433.968 218.522 416.571 194.866 414.58 190.132C412.392 185.003 408.519 173.892 404.699 162.728L404.717 162.907C403.829 160.414 402.851 157.957 401.748 155.563C397.946 146.982 391.122 138.122 387.795 134.212L387.84 134.293C371.843 116.224 348.492 104.827 322.469 104.827C297.917 104.827 275.741 114.978 259.887 131.289L259.914 131.226V42.0294C259.914 20.6696 242.984 2.79794 221.624 2.43926C199.807 2.0716 182.007 19.6563 182.007 41.3838V142.749C182.007 151.295 175.013 158.235 166.467 158.397C149.51 158.711 131.934 152.918 131.764 136.598V115.39L108.055 127.092V136.49C108.055 172.529 144.731 182.276 166.09 182.635C187.908 183.003 205.708 165.418 205.708 143.691V42.3254C205.708 33.7796 212.702 26.5252 221.248 26.6776C229.793 26.83 236.205 33.6003 236.205 41.9218V178.591V178.573C235.523 182.994 235.165 187.513 235.165 192.131C235.165 193.772 235.219 195.404 235.308 197.019C234.833 203.322 237.702 215.518 239.89 220.468C243.567 231.175 249.261 240.94 256.525 249.306C260.264 253.279 265.133 258.318 268.299 260.784C280.234 270.325 294.483 276.423 310.301 278.584C313.744 279.05 316.847 280.916 318.856 283.74C321.994 288.143 331.867 288.529 334.073 286.888C345.246 278.575 359.674 276.746 375.941 278.064C376.667 278.127 377.394 278.172 378.129 278.252C384.675 278.952 400.233 278.315 401.623 274.908C402.591 272.549 403.847 270.648 405.353 269.106C409.702 264.676 415.746 263.277 423.817 263.277C430.56 262.757 426.883 253.79 424.22 248.123V248.141Z" fill="white"/>
</mask>
<g mask="url(#mask0_77_4375)">
<path d="M160.459 153.966L137.979 177.254L166.118 190.911L209.088 166.243L235.3 160.602L259.61 141.968L265.609 110.924L258.354 21.6554L230.439 -4.23291L187.298 9.02959L176.107 54.843L160.459 153.966Z" fill="#F2E5F3"/>
<path d="M259.906 131.244L221.213 181.451L253.764 265.438L343.525 310.588L429.629 273.84L452.181 222.924L381.842 102.62L290.816 91.9673L259.906 131.244Z" fill="#D8C2E2"/>
<path d="M318.855 283.767L287.416 231.954C278.073 216.764 263.07 205.923 245.728 201.807L234.429 199.125C233.909 243.468 271.293 282.126 318.855 283.758V283.767Z" fill="#E5E5E5"/>
<mask id="mask1_77_4375" style="mask-type:luminance" maskUnits="userSpaceOnUse" x="234" y="199" width="85" height="85">
<path d="M318.855 283.767L287.416 231.954C278.073 216.764 263.07 205.923 245.728 201.807L234.429 199.125C233.909 243.468 271.293 282.126 318.855 283.758V283.767Z" fill="white"/>
</mask>
<g mask="url(#mask1_77_4375)">
<path d="M299.531 250.355C280.43 253.216 261.384 253.933 250.65 247.028" stroke="#B2B2B2" stroke-width="0.99" stroke-miterlimit="10"/>
<path d="M294.123 240.724C275.023 243.585 253.484 244.688 242.75 237.783" stroke="#B2B2B2" stroke-width="0.99" stroke-miterlimit="10"/>
<path d="M287.658 231.075C268.557 233.936 249.314 235.837 238.58 228.923" stroke="#B2B2B2" stroke-width="0.99" stroke-miterlimit="10"/>
<path d="M280.421 221.615C264.101 224.054 246.678 224.718 235.971 220.602" stroke="#B2B2B2" stroke-width="0.99" stroke-miterlimit="10"/>
<path d="M269.284 211.832C257.806 213.383 243.853 213.948 234.725 212.11" stroke="#B2B2B2" stroke-width="0.99" stroke-miterlimit="10"/>
<path d="M304.885 259.125C296.124 260.434 275.831 262.515 263.537 259.493" stroke="#B2B2B2" stroke-width="0.99" stroke-miterlimit="10"/>
<path d="M310.129 268.083C301.368 269.393 281.075 271.473 268.781 268.451" stroke="#B2B2B2" stroke-width="0.99" stroke-miterlimit="10"/>
<path d="M315.994 275.652C307.233 276.961 286.941 279.041 274.646 276.019" stroke="#B2B2B2" stroke-width="0.99" stroke-miterlimit="10"/>
</g>
</g>
<path d="M319.772 365.904L337.995 355.179C342.407 352.582 348.091 354.054 350.689 358.467C353.395 363.065 351.859 368.994 347.261 371.701L329.726 382.021C325.128 384.728 319.199 383.192 316.492 378.594C313.895 374.181 315.367 368.497 319.78 365.9L319.772 365.904Z" fill="#B2B2B2"/>
<mask id="mask2_77_4375" style="mask-type:luminance" maskUnits="userSpaceOnUse" x="295" y="257" width="44" height="114">
<path d="M335.849 272.128L320.039 302.58C315.789 310.758 316.157 320.568 320.99 328.406L337.14 354.59C340.108 359.405 338.61 365.718 333.795 368.695C328.791 371.78 322.236 370.229 319.152 365.225L301.406 336.449C293.828 324.164 293.263 308.812 299.917 296.007L317.26 262.613C319.735 257.852 325.599 255.996 330.361 258.471L331.759 259.197C336.458 261.636 338.297 267.429 335.849 272.137V272.128Z" fill="white"/>
</mask>
<g mask="url(#mask2_77_4375)">
<path d="M335.912 348.851C330.003 356.312 322.049 361.235 312.418 360.652" stroke="#B2B2B2" stroke-width="0.99" stroke-miterlimit="10"/>
<path d="M327.717 336.835C321.807 344.296 313.853 349.219 304.223 348.636" stroke="#B2B2B2" stroke-width="0.99" stroke-miterlimit="10"/>
<path d="M321.807 322.873C315.897 330.334 307.943 335.257 298.312 334.674" stroke="#B2B2B2" stroke-width="0.99" stroke-miterlimit="10"/>
<path d="M317.977 315.296C309.136 318.811 299.792 319.116 291.73 313.816" stroke="#B2B2B2" stroke-width="0.99" stroke-miterlimit="10"/>
<path d="M321.044 304.32C311.521 304.329 302.733 301.173 297.191 293.272" stroke="#B2B2B2" stroke-width="0.99" stroke-miterlimit="10"/>
<path d="M327.107 292.187C317.583 292.196 308.796 289.04 303.254 281.14" stroke="#B2B2B2" stroke-width="0.99" stroke-miterlimit="10"/>
<path d="M333.553 279.221C324.03 279.23 313.126 276.261 307.584 268.361" stroke="#B2B2B2" stroke-width="0.99" stroke-miterlimit="10"/>
</g>
<path d="M414.036 338.587L426.077 321.205C428.992 316.996 434.769 315.947 438.978 318.863C443.364 321.901 444.459 327.928 441.42 332.314L429.835 349.039C426.796 353.425 420.77 354.52 416.384 351.481C412.175 348.566 411.126 342.789 414.041 338.58L414.036 338.587Z" fill="#B2B2B2"/>
<mask id="mask3_77_4375" style="mask-type:luminance" maskUnits="userSpaceOnUse" x="366" y="236" width="64" height="104">
<path d="M389.267 246.67L387.697 280.943C387.276 290.143 391.715 298.895 399.4 303.988L425.046 320.981C429.762 324.111 431.054 330.468 427.933 335.185C424.687 340.081 418.087 341.426 413.191 338.18L385.007 319.511C372.982 311.539 366.015 297.837 366.678 283.427L368.4 245.845C368.642 240.483 373.188 236.34 378.551 236.582L380.129 236.654C385.42 236.896 389.518 241.388 389.276 246.679L389.267 246.67Z" fill="white"/>
</mask>
<g mask="url(#mask3_77_4375)">
<path d="M420.805 318.694C417.765 327.715 411.946 335.033 402.691 337.75" stroke="#B2B2B2" stroke-width="0.99" stroke-miterlimit="10"/>
<path d="M409.03 310.158C405.99 319.179 400.17 326.496 390.916 329.213" stroke="#B2B2B2" stroke-width="0.99" stroke-miterlimit="10"/>
<path d="M398.745 299.012C395.705 308.033 389.885 315.35 380.631 318.067" stroke="#B2B2B2" stroke-width="0.99" stroke-miterlimit="10"/>
<path d="M392.584 293.183C385.446 299.487 376.766 302.93 367.377 300.671" stroke="#B2B2B2" stroke-width="0.99" stroke-miterlimit="10"/>
<path d="M391.751 281.812C382.792 285.041 373.449 285.041 365.566 279.481" stroke="#B2B2B2" stroke-width="0.99" stroke-miterlimit="10"/>
<path d="M393.356 268.344C384.398 271.572 375.054 271.572 367.172 266.012" stroke="#B2B2B2" stroke-width="0.99" stroke-miterlimit="10"/>
<path d="M395.041 253.96C386.083 257.188 374.82 258.085 366.938 252.525" stroke="#B2B2B2" stroke-width="0.99" stroke-miterlimit="10"/>
</g>
<path d="M120.044 66.9761H92.6219C82.717 66.9761 74.6875 75.0056 74.6875 84.9105V112.332C74.6875 122.237 82.717 130.267 92.6219 130.267H120.044C129.949 130.267 137.978 122.237 137.978 112.332V84.9105C137.978 75.0056 129.949 66.9761 120.044 66.9761Z" fill="#67A8A0"/>
<path d="M93.1338 88.5691C94.8721 88.5691 96.2813 86.8387 96.2813 84.7042C96.2813 82.5697 94.8721 80.8394 93.1338 80.8394C91.3955 80.8394 89.9863 82.5697 89.9863 84.7042C89.9863 86.8387 91.3955 88.5691 93.1338 88.5691Z" fill="#27464F"/>
<path d="M106.61 88.5691C108.349 88.5691 109.758 86.8387 109.758 84.7042C109.758 82.5697 108.349 80.8394 106.61 80.8394C104.872 80.8394 103.463 82.5697 103.463 84.7042C103.463 86.8387 104.872 88.5691 106.61 88.5691Z" fill="#27464F"/>
<path d="M101.599 107.418C80.6065 111.095 59.9641 113.211 39.6982 113.642C29.7087 113.857 19.809 113.659 10.0078 113.041C10.0078 95.6713 64.7435 93.6806 74.9662 93.5012L88.1211 93.2681C95.5638 93.2681 101.59 99.6079 101.59 107.418C101.59 115.229 95.6356 120.842 88.1211 121.569C67.8642 122.196 55.3997 120.824 39.1063 113.65" fill="#F2C666"/>
<path d="M46.001 113.327C51.8655 117.255 59.2276 115.811 61.7833 107.292C61.9626 106.7 61.317 106.216 60.7969 106.548C56.5195 109.256 51.5876 111.005 46.2252 112.135C45.6513 112.251 45.5078 113.004 46.001 113.327Z" fill="white"/>
<path d="M119.632 73.6509L108.55 70.6979C107.305 70.3664 106.028 71.1063 105.697 72.3505L105.445 73.295C105.113 74.5392 105.853 75.8166 107.097 76.1482L118.18 79.1011C119.424 79.4326 120.702 78.6927 121.033 77.4485L121.285 76.504C121.616 75.2598 120.876 73.9824 119.632 73.6509Z" fill="#27464F"/>
<path d="M78.4265 79.1035L89.5089 76.1506C90.7531 75.819 91.493 74.5416 91.1614 73.2974L90.9098 72.3529C90.5782 71.1087 89.3009 70.3688 88.0566 70.7004L76.9742 73.6533C75.73 73.9848 74.9901 75.2622 75.3217 76.5065L75.5733 77.4509C75.9048 78.6951 77.1822 79.435 78.4265 79.1035Z" fill="#27464F"/>
<path d="M230.439 160.835C230.439 164.485 233.99 167.095 237.47 165.992C258.032 159.464 269.976 140.094 270.917 126.213C271.204 122.025 266.855 119.102 263.098 120.994L262.3 121.398C260.82 122.142 259.78 123.523 259.448 125.137C256.391 139.816 247.621 149.887 233.775 155.868C231.776 156.728 230.448 158.665 230.448 160.853L230.439 160.835Z" fill="#CC91C5"/>
<path d="M120.411 180.241C119.819 183.837 122.895 186.993 126.509 186.464C147.851 183.361 162.781 166.189 165.965 152.64C166.924 148.551 163.104 144.964 159.105 146.219L158.253 146.488C156.675 146.982 155.419 148.174 154.827 149.717C149.429 163.705 139.144 172.215 124.5 175.865C122.384 176.394 120.761 178.089 120.411 180.241Z" fill="#CC91C5"/>
<path d="M416.962 216.572L405.054 204.664C404.62 204.23 403.916 204.23 403.481 204.664L393.926 214.22C393.492 214.654 393.492 215.358 393.926 215.792L405.834 227.7C406.268 228.134 406.972 228.134 407.406 227.7L416.962 218.145C417.396 217.71 417.396 217.006 416.962 216.572Z" fill="#F1E6F4"/>
<path d="M250.767 186.168C254.442 186.168 257.421 183.189 257.421 179.514C257.421 175.84 254.442 172.861 250.767 172.861C247.092 172.861 244.113 175.84 244.113 179.514C244.113 183.189 247.092 186.168 250.767 186.168Z" fill="#2E64B0"/>
<path d="M270.711 177.559C273.41 177.559 275.598 175.371 275.598 172.672C275.598 169.973 273.41 167.785 270.711 167.785C268.012 167.785 265.824 169.973 265.824 172.672C265.824 175.371 268.012 177.559 270.711 177.559Z" fill="#9A86C2"/>
<path d="M463.362 207.904C462.214 217.983 486.407 219.571 501.365 228.493C501.679 228.681 502.028 228.305 501.813 228.009C491.384 213.742 484.991 191.351 472.105 193.243" fill="#FF525D"/>
<path d="M463.362 207.904C462.214 217.983 486.407 219.571 501.365 228.493C501.679 228.681 502.028 228.305 501.813 228.009C491.384 213.742 484.991 191.351 472.105 193.243" stroke="#FF525D" stroke-width="0.99" stroke-miterlimit="10"/>
<path d="M465.46 203.977C464.967 208.335 475.432 209.026 481.906 212.881C482.041 212.962 482.193 212.801 482.094 212.666C477.584 206.488 474.813 196.803 469.244 197.619" fill="#FFCD57"/>
<path d="M465.46 203.977C464.967 208.335 475.432 209.026 481.906 212.881C482.041 212.962 482.193 212.801 482.094 212.666C477.584 206.488 474.813 196.803 469.244 197.619" stroke="#FFCD57" stroke-width="0.99" stroke-miterlimit="10"/>
<path d="M459.875 184.922L449.159 203.466C445.984 208.963 438.461 210.55 432.354 207.026L310.364 137.969C298.429 131.208 293.721 116.977 299.9 106.288C305.989 95.7518 320.381 92.6312 332.155 99.2939L454.566 168.592C460.673 172.116 463.049 179.434 459.875 184.931V184.922Z" fill="white"/>
<path d="M450.798 203.762L458.134 211.518C459.129 212.576 460.869 212.388 461.613 211.133L472.58 192.723C473.261 191.584 472.777 190.096 471.548 189.585L461.783 185.451C460.761 185.02 459.586 185.415 459.03 186.374L450.484 201.161C450 202.004 450.126 203.062 450.789 203.762H450.798Z" fill="#989898"/>
<path d="M381.868 210.003C361.62 227.65 330.226 221.92 317.51 198.256L312.515 188.966C302.687 170.673 307.763 147.932 324.442 135.557L336.96 126.267C353.226 113.973 366.704 98.155 376.308 77.0641C380.72 67.9893 392.198 63.2098 400.726 68.608C415.396 77.8891 419.727 103.948 414.885 133.522C408.169 166.915 397.82 193.629 381.859 210.012L381.868 210.003Z" fill="#F2E5F3"/>
<path d="M403.546 210.102C403.151 210.451 402.909 210.945 402.873 211.474V211.671C403.474 212.46 403.833 213.357 403.985 214.334C403.591 213.608 403.196 213.025 402.793 212.783L402.694 214.433C403.304 215.222 403.653 216.11 403.806 217.078C403.438 216.343 403.053 215.823 402.631 215.464L402.524 217.195C402.488 217.822 402.694 218.441 403.115 218.907L405.474 221.58L405.366 223.31C405.339 223.732 405.483 224.153 405.761 224.476L405.832 224.557L406.64 211.68C406.711 210.478 406.308 209.286 405.51 208.38L403.564 210.102H403.546Z" fill="#D8C2E2"/>
<path d="M408.101 216.298L408.326 212.747C408.371 212.047 408.137 211.366 407.671 210.846L406.667 209.707C406.819 210.012 406.945 210.326 406.981 210.622C407.034 211.187 407.043 211.752 407.007 212.325L406.631 218.414L407.752 217.159C407.958 216.926 408.084 216.621 408.101 216.307V216.298Z" fill="#D8C2E2"/>
<path d="M406.586 219.086L406.406 221.947L407.276 221.203C407.626 220.907 407.841 220.476 407.868 220.019L408.038 217.266C407.993 217.419 407.94 217.526 407.859 217.643L406.577 219.078L406.586 219.086Z" fill="#D8C2E2"/>
</svg>
