<svg width="1513" height="1074" viewBox="0 0 1513 1074" fill="none" xmlns="http://www.w3.org/2000/svg">
<g clip-path="url(#clip0_23_208)">
<path d="M1514 982H-58V1407H1514V982Z" fill="#3E1996"/>
<path d="M1513 2H1V984H1513V2Z" fill="url(#paint0_linear_23_208)"/>
<path opacity="0.6" d="M761.5 1138C1236.19 1138 1621 1031.89 1621 901C1621 770.109 1236.19 664 761.5 664C286.811 664 -98 770.109 -98 901C-98 1031.89 286.811 1138 761.5 1138Z" fill="url(#paint1_radial_23_208)"/>
<path opacity="0.03" d="M620.5 998C724 888 811.58 798.41 811.58 798.41C837.95 772.04 852.76 736.28 852.76 698.99C852.76 674.81 862.37 651.62 879.46 634.52L1070.9 443.08C1113.13 400.85 1136.85 343.58 1136.85 283.86V224.52C1136.85 184.72 1152.66 146.54 1180.81 118.4L1297.33 1.88H-74.12L-121.5 1312.5H-45C-45 1312.5 517 1108 620.5 998Z" fill="white"/>
<path opacity="0.03" d="M-242.98 1275.39L287.02 851.47C315.29 823.2 331.17 784.87 331.17 744.89C331.17 718.97 341.47 694.11 359.79 675.79L565 470.58C610.26 425.32 635.69 363.92 635.69 299.91V236.3C635.69 193.63 652.64 152.71 682.81 122.54L851.35 -46H-221.69L-242.98 1275.39Z" fill="white"/>
<path opacity="0.03" d="M210.99 1.89L135.91 76.97C113.98 98.9 101.65 128.65 101.65 159.67C101.65 200.53 85.42 239.71 56.53 268.6L-58.39 383.52V1.89H210.99Z" fill="white"/>
<path opacity="0.03" d="M178.64 519.94L178.82 519.89C180.87 540.74 194.34 559.69 215.22 567.73C230.85 573.75 247.49 572.46 261.38 565.52L261.41 565.76C274.19 560.06 289.16 559.3 303.23 564.84C330.57 575.61 344.35 606.65 334 634.15C333.18 636.32 332.24 638.41 331.18 640.41C326.52 649.24 328.12 659.98 335.11 667.11C353.46 685.83 360.18 714.32 349.87 740.34C335.93 775.49 295.64 792.73 260.58 778.59C242.67 771.37 229.45 757.39 222.72 740.75L222.59 740.93C219.46 733.23 213.28 726.78 204.91 723.56C196.34 720.26 187.22 721 179.63 724.84L179.59 724.78C167.07 730.18 152.51 730.87 138.78 725.58C123.69 719.77 112.71 707.92 107.51 693.86C104.86 686.7 97.97 681.98 90.33 682.21C83.71 682.41 76.94 681.39 70.35 679.01C41.94 668.74 27.51 637.62 38.06 609.32C42.39 597.7 50.28 588.46 60.02 582.37C72.87 574.33 78.36 558.42 73.7 544C69.9 532.26 70.08 519.16 75.16 506.79C86.35 479.61 117.61 466.33 144.96 477.12C163.71 484.51 176.03 501.26 178.65 519.93L178.64 519.94Z" fill="white"/>
<path opacity="0.03" d="M1378.82 638.304L1378.97 638.404C1364.3 653.364 1358.42 675.854 1365.65 697.024C1371.07 712.874 1382.74 724.804 1396.98 731.004L1396.81 731.184C1409.38 737.324 1419.58 748.314 1424.36 762.654C1433.65 790.524 1418.7 821.024 1390.97 830.734C1388.78 831.504 1386.57 832.124 1384.36 832.594C1374.6 834.684 1367.39 842.814 1366.41 852.744C1363.83 878.834 1346.31 902.274 1319.74 911.064C1283.84 922.944 1244.76 903.124 1233.09 867.154C1227.13 848.794 1229.36 829.684 1237.8 813.834H1237.57C1241.47 806.504 1242.44 797.624 1239.54 789.144C1236.57 780.454 1230.15 773.934 1222.33 770.574L1222.35 770.514C1210.17 764.374 1200.3 753.654 1195.54 739.734C1190.31 724.434 1192.34 708.404 1199.79 695.394C1203.58 688.764 1202.78 680.444 1197.7 674.744C1193.29 669.794 1189.73 663.954 1187.33 657.374C1176.97 628.994 1191.56 597.954 1220.04 587.874C1231.73 583.734 1243.88 583.854 1254.8 587.414C1269.21 592.114 1284.94 586.104 1293 573.264C1299.56 562.814 1309.72 554.534 1322.47 550.504C1350.5 541.634 1380.75 557.084 1390.03 584.974C1396.4 604.094 1391.47 624.294 1378.84 638.294L1378.82 638.304Z" fill="white"/>
<g opacity="0.02">
<path d="M-331 654.47C-331 608.78 -256.19 549.51 -210.32 549.51C-164.45 549.51 -118.23 586.86 -118.23 632.55C-118.23 648.69 -124.19 662.66 -133.92 673.99C-155.22 693.41 -193.2 735.48 -177.32 762.17C-118.23 861.48 -50.83 744.62 35.93 751.79C94.62 756.65 291.9 815.78 338.84 672.7L338.72 672.66C352.64 634.55 389.34 607.32 432.42 607.32C450.48 607.32 467.42 612.11 482.03 620.47C516.91 640.45 535.69 679.93 530.33 719.64L528.16 735.7C522.64 776.58 541.97 817.22 577.87 837.78C592.91 846.39 610.35 851.32 628.94 851.32C685.6 851.32 731.53 805.57 731.53 749.14C731.53 692.71 792.92 658.29 844.5 661.23C897.67 664.25 937.15 677.9 953.99 725.63C953.99 725.63 953.92 725.11 954.3 727.42C962.55 777.49 1000.99 817.73 1052.83 817.73C1107.43 817.73 1151.7 773.65 1151.7 719.26C1151.7 649.43 1105.98 641.05 1105.48 602.16C1105.48 580.58 1123.04 563.09 1144.7 563.09C1167.33 564.15 1191.88 565.37 1208.61 565.96C1212.42 565.96 1216.14 565.52 1219.7 564.69C1241.19 559.69 1257.19 540.5 1257.19 517.57C1257.19 490.85 1235.44 469.19 1208.61 469.19V469.04C1150.78 469.04 1103.84 422.64 1103.25 365.18C1102.66 307.18 1150.16 259.27 1208.4 259.16C1218.95 259.14 1229.13 260.66 1238.74 263.52C1288.5 276.78 1307.98 312.19 1343.95 313.42C1369.43 313.42 1390.09 292.84 1390.09 267.46C1390.09 261.75 1389.04 256.28 1387.13 251.24C1378.85 229.39 1354.4 218.22 1332.03 225.25L1315.51 230.44C1311.41 231.42 1307.14 231.94 1302.74 231.94C1272.69 231.94 1246.65 180.78 1238.59 161.65C1217.25 123.12 1176.07 97.02 1128.77 97.02C1059.55 97.02 1003.44 152.91 1003.44 221.85C1003.44 249.53 1012.49 275.11 1027.8 295.81L1027.14 296.3C1033.5 304.48 1037.28 314.75 1037.28 325.9C1037.28 352.64 1015.51 374.32 988.67 374.32C973.34 374.32 959.66 367.25 950.75 356.21L950.41 356.48C922.8 324.15 881.65 303.64 835.69 303.64C752.55 303.64 685.14 370.77 685.14 453.58L684.86 447.84C684.86 512.48 632.24 564.89 567.34 564.89C502.44 564.89 449.82 512.49 449.82 447.84V432.66C449.82 380.01 406.96 337.33 354.1 337.33L349.27 337.54C346.52 337.66 343.76 337.8 341.02 338.07C337.55 338.41 334.02 338.59 330.45 338.59C283.94 338.59 244.51 308.76 230.85 267.49C220.9 246.01 199.09 231.1 173.78 231.1C139.09 231.1 110.97 259.11 110.97 293.66C110.97 326.13 135.81 352.82 167.59 355.92C211.06 361.39 244.64 398.65 244.64 443.42C244.64 463.29 238.02 481.63 226.85 496.35L236.59 480.14C196.48 558.87 147.71 590.79 76.7 619.68C62.79 625.88 47.37 629.33 31.15 629.33C-30.52 629.33 -80.51 579.54 -80.51 518.12C-80.51 494.16 -71.88 472.42 -58.94 454.26C-53.83 446.67 -50.85 437.54 -50.85 427.72C-50.85 401.37 -72.3 380 -98.76 380C-105.4 379.87 -112.17 381.52 -119.03 384.48C-166.25 402.76 -182.31 468.8 -207.36 486.21C-207.46 486.29 -207.56 486.37 -207.66 486.45C-222.98 498.41 -244.1 499.67 -260.99 490.05C-285.83 475.9 -329.54 446.62 -331.01 414.33" fill="white"/>
<mask id="mask0_23_208" style="mask-type:luminance" maskUnits="userSpaceOnUse" x="-332" y="97" width="1723" height="755">
<path d="M-331 654.47C-331 608.78 -256.19 549.51 -210.32 549.51C-164.45 549.51 -118.23 586.86 -118.23 632.55C-118.23 648.69 -124.19 662.66 -133.92 673.99C-155.22 693.41 -193.2 735.48 -177.32 762.17C-118.23 861.48 -50.83 744.62 35.93 751.79C94.62 756.65 291.9 815.78 338.84 672.7L338.72 672.66C352.64 634.55 389.34 607.32 432.42 607.32C450.48 607.32 467.42 612.11 482.03 620.47C516.91 640.45 535.69 679.93 530.33 719.64L528.16 735.7C522.64 776.58 541.97 817.22 577.87 837.78C592.91 846.39 610.35 851.32 628.94 851.32C685.6 851.32 731.53 805.57 731.53 749.14C731.53 692.71 792.92 658.29 844.5 661.23C897.67 664.25 937.15 677.9 953.99 725.63C953.99 725.63 953.92 725.11 954.3 727.42C962.55 777.49 1000.99 817.73 1052.83 817.73C1107.43 817.73 1151.7 773.65 1151.7 719.26C1151.7 649.43 1105.98 641.05 1105.48 602.16C1105.48 580.58 1123.04 563.09 1144.7 563.09C1167.33 564.15 1191.88 565.37 1208.61 565.96C1212.42 565.96 1216.14 565.52 1219.7 564.69C1241.19 559.69 1257.19 540.5 1257.19 517.57C1257.19 490.85 1235.44 469.19 1208.61 469.19V469.04C1150.78 469.04 1103.84 422.64 1103.25 365.18C1102.66 307.18 1150.16 259.27 1208.4 259.16C1218.95 259.14 1229.13 260.66 1238.74 263.52C1288.5 276.78 1307.98 312.19 1343.95 313.42C1369.43 313.42 1390.09 292.84 1390.09 267.46C1390.09 261.75 1389.04 256.28 1387.13 251.24C1378.85 229.39 1354.4 218.22 1332.03 225.25L1315.51 230.44C1311.41 231.42 1307.14 231.94 1302.74 231.94C1272.69 231.94 1246.65 180.78 1238.59 161.65C1217.25 123.12 1176.07 97.02 1128.77 97.02C1059.55 97.02 1003.44 152.91 1003.44 221.85C1003.44 249.53 1012.49 275.11 1027.8 295.81L1027.14 296.3C1033.5 304.48 1037.28 314.75 1037.28 325.9C1037.28 352.64 1015.51 374.32 988.67 374.32C973.34 374.32 959.66 367.25 950.75 356.21L950.41 356.48C922.8 324.15 881.65 303.64 835.69 303.64C752.55 303.64 685.14 370.77 685.14 453.58L684.86 447.84C684.86 512.48 632.24 564.89 567.34 564.89C502.44 564.89 449.82 512.49 449.82 447.84V432.66C449.82 380.01 406.96 337.33 354.1 337.33L349.27 337.54C346.52 337.66 343.76 337.8 341.02 338.07C337.55 338.41 334.02 338.59 330.45 338.59C283.94 338.59 244.51 308.76 230.85 267.49C220.9 246.01 199.09 231.1 173.78 231.1C139.09 231.1 110.97 259.11 110.97 293.66C110.97 326.13 135.81 352.82 167.59 355.92C211.06 361.39 244.64 398.65 244.64 443.42C244.64 463.29 238.02 481.63 226.85 496.35L236.59 480.14C196.48 558.87 147.71 590.79 76.7 619.68C62.79 625.88 47.37 629.33 31.15 629.33C-30.52 629.33 -80.51 579.54 -80.51 518.12C-80.51 494.16 -71.88 472.42 -58.94 454.26C-53.83 446.67 -50.85 437.54 -50.85 427.72C-50.85 401.37 -72.3 380 -98.76 380C-105.4 379.87 -112.17 381.52 -119.03 384.48C-166.25 402.76 -182.31 468.8 -207.36 486.21C-207.46 486.29 -207.56 486.37 -207.66 486.45C-222.98 498.41 -244.1 499.67 -260.99 490.05C-285.83 475.9 -329.54 446.62 -331.01 414.33" fill="white"/>
</mask>
<g mask="url(#mask0_23_208)">
<path d="M151.1 461C151.1 461 149.3 334.81 226.16 318.69C303.02 302.57 347.45 387.93 347.45 387.93C487.49 414.85 478.24 512.71 495.15 549.46C495.39 549.98 496.17 549.84 496.25 549.27L524.21 354.48L296.29 312.84L213.56 224.76C213.56 224.76 86.25 226.27 103.82 328.39C121.39 430.51 151.09 461 151.09 461H151.1Z" fill="white"/>
<path d="M116.41 162.83L240.08 270.67C186.16 222.16 98.18 290.78 130.1 380.65L63.37 263.56L116.41 162.83Z" fill="white"/>
<path d="M352.62 647.09C265.52 758.33 133.63 768.14 25.87 751.49L299.72 801.22L354.74 713.69L352.62 647.09Z" fill="white"/>
<path d="M1069.6 97.04C1189.98 101.28 1168.76 166.92 1249.63 227.81C1330.5 288.7 1377.23 219.96 1377.23 219.96L1145.61 53.74C1145.61 53.74 949.22 92.8 1069.6 97.04Z" fill="white"/>
</g>
</g>
<path d="M251.83 218.5C254.851 218.5 257.3 216.051 257.3 213.03C257.3 210.009 254.851 207.56 251.83 207.56C248.809 207.56 246.36 210.009 246.36 213.03C246.36 216.051 248.809 218.5 251.83 218.5Z" fill="#992E6E"/>
<path d="M175.98 138.42L247.86 216.78L255.53 209.11L175.98 138.42Z" fill="#992E6E"/>
<path d="M194.59 330.62C188.06 330.62 182.76 325.31 182.76 318.79C182.76 318.27 182.33 317.84 181.81 317.84C181.29 317.84 180.86 318.27 180.86 318.79C180.86 325.32 175.55 330.62 169.03 330.62C168.51 330.62 168.08 331.05 168.08 331.57C168.08 332.09 168.51 332.52 169.03 332.52C175.56 332.52 180.86 337.83 180.86 344.35C180.86 344.87 181.29 345.3 181.81 345.3C182.33 345.3 182.76 344.87 182.76 344.35C182.76 337.82 188.07 332.52 194.59 332.52C195.11 332.52 195.54 332.09 195.54 331.57C195.54 331.05 195.11 330.62 194.59 330.62Z" fill="white"/>
<path d="M280.84 408.38C277.21 408.38 274.25 405.42 274.25 401.79C274.25 401.5 274.01 401.26 273.72 401.26C273.43 401.26 273.19 401.5 273.19 401.79C273.19 405.42 270.23 408.38 266.6 408.38C266.31 408.38 266.07 408.62 266.07 408.91C266.07 409.2 266.31 409.44 266.6 409.44C270.23 409.44 273.19 412.4 273.19 416.03C273.19 416.32 273.43 416.56 273.72 416.56C274.01 416.56 274.25 416.32 274.25 416.03C274.25 412.4 277.21 409.44 280.84 409.44C281.13 409.44 281.37 409.2 281.37 408.91C281.37 408.62 281.13 408.38 280.84 408.38Z" fill="#FF7D8D"/>
<path d="M335.57 187.03C331.61 187.03 328.38 183.81 328.38 179.84C328.38 179.52 328.12 179.26 327.8 179.26C327.48 179.26 327.22 179.52 327.22 179.84C327.22 183.8 324 187.03 320.03 187.03C319.71 187.03 319.45 187.29 319.45 187.61C319.45 187.93 319.71 188.19 320.03 188.19C323.99 188.19 327.22 191.41 327.22 195.38C327.22 195.7 327.48 195.96 327.8 195.96C328.12 195.96 328.38 195.7 328.38 195.38C328.38 191.42 331.6 188.19 335.57 188.19C335.89 188.19 336.15 187.93 336.15 187.61C336.15 187.29 335.89 187.03 335.57 187.03Z" fill="#F2C666"/>
<path d="M102.63 560.09C98.67 560.09 95.44 556.87 95.44 552.9C95.44 552.58 95.18 552.32 94.86 552.32C94.54 552.32 94.28 552.58 94.28 552.9C94.28 556.86 91.06 560.09 87.09 560.09C86.77 560.09 86.51 560.35 86.51 560.67C86.51 560.99 86.77 561.25 87.09 561.25C91.05 561.25 94.28 564.47 94.28 568.44C94.28 568.76 94.54 569.02 94.86 569.02C95.18 569.02 95.44 568.76 95.44 568.44C95.44 564.48 98.66 561.25 102.63 561.25C102.95 561.25 103.21 560.99 103.21 560.67C103.21 560.35 102.95 560.09 102.63 560.09Z" fill="#F2C666"/>
<path d="M951.86 247.75C947.9 247.75 944.67 244.53 944.67 240.56C944.67 240.24 944.41 239.98 944.09 239.98C943.77 239.98 943.51 240.24 943.51 240.56C943.51 244.52 940.29 247.75 936.32 247.75C936 247.75 935.74 248.01 935.74 248.33C935.74 248.65 936 248.91 936.32 248.91C940.28 248.91 943.51 252.13 943.51 256.1C943.51 256.42 943.77 256.68 944.09 256.68C944.41 256.68 944.67 256.42 944.67 256.1C944.67 252.14 947.89 248.91 951.86 248.91C952.18 248.91 952.44 248.65 952.44 248.33C952.44 248.01 952.18 247.75 951.86 247.75Z" fill="#F2C666"/>
<path d="M14.23 248.33C16.997 248.33 19.24 246.087 19.24 243.32C19.24 240.553 16.997 238.31 14.23 238.31C11.4631 238.31 9.22 240.553 9.22 243.32C9.22 246.087 11.4631 248.33 14.23 248.33Z" fill="white"/>
<path d="M443.91 237.38C446.677 237.38 448.92 235.137 448.92 232.37C448.92 229.603 446.677 227.36 443.91 227.36C441.143 227.36 438.9 229.603 438.9 232.37C438.9 235.137 441.143 237.38 443.91 237.38Z" fill="white"/>
<path d="M396.66 495.5C398.101 495.5 399.27 494.331 399.27 492.89C399.27 491.449 398.101 490.28 396.66 490.28C395.219 490.28 394.05 491.449 394.05 492.89C394.05 494.331 395.219 495.5 396.66 495.5Z" fill="white"/>
<path d="M48.16 751.22C49.6015 751.22 50.77 750.051 50.77 748.61C50.77 747.169 49.6015 746 48.16 746C46.7185 746 45.55 747.169 45.55 748.61C45.55 750.051 46.7185 751.22 48.16 751.22Z" fill="#9888BF"/>
<path d="M199.28 462.27C200.721 462.27 201.89 461.101 201.89 459.66C201.89 458.219 200.721 457.05 199.28 457.05C197.839 457.05 196.67 458.219 196.67 459.66C196.67 461.101 197.839 462.27 199.28 462.27Z" fill="#9888BF"/>
<path d="M-1.10001 546.87C0.341457 546.87 1.51001 545.701 1.51001 544.26C1.51001 542.819 0.341457 541.65 -1.10001 541.65C-2.54147 541.65 -3.70999 542.819 -3.70999 544.26C-3.70999 545.701 -2.54147 546.87 -1.10001 546.87Z" fill="white"/>
<path d="M1215.13 218.04C1217.9 218.04 1220.14 215.797 1220.14 213.03C1220.14 210.263 1217.9 208.02 1215.13 208.02C1212.36 208.02 1210.12 210.263 1210.12 213.03C1210.12 215.797 1212.36 218.04 1215.13 218.04Z" fill="white"/>
<path d="M9.13998 388.4L4.95999 357.77L36.74 336.12L60.26 359.03L73.95 398.43L114.94 418.28L128.24 456.57L153.31 468.71L134.3 507.94L111.55 515.85L88.48 504.67L81.79 518.47L49.42 502.8L33.5 456.99L14.29 463.66L0.149994 422.99L9.13998 388.4Z" fill="#1C1835"/>
<path d="M4.95999 357.77L38.19 318.25L72.35 349.56L86.61 390.61L125.13 409.27L138.9 448.91L153.41 455.93L153.31 468.71L128.24 456.57L114.94 418.28L73.95 398.43L60.26 359.03L36.74 336.12L4.95999 357.77Z" fill="#2A1B47"/>
<path d="M38.19 318.25L51.15 313.75L82.52 342.77L97.14 384.85L134.44 402.91L148.38 443.03L153.41 455.93L138.9 448.91L125.13 409.27L86.61 390.61L72.35 349.56L38.19 318.25Z" fill="#992E6E"/>
<path d="M38.19 318.25L31.31 326.44L37.71 314.5L53.55 309L86.19 339.41L101.18 382.57L138.15 400.47L155.85 451.43L153.62 456.04L134.44 402.91L97.14 384.85L82.52 342.77L51.15 313.75L38.19 318.25Z" fill="#EF888D"/>
<path d="M251.83 217.84C254.487 217.84 256.64 215.686 256.64 213.03C256.64 210.374 254.487 208.22 251.83 208.22C249.174 208.22 247.02 210.374 247.02 213.03C247.02 215.686 249.174 217.84 251.83 217.84Z" fill="#C965A6"/>
<path d="M413.09 670.15L440.73 673.6L458.27 689.95L466.46 703.39L441.16 711.79L397 702.01L399.55 680.59L413.09 670.15Z" fill="#1C1835"/>
<path d="M413.09 670.15L439.77 667L461.54 685.15L466.46 703.39L458.27 689.95L440.73 673.6L413.09 670.15Z" fill="#9A2E6D"/>
<path d="M1042.95 153.61C1028.95 153.61 1016.5 160.17 1008.46 170.37C1013.5 168.35 1019.01 167.23 1024.77 167.23C1049.02 167.23 1068.67 186.89 1068.67 211.13C1068.67 221.38 1065.15 230.8 1059.26 238.27C1075.43 231.79 1086.85 215.99 1086.85 197.51C1086.85 173.26 1067.19 153.61 1042.95 153.61Z" fill="white"/>
<path d="M457.97 824.48H519.14L552.68 864.44H605.96L646.9 911.79L533.94 940.4L485.09 981.59L421.24 957.09L361.88 949.82L309 919.27L334.16 873.81L376.58 872.82L416.54 807.22H436.76L457.97 824.48Z" fill="#2E2A63"/>
<path d="M416.54 807.22L439.43 795.57L468.14 813.9H529.23L560.46 855.31H610.02L646.9 897.39V911.79L605.96 864.44H552.68L519.14 824.48H457.97L436.76 807.22H416.54Z" fill="#323275"/>
<path d="M425.48 802.67L436.99 788H444.98L471.66 807.96H535.43L563.74 847.66H614.17L646.9 892.89V897.39L610.02 855.31H560.46L529.23 813.9H468.14L439.43 795.57L425.48 802.67Z" fill="#992E6E"/>
<path d="M444.98 788H451.83L474.95 803.29H539.35L565.77 842.7H616.55L646.9 892.89L614.17 847.66H563.74L535.43 807.96H471.66L444.98 788Z" fill="#EF888D"/>
<g clip-path="url(#clip1_23_208)">
<path d="M1399.12 845.169L1362.09 842.927L1345 867.624L1331.9 879.997L1351.22 889.393L1380.46 873.666L1412.16 869.866L1424.26 859.067L1399.12 845.169Z" fill="#2E2A63"/>
<path d="M1331.9 879.997L1341.15 866.139L1360.04 835.657L1397.68 841.086L1424.26 859.067L1399.12 845.169L1362.09 842.927L1345 867.624L1331.9 879.997Z" fill="#992E6E"/>
</g>
</g>
<defs>
<linearGradient id="paint0_linear_23_208" x1="756.995" y1="53.17" x2="756.995" y2="963.35" gradientUnits="userSpaceOnUse">
<stop stop-color="#040407"/>
<stop offset="1" stop-color="#3E1996"/>
</linearGradient>
<radialGradient id="paint1_radial_23_208" cx="0" cy="0" r="1" gradientUnits="userSpaceOnUse" gradientTransform="translate(761.397 901) scale(859.447 237)">
<stop stop-color="#9888BF"/>
<stop offset="0.9" stop-color="#9888BF" stop-opacity="0.03"/>
</radialGradient>
<clipPath id="clip0_23_208">
<rect width="1513" height="1074" fill="white"/>
</clipPath>
<clipPath id="clip1_23_208">
<rect width="94.5934" height="49.9235" fill="white" transform="matrix(0.969142 -0.246502 0.27459 0.961561 1322 845.333)"/>
</clipPath>
</defs>
</svg>
