<svg width="589" height="135" viewBox="0 0 589 135" fill="none" xmlns="http://www.w3.org/2000/svg">
<g clip-path="url(#clip0_25_481)">
<path d="M74.6 0.6V15.6C69.7 5.6 62.3 2.3 52.3 0.5H0.5C3.9 16.3 11.2 28 22.1 35.5C30.8 41.4 42 44.8 55.6 45.6H70V49.5C65 49.8 60.1 49.8 55.5 49.5H19.6C28.8 79.1 51.2 85.1 84.2 85.1V89H38.5C50.5 115.3 72.3 115.3 86.1 115.3H114.2V41.9C114.2 19.7 96.6 1.5 74.6 0.6Z" fill="white"/>
<path d="M163.1 117.7C162.4 119 161.3 120.1 159.7 120.9C158.2 121.7 156.2 122.1 153.8 122.1H148.5V134H143.7V104.8H153.8C156 104.8 157.9 105.2 159.5 106C161.1 106.8 162.2 107.8 163 109.1C163.8 110.4 164.2 111.9 164.2 113.5C164.2 115.1 163.8 116.4 163.1 117.7ZM157.9 117C158.8 116.2 159.2 115 159.2 113.5C159.2 110.3 157.4 108.7 153.8 108.7H148.5V118.3H153.8C155.6 118.3 157 117.9 157.9 117.1V117Z" fill="white"/>
<path d="M177.7 104.7V133.9H172.9V104.7H177.7Z" fill="white"/>
<path d="M212.3 134H207.5L193.1 112.2V134H188.3V104.7H193.1L207.5 126.5V104.7H212.3V134Z" fill="white"/>
<path d="M227.6 104.7V133.9H222.8V104.7H227.6Z" fill="white"/>
<path d="M244 132.4C241.7 131.1 239.9 129.3 238.6 127.1C237.3 124.8 236.6 122.2 236.6 119.4C236.6 116.6 237.3 114 238.6 111.7C239.9 109.4 241.7 107.7 244 106.4C246.3 105.1 248.8 104.5 251.5 104.5C254.2 104.5 256.8 105.1 259.1 106.4C261.4 107.7 263.2 109.5 264.5 111.7C265.8 114 266.5 116.5 266.5 119.4C266.5 122.3 265.8 124.8 264.5 127.1C263.2 129.4 261.4 131.2 259.1 132.4C256.8 133.7 254.3 134.3 251.5 134.3C248.7 134.3 246.3 133.7 244 132.4ZM256.7 128.8C258.2 127.9 259.4 126.7 260.3 125C261.2 123.4 261.6 121.5 261.6 119.3C261.6 117.1 261.2 115.2 260.3 113.6C259.4 112 258.3 110.7 256.7 109.9C255.2 109 253.5 108.6 251.5 108.6C249.5 108.6 247.8 109 246.3 109.9C244.8 110.8 243.6 112 242.7 113.6C241.8 115.2 241.4 117.1 241.4 119.3C241.4 121.5 241.8 123.4 242.7 125C243.6 126.6 244.7 127.9 246.3 128.8C247.8 129.7 249.5 130.1 251.5 130.1C253.5 130.1 255.2 129.7 256.7 128.8Z" fill="white"/>
<path d="M299.4 134H294.6L280.2 112.2V134H275.4V104.7H280.2L294.6 126.5V104.7H299.4V134Z" fill="white"/>
<path d="M235.9 57.6H195.1C195.4 61.3 196.6 64.1 198.6 66C200.7 67.9 203.2 68.9 206.2 68.9C210.7 68.9 213.8 67 215.6 63.2H234.8C233.8 67.1 232 70.5 229.5 73.6C226.9 76.7 223.7 79.1 219.9 80.9C216 82.7 211.7 83.5 206.9 83.5C202.1 83.5 196 82.3 191.5 79.8C187 77.3 183.5 73.8 181 69.3C178.5 64.7 177.2 59.4 177.2 53.3C177.2 47.2 178.4 41.8 180.9 37.3C183.4 32.7 186.9 29.2 191.4 26.8C195.9 24.3 201.1 23.1 206.9 23.1C212.7 23.1 217.7 24.3 222.1 26.7C226.5 29.1 230 32.5 232.5 36.9C235 41.3 236.2 46.5 236.2 52.4C236.2 58.3 236.1 55.8 235.9 57.7V57.6ZM217.8 47.6C217.8 44.5 216.7 42 214.6 40.2C212.5 38.4 209.9 37.5 206.7 37.5C203.5 37.5 201.1 38.4 199.1 40.1C197 41.9 195.7 44.4 195.3 47.6H217.9H217.8Z" fill="white"/>
<path d="M245.5 37.2C247.8 32.6 250.9 29.1 254.8 26.7C258.7 24.2 263.1 23 268 23C272.9 23 275.8 23.8 278.9 25.5C282 27.2 284.4 29.4 286.1 32.1V23.8H304.1V82.6H286.1V74.3C284.3 77 281.9 79.3 278.8 80.9C275.7 82.6 272 83.4 267.9 83.4C263.8 83.4 258.8 82.2 254.8 79.7C250.9 77.2 247.8 73.7 245.5 69.1C243.2 64.5 242.1 59.2 242.1 53.1C242.1 47 243.2 41.7 245.5 37.2ZM282.4 42.6C279.9 40 276.9 38.7 273.3 38.7C269.7 38.7 266.7 40 264.2 42.5C261.7 45.1 260.5 48.6 260.5 53.1C260.5 57.6 261.7 61.2 264.2 63.8C266.7 66.4 269.7 67.8 273.3 67.8C276.9 67.8 279.9 66.5 282.4 63.9C284.9 61.3 286.1 57.7 286.1 53.2C286.1 48.7 284.9 45.2 282.4 42.6Z" fill="white"/>
<path d="M350.1 67.4V82.7H340.9C334.4 82.7 329.3 81.1 325.6 77.9C321.9 74.7 320.1 69.5 320.1 62.2V38.8H312.9V23.8H320.1V9.5H338.1V23.8H349.9V38.8H338.1V62.4C338.1 64.2 338.5 65.4 339.4 66.2C340.2 67 341.6 67.4 343.6 67.4H350H350.1Z" fill="white"/>
<path d="M486.3 57.6H445.5C445.8 61.3 447 64.1 449 66C451.1 67.9 453.6 68.9 456.6 68.9C461.1 68.9 464.2 67 466 63.2H485.2C484.2 67.1 482.4 70.5 479.9 73.6C477.3 76.7 474.1 79.1 470.3 80.9C466.4 82.7 462.1 83.5 457.3 83.5C452.5 83.5 446.4 82.3 441.9 79.8C437.4 77.3 433.9 73.8 431.4 69.3C428.9 64.7 427.6 59.4 427.6 53.3C427.6 47.2 428.8 41.8 431.3 37.3C433.8 32.7 437.3 29.2 441.8 26.8C446.3 24.3 451.5 23.1 457.3 23.1C463.1 23.1 468.1 24.3 472.5 26.7C476.9 29.1 480.4 32.5 482.9 36.9C485.4 41.3 486.6 46.5 486.6 52.4C486.6 58.3 486.5 55.8 486.3 57.7V57.6ZM468.2 47.6C468.2 44.5 467.1 42 465 40.2C462.9 38.4 460.3 37.5 457.1 37.5C453.9 37.5 451.5 38.4 449.5 40.1C447.4 41.9 446.1 44.4 445.7 47.6H468.3H468.2Z" fill="white"/>
<path d="M551.5 80.9C547.5 79.1 544.3 76.7 542 73.7C539.7 70.6 538.4 67.2 538.1 63.4H555.9C556.1 65.4 557.1 67.1 558.7 68.4C560.4 69.7 562.5 70.3 564.9 70.3C567.3 70.3 568.9 69.9 570.1 69C571.3 68.1 571.9 67 571.9 65.6C571.9 64.2 571 62.7 569.3 61.9C567.5 61.1 564.7 60.2 560.8 59.2C556.6 58.2 553.1 57.2 550.3 56.1C547.5 55 545.1 53.3 543 50.9C541 48.5 539.9 45.4 539.9 41.4C539.9 37.4 540.8 35 542.7 32.2C544.6 29.4 547.3 27.2 550.9 25.6C554.5 24 558.8 23.2 563.8 23.2C571.2 23.2 577 25 581.3 28.7C585.6 32.4 588 37.2 588.6 43.3H571.9C571.6 41.3 570.7 39.6 569.2 38.4C567.7 37.2 565.7 36.6 563.2 36.6C560.7 36.6 559.5 37 558.3 37.8C557.2 38.6 556.6 39.7 556.6 41.1C556.6 42.5 557.5 44.1 559.3 44.9C561.1 45.7 563.9 46.6 567.7 47.4C572.1 48.5 575.6 49.6 578.3 50.7C581 51.8 583.4 53.5 585.5 56C587.6 58.4 588.6 61.7 588.7 65.8C588.7 69.2 587.7 72.3 585.8 75C583.9 77.7 581.1 79.8 577.5 81.4C573.9 82.9 569.7 83.7 564.9 83.7C560.1 83.7 555.2 82.8 551.2 81.1L551.5 80.9Z" fill="white"/>
<path d="M412.5 29.9C408.4 25.4 403 23.2 396.3 23.2C389.6 23.2 388.8 24 385.6 25.5C382.4 27 379.9 29.1 378.1 31.7V4.59998H360.1V82.6H378.1V58.5C378.1 58.5 378.1 48.5 378.5 46.6C378.9 44.7 378.8 45.4 379 44.9C379.5 43.6 380.2 42.5 381.1 41.6C383.1 39.4 385.9 38.3 389.3 38.3C392.7 38.3 395.5 39.4 397.5 41.6C399.5 43.8 400.6 46.8 400.6 50.8V82.7H418.5V48.3C418.5 40.5 416.5 34.4 412.4 29.9H412.5Z" fill="white"/>
<path d="M148.6 70.3C155.1 66.4 162.4 60.2 162.6 52.3C162.6 50.1 162.6 47.5 162.6 44.9V38.8H172.3V23.8H162.6V23.3C162.6 20.2 163.3 18.1 164.7 16.9C166.1 15.7 168.5 15.2 172 15.4V0.1C171.4 0.1 170.4 0 169 0C161 0 154.9 1.9 150.8 5.6C146.7 9.4 144.6 14.9 144.6 22.1V23.8H138.1V38.8H144.6V82.7H162.6V68.7C157.9 70.6 152.8 71.4 148.6 70.3Z" fill="white"/>
<path d="M522.1 26C518.9 27.9 516.3 30.4 514.2 33.6V23.8H496.2V28.7C497.2 36.6 505.7 44.1 511.2 49C506.7 49.5 501.3 48 496.2 45.3V82.6H514.2V55.3C514.2 50.4 515.3 47.1 517.6 45.1C519.8 43.2 523.2 42.2 527.7 42.2H532.7V23.1C528.8 23.1 525.3 24 522.2 25.9L522.1 26Z" fill="white"/>
</g>
<defs>
<clipPath id="clip0_25_481">
<rect width="588.5" height="134.3" fill="white" transform="translate(0.5)"/>
</clipPath>
</defs>
</svg>
