<svg width="590" height="136" viewBox="0 0 590 136" fill="none" xmlns="http://www.w3.org/2000/svg">
<g clip-path="url(#clip0_3_211)">
<path d="M60.1 51.7L69.8 60.3L90.4 38.5C85.2 33.6 78.4 29.7 70.3 27.3C70 27.2 70.1 26.7 70.4 26.7L98.3 30.1L101.5 26.7C96.4 22 89.7 18.3 81.9 15.9C81.6 15.8 81.7 15.3 82 15.3L109.1 18.6L114.7 12.6L106.6 4.89999C99.9 -1.40001 89.4 -1.10001 83.1 5.59999L49.9 40.8C36.6 35.7 21 38.8 10.6 49.9C-3.20001 64.5 -2.50001 87.6 12.1 101.4C26.7 115.2 49.6 114.5 63.4 99.9C64 99.2 64.6 98.6 65.2 97.9C65.2 97.9 65.4 97.7 65.4 97.6C65.9 97 66.4 96.3 66.8 95.7C66.8 95.7 66.8 95.7 66.8 95.6C67.2 95 67.5 94.4 67.9 93.9C68.6 92.7 69.3 91.4 69.8 90.1C71.8 84.7 72.5 78.9 71.8 73.2C70.6 65.7 66.6 58.2 59.8 51.8L60.1 51.7ZM27.1 93.6C22.4 93.6 18.5 89.7 18.5 84.9C18.5 80.1 22.4 76.2 27.1 76.2C31.8 76.2 35.5 79.9 35.7 84.5V84.9C35.7 89.7 31.8 93.6 27.1 93.6Z" fill="white"/>
<path d="M236.5 58H195.7C196 61.7 197.2 64.5 199.2 66.4C201.3 68.3 203.8 69.3 206.8 69.3C211.3 69.3 214.4 67.4 216.2 63.6H235.4C234.4 67.5 232.6 70.9 230.1 74C227.5 77.1 224.3 79.5 220.5 81.3C216.6 83.1 212.3 83.9 207.5 83.9C202.7 83.9 196.6 82.7 192.1 80.2C187.6 77.7 184.1 74.2 181.6 69.7C179.1 65.1 177.8 59.8 177.8 53.7C177.8 47.6 179 42.2 181.5 37.7C184 33.1 187.5 29.6 192 27.2C196.5 24.7 201.7 23.5 207.5 23.5C213.3 23.5 218.3 24.7 222.7 27.1C227.1 29.5 230.6 32.9 233.1 37.3C235.6 41.7 236.8 46.9 236.8 52.8C236.8 58.7 236.7 56.2 236.5 58.1V58ZM218.4 48C218.4 44.9 217.3 42.4 215.2 40.6C213.1 38.8 210.5 37.9 207.3 37.9C204.1 37.9 201.7 38.8 199.7 40.5C197.6 42.3 196.3 44.8 195.9 48H218.5H218.4Z" fill="white"/>
<path d="M246.1 37.6C248.4 33 251.5 29.5 255.4 27.1C259.3 24.6 263.7 23.4 268.6 23.4C273.5 23.4 276.4 24.2 279.5 25.9C282.6 27.6 285 29.8 286.7 32.5V24.2H304.7V83H286.7V74.7C284.9 77.4 282.5 79.7 279.4 81.3C276.3 83 272.6 83.8 268.5 83.8C264.4 83.8 259.4 82.6 255.4 80.1C251.5 77.6 248.4 74.1 246.1 69.5C243.8 64.9 242.7 59.6 242.7 53.5C242.7 47.4 243.8 42.1 246.1 37.6ZM283 43C280.5 40.4 277.5 39.1 273.9 39.1C270.3 39.1 267.3 40.4 264.8 42.9C262.3 45.5 261.1 49 261.1 53.5C261.1 58 262.3 61.6 264.8 64.2C267.3 66.8 270.3 68.2 273.9 68.2C277.5 68.2 280.5 66.9 283 64.3C285.5 61.7 286.7 58.1 286.7 53.6C286.7 49.1 285.5 45.6 283 43Z" fill="white"/>
<path d="M350.7 67.8V83.1H341.5C335 83.1 329.9 81.5 326.2 78.3C322.5 75.1 320.7 69.9 320.7 62.6V39.2H313.5V24.2H320.7V9.89999H338.7V24.2H350.5V39.2H338.7V62.8C338.7 64.6 339.1 65.8 340 66.6C340.8 67.4 342.2 67.8 344.2 67.8H350.6H350.7Z" fill="white"/>
<path d="M486.9 58H446.1C446.4 61.7 447.6 64.5 449.6 66.4C451.7 68.3 454.2 69.3 457.2 69.3C461.7 69.3 464.8 67.4 466.6 63.6H485.8C484.8 67.5 483 70.9 480.5 74C477.9 77.1 474.7 79.5 470.9 81.3C467 83.1 462.7 83.9 457.9 83.9C453.1 83.9 447 82.7 442.5 80.2C438 77.7 434.5 74.2 432 69.7C429.5 65.1 428.2 59.8 428.2 53.7C428.2 47.6 429.4 42.2 431.9 37.7C434.4 33.1 437.9 29.6 442.4 27.2C446.9 24.7 452.1 23.5 457.9 23.5C463.7 23.5 468.7 24.7 473.1 27.1C477.5 29.5 481 32.9 483.5 37.3C486 41.7 487.2 46.9 487.2 52.8C487.2 58.7 487.1 56.2 486.9 58.1V58ZM468.8 48C468.8 44.9 467.7 42.4 465.6 40.6C463.5 38.8 460.9 37.9 457.7 37.9C454.5 37.9 452.1 38.8 450.1 40.5C448 42.3 446.7 44.8 446.3 48H468.9H468.8Z" fill="white"/>
<path d="M552.1 81.3C548.1 79.5 544.9 77.1 542.6 74.1C540.3 71 539 67.6 538.7 63.8H556.5C556.7 65.8 557.7 67.5 559.3 68.8C561 70.1 563.1 70.7 565.5 70.7C567.9 70.7 569.5 70.3 570.7 69.4C571.9 68.5 572.5 67.4 572.5 66C572.5 64.6 571.6 63.1 569.9 62.3C568.1 61.5 565.3 60.6 561.4 59.6C557.2 58.6 553.7 57.6 550.9 56.5C548.1 55.4 545.7 53.7 543.6 51.3C541.6 48.9 540.5 45.8 540.5 41.8C540.5 37.8 541.4 35.4 543.3 32.6C545.2 29.8 547.9 27.6 551.5 26C555.1 24.4 559.4 23.6 564.4 23.6C571.8 23.6 577.6 25.4 581.9 29.1C586.2 32.8 588.6 37.6 589.2 43.7H572.5C572.2 41.7 571.3 40 569.8 38.8C568.3 37.6 566.3 37 563.8 37C561.3 37 560.1 37.4 558.9 38.2C557.8 39 557.2 40.1 557.2 41.5C557.2 42.9 558.1 44.5 559.9 45.3C561.7 46.1 564.5 47 568.3 47.8C572.7 48.9 576.2 50 578.9 51.1C581.6 52.2 584 53.9 586.1 56.4C588.2 58.8 589.2 62.1 589.3 66.2C589.3 69.6 588.3 72.7 586.4 75.4C584.5 78.1 581.7 80.2 578.1 81.8C574.5 83.3 570.3 84.1 565.5 84.1C560.7 84.1 555.8 83.2 551.8 81.5L552.1 81.3Z" fill="white"/>
<path d="M413.1 30.3C409 25.8 403.6 23.6 396.9 23.6C390.2 23.6 389.4 24.4 386.2 25.9C383 27.4 380.5 29.5 378.7 32.1V4.99999H360.7V83H378.7V58.9C378.7 58.9 378.7 48.9 379.1 47C379.5 45.1 379.4 45.8 379.6 45.3C380.1 44 380.8 42.9 381.7 42C383.7 39.8 386.5 38.7 389.9 38.7C393.3 38.7 396.1 39.8 398.1 42C400.1 44.2 401.2 47.2 401.2 51.2V83.1H419.1V48.7C419.1 40.9 417.1 34.8 413 30.3H413.1Z" fill="white"/>
<path d="M149.2 70.7C155.7 66.8 163 60.6 163.2 52.7C163.2 50.5 163.2 47.9 163.2 45.3V39.2H172.9V24.2H163.2V23.7C163.2 20.6 163.9 18.5 165.3 17.3C166.7 16.1 169.1 15.6 172.6 15.8V0.499994C172 0.499994 171 0.399994 169.6 0.399994C161.6 0.399994 155.5 2.29999 151.4 5.99999C147.3 9.79999 145.2 15.3 145.2 22.5V24.2H138.7V39.2H145.2V83.1H163.2V69.1C158.5 71 153.4 71.8 149.2 70.7Z" fill="white"/>
<path d="M522.7 26.4C519.5 28.3 516.9 30.8 514.8 34V24.2H496.8V29.1C497.8 37 506.3 44.5 511.8 49.4C507.3 49.9 501.9 48.4 496.8 45.7V83H514.8V55.7C514.8 50.8 515.9 47.5 518.2 45.5C520.4 43.6 523.8 42.6 528.3 42.6H533.3V23.5C529.4 23.5 525.9 24.4 522.8 26.3L522.7 26.4Z" fill="white"/>
<path d="M163.8 129.2H151.6L149.5 135.2H144.5L155 105.9H160.6L171.1 135.2H166L163.9 129.2H163.8ZM162.4 125.3L157.6 111.7L152.8 125.3H162.4Z" fill="white"/>
<path d="M184.5 106V124.6C184.5 126.8 185.1 128.5 186.2 129.6C187.4 130.7 189 131.3 191.1 131.3C193.2 131.3 194.8 130.7 196 129.6C197.2 128.5 197.7 126.8 197.7 124.6V106H202.5V124.6C202.5 127 202 129 200.9 130.7C199.9 132.4 198.5 133.6 196.7 134.4C195 135.2 193 135.6 190.9 135.6C188.8 135.6 186.9 135.2 185.2 134.4C183.5 133.6 182.1 132.4 181.1 130.7C180.1 129 179.6 127 179.6 124.6V106H184.4H184.5Z" fill="white"/>
<path d="M231.8 106V109.9H224V135.2H219.2V109.9H211.4V106H231.8Z" fill="white"/>
<path d="M264.3 106V135.3H259.5V122.5H245.7V135.3H240.9V106H245.7V118.5H259.5V106H264.3Z" fill="white"/>
</g>
<defs>
<clipPath id="clip0_3_211">
<rect width="588.8" height="135.1" fill="white" transform="translate(0.799988 0.399994)"/>
</clipPath>
</defs>
</svg>
