<svg width="736" height="648" viewBox="0 0 736 648" fill="none" xmlns="http://www.w3.org/2000/svg">
<g clip-path="url(#clip0_112_1829)">
<path d="M355.625 615.657C516.931 615.657 647.696 484.886 647.696 323.573C647.696 162.26 516.931 31.4895 355.625 31.4895C194.318 31.4895 63.5527 162.26 63.5527 323.573C63.5527 484.886 194.318 615.657 355.625 615.657Z" fill="#9EF7F7"/>
<mask id="mask0_112_1829" style="mask-type:luminance" maskUnits="userSpaceOnUse" x="63" y="31" width="585" height="585">
<path d="M355.625 615.657C516.931 615.657 647.696 484.886 647.696 323.573C647.696 162.26 516.931 31.4895 355.625 31.4895C194.318 31.4895 63.5527 162.26 63.5527 323.573C63.5527 484.886 194.318 615.657 355.625 615.657Z" fill="white"/>
</mask>
<g mask="url(#mask0_112_1829)">
<path d="M142.934 102.875L194.283 154.226C205.618 165.562 211.985 180.94 211.985 196.972C211.985 222.039 232.307 242.361 257.373 242.361H279.718C291.415 242.361 300.904 251.846 300.904 263.549C300.904 290.957 323.122 313.18 350.533 313.18H495.506C517.005 313.18 534.43 295.75 534.43 274.255C534.43 255.887 549.323 240.993 567.69 240.993H647.701V133.845H504.761C489.457 133.845 474.779 127.766 463.956 116.943L430.002 82.9872C422.033 75.0175 417.552 64.2039 417.552 52.931V15.6968H188.268L142.938 102.87L142.934 102.875Z" fill="#3DB395"/>
<path d="M36.9668 328.24H158.892C175.901 328.24 192.211 334.998 204.236 347.023L255.101 397.89C263.388 406.178 268.04 417.416 268.04 429.134V459.723C268.04 469.031 264.341 477.963 257.759 484.545L241.39 500.915C214.638 527.668 178.349 542.698 140.515 542.698H76.8869L36.9717 328.24H36.9668Z" fill="#3DB395"/>
<path d="M355.625 652.5V528.21C355.625 500.822 366.507 474.553 385.87 455.183L440.913 400.138C453.481 387.57 470.524 380.509 488.295 380.509H507.273C516.923 380.509 526.177 384.345 532.999 391.166L547.335 405.503C552.143 410.311 558.661 413.009 565.457 413.009H581.953C588.769 413.009 595.302 415.716 600.12 420.534L629.598 450.013L543.098 600.387L355.625 652.49V652.5Z" fill="#3DB395"/>
<path opacity="0.2" d="M439.837 639.898C605.06 639.898 738.999 505.953 738.999 340.724C738.999 175.495 605.06 41.5505 439.837 41.5505C274.615 41.5505 140.676 175.495 140.676 340.724C140.676 505.953 274.615 639.898 439.837 639.898Z" fill="black"/>
</g>
<path opacity="0.2" d="M355.625 646.646C534.046 646.646 678.685 502.001 678.685 323.573C678.685 145.145 534.046 0.5 355.625 0.5C177.203 0.5 32.5645 145.145 32.5645 323.573C32.5645 502.001 177.203 646.646 355.625 646.646Z" fill="white"/>
<path d="M525.376 297.734H522.503C509.804 297.734 499.514 287.438 499.514 274.743C499.514 262.044 509.809 251.753 522.503 251.753H543.87C549.968 251.753 555.817 249.329 560.127 245.019L600.013 205.132C604.322 200.822 610.171 198.398 616.269 198.398H644.086C650.184 198.398 656.033 200.822 660.343 205.132L728.51 273.302C732.819 277.612 735.243 283.461 735.243 289.559V290.189C735.243 302.889 724.948 313.18 712.253 313.18H645.889C639.791 313.18 633.942 310.756 629.633 306.446L627.669 304.482C623.359 300.172 617.51 297.748 611.412 297.748L525.371 297.739L525.376 297.734Z" fill="white"/>
<path d="M0.999027 477.382V458.618C0.999027 453.067 3.2027 447.746 7.12631 443.822L38.7741 412.173C42.6977 408.249 48.0188 406.045 53.5695 406.045H140.255C145.806 406.045 151.127 408.249 155.051 412.173L192.968 450.091C196.891 454.015 202.212 456.219 207.763 456.219H221.303C232.858 456.219 242.225 465.586 242.225 477.142C242.225 488.689 232.873 498.051 221.327 498.066L21.9412 498.305C10.3756 498.32 0.994141 488.948 0.994141 477.382H0.999027Z" fill="white"/>
<path d="M178.021 168.17H104.147C97.4383 168.17 92 162.732 92 156.023V150.682C92 145.37 95.4545 140.674 100.522 139.086L164.628 119.052C165.801 118.686 167.023 118.5 168.249 118.5H213.143C216.363 118.5 219.456 119.78 221.733 122.057L248.08 148.405C250.356 150.682 251.637 153.77 251.637 156.995C251.637 163.777 246.081 169.25 239.299 169.142L178.021 168.175V168.17Z" fill="white"/>
<path d="M119.61 5.55288C121.052 5.55288 122.22 4.42175 122.22 3.02644C122.22 1.63113 121.052 0.5 119.61 0.5C118.169 0.5 117 1.63113 117 3.02644C117 4.42175 118.169 5.55288 119.61 5.55288Z" fill="white"/>
<path d="M114.61 620.553C116.051 620.553 117.22 619.422 117.22 618.026C117.22 616.631 116.051 615.5 114.61 615.5C113.169 615.5 112 616.631 112 618.026C112 619.422 113.169 620.553 114.61 620.553Z" fill="white"/>
</g>
<defs>
<clipPath id="clip0_112_1829">
<rect width="736" height="647" fill="white" transform="translate(0 0.5)"/>
</clipPath>
</defs>
</svg>
