<svg width="521" height="349" viewBox="0 0 521 349" fill="none" xmlns="http://www.w3.org/2000/svg">
<g clip-path="url(#clip0_112_1862)">
<path opacity="0.2" d="M260.01 348.031C356.006 348.031 433.826 270.291 433.826 174.393C433.826 78.496 356.006 0.755859 260.01 0.755859C164.014 0.755859 86.1934 78.496 86.1934 174.393C86.1934 270.291 164.014 348.031 260.01 348.031Z" fill="white"/>
<path d="M168 57.9983C83.3098 21.2629 18.968 7.97227 7.09009 28.5213C-10.1072 58.2734 89.1913 147.705 228.873 228.266C368.555 308.831 495.732 350.017 512.929 320.265C524.758 299.804 481.483 251.115 407.868 196.493" stroke="#DA6866" stroke-width="9.96" stroke-miterlimit="10"/>
<path d="M260.01 327.864C344.856 327.864 413.638 259.153 413.638 174.393C413.638 89.6339 344.856 20.9229 260.01 20.9229C175.163 20.9229 106.381 89.6339 106.381 174.393C106.381 259.153 175.163 327.864 260.01 327.864Z" fill="white"/>
<mask id="mask0_112_1862" style="mask-type:luminance" maskUnits="userSpaceOnUse" x="106" y="20" width="308" height="308">
<path d="M260.01 327.864C344.856 327.864 413.638 259.153 413.638 174.393C413.638 89.6339 344.856 20.9229 260.01 20.9229C175.163 20.9229 106.381 89.6339 106.381 174.393C106.381 259.153 175.163 327.864 260.01 327.864Z" fill="white"/>
</mask>
<g mask="url(#mask0_112_1862)">
<path d="M49.7754 247.551C211.657 171.922 206.762 19.9411 312.825 -37.5L375.821 17.798C263.425 50.1554 263.425 228.713 83.8488 298.311L49.7754 247.551Z" fill="#E8A160"/>
<path d="M146.064 345.353C307.95 269.728 303.055 117.743 409.114 60.302L472.11 115.6C359.714 147.957 359.714 326.515 180.138 396.113L146.064 345.353Z" fill="#F6D17B"/>
<path opacity="0.51" d="M177.434 402.5C265.987 402.5 337.774 330.787 337.774 242.325C337.774 153.863 265.987 82.1499 177.434 82.1499C88.8805 82.1499 17.0938 153.863 17.0938 242.325C17.0938 330.787 88.8805 402.5 177.434 402.5Z" fill="#A35D3B"/>
</g>
<path d="M137.738 45.3419C68.5241 18.4703 17.9608 10.5395 7.57056 28.5214C-9.62677 58.2734 89.6718 147.705 229.354 228.266C369.036 308.832 496.212 350.018 513.41 320.266C523.877 302.158 491.195 261.95 432.525 215.087" stroke="#DA6866" stroke-width="9.96" stroke-miterlimit="10"/>
<path d="M366.287 151.201H364.811C358.275 151.201 352.979 145.91 352.979 139.381C352.979 132.852 358.275 127.561 364.811 127.561H375.809C378.948 127.561 381.958 126.316 384.176 124.1L404.704 103.593C406.922 101.377 409.932 100.132 413.072 100.132H427.389C430.529 100.132 433.539 101.377 435.757 103.593L470.843 138.644C473.061 140.859 474.308 143.866 474.308 147.002V147.327C474.308 153.856 469.012 159.147 462.476 159.147H428.319C425.179 159.147 422.169 157.902 419.951 155.686L418.942 154.677C416.724 152.461 413.714 151.216 410.574 151.216H366.29L366.287 151.201Z" fill="white"/>
<path d="M132.588 264.903H74.7706C69.52 264.903 65.2637 260.651 65.2637 255.405V251.23C65.2637 247.077 67.9674 243.406 71.933 242.164L122.106 226.502C123.024 226.215 123.98 226.07 124.94 226.07H160.076C162.597 226.07 165.017 227.071 166.799 228.851L187.419 249.45C189.201 251.23 190.203 253.644 190.203 256.166C190.203 261.468 185.855 265.747 180.547 265.663L132.588 264.906V264.903Z" fill="white"/>
</g>
<defs>
<clipPath id="clip0_112_1862">
<rect width="521" height="349" fill="white"/>
</clipPath>
</defs>
</svg>
