<svg width="601" height="531" viewBox="0 0 601 531" fill="none" xmlns="http://www.w3.org/2000/svg">
<g clip-path="url(#clip0_108_1725)">
<path opacity="0.1" d="M302 531C448.632 531 567.5 412.132 567.5 265.5C567.5 118.868 448.632 0 302 0C155.368 0 36.5 118.868 36.5 265.5C36.5 412.132 155.368 531 302 531Z" fill="white"/>
<path d="M300.684 492.494C425.812 492.494 527.249 390.761 527.249 265.267C527.249 139.773 425.812 38.0396 300.684 38.0396C175.556 38.0396 74.1191 139.773 74.1191 265.267C74.1191 390.761 175.556 492.494 300.684 492.494Z" fill="#FDDAB3"/>
<mask id="mask0_108_1725" style="mask-type:luminance" maskUnits="userSpaceOnUse" x="74" y="38" width="454" height="455">
<path d="M300.684 492.494C425.812 492.494 527.249 390.761 527.249 265.267C527.249 139.773 425.812 38.0396 300.684 38.0396C175.556 38.0396 74.1191 139.773 74.1191 265.267C74.1191 390.761 175.556 492.494 300.684 492.494Z" fill="white"/>
</mask>
<g mask="url(#mask0_108_1725)">
<path d="M205.414 429.644C217.34 429.644 227.008 419.947 227.008 407.987C227.008 396.026 217.34 386.33 205.414 386.33C193.488 386.33 183.82 396.026 183.82 407.987C183.82 419.947 193.488 429.644 205.414 429.644Z" fill="#EA591E"/>
<path d="M548.828 266.468H38.7969V313.217H548.828V266.468Z" fill="#F59E52"/>
<path d="M550.66 336.471H40.6289V361.139H550.66V336.471Z" fill="#F59E52"/>
<path d="M146.031 81.6924C146.031 81.6924 241.286 99.08 262.851 115.139C284.417 131.198 298.089 191.927 319.232 213.556C340.375 235.184 394.894 224.342 436.193 253.18C477.492 282.018 494.533 442.606 494.533 442.606L574.466 160.545L359.332 -15L146.031 81.6924Z" fill="#F59D1A"/>
<mask id="mask1_108_1725" style="mask-type:luminance" maskUnits="userSpaceOnUse" x="146" y="-15" width="429" height="458">
<path d="M146.031 81.6924C146.031 81.6924 241.286 99.08 262.851 115.139C284.417 131.198 298.089 191.927 319.232 213.556C340.375 235.184 394.894 224.342 436.193 253.18C477.492 282.018 494.533 442.606 494.533 442.606L574.466 160.545L359.332 -15L146.031 81.6924Z" fill="white"/>
</mask>
<g mask="url(#mask1_108_1725)">
<path d="M568.758 266.129H58.7266V312.877H568.758V266.129Z" fill="#EA591E"/>
<path d="M568.758 336.612H58.7266V361.266H568.758V336.612Z" fill="#EA591E"/>
</g>
<path d="M352.793 146.013C364.719 146.013 374.387 136.317 374.387 124.356C374.387 112.395 364.719 102.699 352.793 102.699C340.867 102.699 331.199 112.395 331.199 124.356C331.199 136.317 340.867 146.013 352.793 146.013Z" fill="white"/>
<path d="M431.725 197.624C438.241 197.624 443.523 192.327 443.523 185.792C443.523 179.257 438.241 173.96 431.725 173.96C425.21 173.96 419.928 179.257 419.928 185.792C419.928 192.327 425.21 197.624 431.725 197.624Z" fill="white"/>
<path opacity="0.1" d="M150.584 550C284.836 550 393.668 440.849 393.668 306.205C393.668 171.561 284.836 62.4104 150.584 62.4104C16.3325 62.4104 -92.5 171.561 -92.5 306.205C-92.5 440.849 16.3325 550 150.584 550Z" fill="black"/>
</g>
<path d="M146.652 98.0199C72.5683 76.2641 18.1612 75.4159 4.26342 100.579C-20.4453 145.306 92.2451 255.3 255.946 346.268C419.646 437.235 572.395 474.71 597.104 429.983C611.001 404.82 581.43 359.019 523.753 307.548L517.494 331.297C550.9 363.98 566.94 391.49 558.328 407.082C539.652 440.896 412.077 405.824 273.395 328.767C134.7 251.71 37.4151 161.831 56.0911 128.017C63.7589 114.149 89.7361 111.873 127.314 119.323L146.666 98.0199H146.652Z" fill="#FFFEFE"/>
</g>
<defs>
<clipPath id="clip0_108_1725">
<rect width="601" height="531" fill="white"/>
</clipPath>
</defs>
</svg>
