<svg width="191" height="235" viewBox="0 0 191 235" fill="none" xmlns="http://www.w3.org/2000/svg">
<path d="M26.9324 92.29L22.7524 61.66L54.5324 40.01L78.0524 62.92L91.7424 102.32L132.732 122.17L146.032 160.46L171.102 172.6L152.092 211.83L129.342 219.74L106.272 208.56L99.5824 222.36L67.2124 206.69L51.2924 160.88L32.0824 167.55L17.9424 126.88L26.9324 92.29Z" fill="#1C1835"/>
<path d="M22.752 61.66L55.982 22.14L90.142 53.45L104.402 94.5L142.922 113.16L156.692 152.8L171.202 159.82L171.102 172.6L146.032 160.46L132.732 122.17L91.7419 102.32L78.0519 62.92L54.532 40.01L22.752 61.66Z" fill="#2A1B47"/>
<path d="M55.9824 22.14L68.9424 17.64L100.312 46.66L114.932 88.74L152.232 106.8L166.172 146.92L171.202 159.82L156.692 152.8L142.922 113.16L104.402 94.5L90.1424 53.45L55.9824 22.14Z" fill="#992E6E"/>
<path d="M55.9825 22.14L49.1025 30.33L55.5025 18.39L71.3425 12.89L103.983 43.3L118.973 86.46L155.943 104.36L173.643 155.32L171.413 159.93L152.233 106.8L114.933 88.74L100.313 46.66L68.9425 17.64L55.9825 22.14Z" fill="#EF888D"/>
</svg>
