<svg width="386" height="218" viewBox="0 0 386 218" fill="none" xmlns="http://www.w3.org/2000/svg">
<path d="M172.97 42.48H234.14L267.68 82.44H320.96L361.9 129.79L248.94 158.4L200.09 199.59L136.24 175.09L76.88 167.82L24 137.27L49.16 91.81L91.58 90.8199L131.54 25.22H151.76L172.97 42.48Z" fill="#2E2A63"/>
<path d="M131.54 25.22L154.43 13.5699L183.14 31.9H244.23L275.46 73.31H325.02L361.9 115.39V129.79L320.96 82.44H267.68L234.14 42.48H172.97L151.76 25.22H131.54Z" fill="#323275"/>
<path d="M140.48 20.67L151.99 6H159.98L186.66 25.96H250.43L278.74 65.66H329.17L361.901 110.89V115.39L325.021 73.31H275.461L244.23 31.9H183.141L154.43 13.5699L140.48 20.67Z" fill="#992E6E"/>
<path d="M159.98 6H166.831L189.951 21.29H254.35L280.771 60.7H331.55L361.901 110.89L329.17 65.66H278.74L250.43 25.96H186.66L159.98 6Z" fill="#EF888D"/>
</svg>
