<svg width="1512" height="1160" viewBox="0 0 1512 1160" fill="none" xmlns="http://www.w3.org/2000/svg">
<g clip-path="url(#clip0_63_1208)">
<path d="M1514 980H-58V2053H1514V980Z" fill="#3E1996"/>
<path d="M1513.21 -0.110001H-1V981.89H1513.21V-0.110001Z" fill="url(#paint0_linear_63_1208)"/>
<path opacity="0.03" d="M1191.74 991.38L1387.22 795.9C1413.59 769.53 1428.4 733.77 1428.4 696.48C1428.4 672.3 1438.01 649.11 1455.1 632.01L1646.54 440.57C1688.77 398.34 1712.49 341.07 1712.49 281.35V222.01C1712.49 182.21 1728.3 144.03 1756.45 115.89L1872.97 -0.630001H-79.8501V976.39L1191.74 991.37V991.38Z" fill="white"/>
<path opacity="0.6" d="M761.5 1136C1236.19 1136 1621 1029.89 1621 899C1621 768.109 1236.19 662 761.5 662C286.811 662 -98 768.109 -98 899C-98 1029.89 286.811 1136 761.5 1136Z" fill="url(#paint1_radial_63_1208)"/>
<path opacity="0.03" d="M620.5 996C724 886 811.58 796.41 811.58 796.41C837.95 770.04 852.76 734.28 852.76 696.99C852.76 672.81 862.37 649.62 879.46 632.52L1070.9 441.08C1113.13 398.85 1136.85 341.58 1136.85 281.86V222.52C1136.85 182.72 1152.66 144.54 1180.81 116.4L1297.33 -0.119999H-74.12L-121.5 1310.5H-45C-45 1310.5 517 1106 620.5 996Z" fill="white"/>
<path opacity="0.03" d="M-242.98 1273.39L287.02 849.47C315.29 821.2 331.17 782.87 331.17 742.89C331.17 716.97 341.47 692.11 359.79 673.79L565 468.58C610.26 423.32 635.69 361.92 635.69 297.91V234.3C635.69 191.63 652.64 150.71 682.81 120.54L851.35 -48H-221.69L-242.98 1273.39Z" fill="white"/>
<path opacity="0.03" d="M210.99 -0.110001L135.91 74.97C113.98 96.9 101.65 126.65 101.65 157.67C101.65 198.53 85.4199 237.71 56.5299 266.6L-58.3901 381.52V-0.110001H210.99Z" fill="white"/>
<path opacity="0.03" d="M178.64 517.94L178.82 517.89C180.87 538.74 194.34 557.69 215.22 565.73C230.85 571.75 247.49 570.46 261.38 563.52L261.41 563.76C274.19 558.06 289.16 557.3 303.23 562.84C330.57 573.61 344.35 604.65 334 632.15C333.18 634.32 332.24 636.41 331.18 638.41C326.52 647.24 328.12 657.98 335.11 665.11C353.46 683.83 360.18 712.32 349.87 738.34C335.93 773.49 295.64 790.73 260.58 776.59C242.67 769.37 229.45 755.39 222.72 738.75L222.59 738.93C219.46 731.23 213.28 724.78 204.91 721.56C196.34 718.26 187.22 719 179.63 722.84L179.59 722.78C167.07 728.18 152.51 728.87 138.78 723.58C123.69 717.77 112.71 705.92 107.51 691.86C104.86 684.7 97.9697 679.98 90.3297 680.21C83.7097 680.41 76.9398 679.39 70.3498 677.01C41.9398 666.74 27.5098 635.62 38.0598 607.32C42.3898 595.7 50.2797 586.46 60.0197 580.37C72.8697 572.33 78.3598 556.42 73.6998 542C69.8998 530.26 70.0798 517.16 75.1598 504.79C86.3498 477.61 117.61 464.33 144.96 475.12C163.71 482.51 176.03 499.26 178.65 517.93L178.64 517.94Z" fill="white"/>
<path opacity="0.03" d="M1525.82 657.304L1525.97 657.404C1511.3 672.364 1505.42 694.854 1512.65 716.024C1518.07 731.874 1529.74 743.804 1543.98 750.004L1543.81 750.184C1556.38 756.324 1566.58 767.314 1571.36 781.654C1580.65 809.524 1565.7 840.024 1537.97 849.734C1535.78 850.504 1533.57 851.124 1531.36 851.594C1521.6 853.684 1514.39 861.814 1513.41 871.744C1510.83 897.834 1493.31 921.274 1466.74 930.064C1430.84 941.944 1391.76 922.124 1380.09 886.154C1374.13 867.794 1376.36 848.684 1384.8 832.834H1384.57C1388.47 825.504 1389.44 816.624 1386.54 808.144C1383.57 799.454 1377.15 792.934 1369.33 789.574L1369.35 789.514C1357.17 783.374 1347.3 772.654 1342.54 758.734C1337.31 743.434 1339.34 727.404 1346.79 714.394C1350.58 707.764 1349.78 699.444 1344.7 693.744C1340.29 688.794 1336.73 682.954 1334.33 676.374C1323.97 647.994 1338.56 616.954 1367.04 606.874C1378.73 602.734 1390.88 602.854 1401.8 606.414C1416.21 611.114 1431.94 605.104 1440 592.264C1446.56 581.814 1456.72 573.534 1469.47 569.504C1497.5 560.634 1527.75 576.084 1537.03 603.974C1543.4 623.094 1538.47 643.294 1525.84 657.294L1525.82 657.304Z" fill="white"/>
<g opacity="0.02">
<path d="M-331 684.47C-331 638.78 -256.19 579.51 -210.32 579.51C-164.45 579.51 -118.23 616.86 -118.23 662.55C-118.23 678.69 -124.19 692.66 -133.92 703.99C-155.22 723.41 -193.2 765.48 -177.32 792.17C-118.23 891.48 -50.83 774.62 35.93 781.79C94.62 786.65 291.9 845.78 338.84 702.7L338.72 702.66C352.64 664.55 389.34 637.32 432.42 637.32C450.48 637.32 467.42 642.11 482.03 650.47C516.91 670.45 535.69 709.93 530.33 749.64L528.16 765.7C522.64 806.58 541.97 847.22 577.87 867.78C592.91 876.39 610.35 881.32 628.94 881.32C685.6 881.32 731.53 835.57 731.53 779.14C731.53 722.71 792.92 688.29 844.5 691.23C897.67 694.25 937.15 707.9 953.99 755.63C953.99 755.63 953.92 755.11 954.3 757.42C962.55 807.49 1000.99 847.73 1052.83 847.73C1107.43 847.73 1151.7 803.65 1151.7 749.26C1151.7 679.43 1105.98 671.05 1105.48 632.16C1105.48 610.58 1123.04 593.09 1144.7 593.09C1167.33 594.15 1191.88 595.37 1208.61 595.96C1212.42 595.96 1216.14 595.52 1219.7 594.69C1241.19 589.69 1257.19 570.5 1257.19 547.57C1257.19 520.85 1235.44 499.19 1208.61 499.19V499.04C1150.78 499.04 1103.84 452.64 1103.25 395.18C1102.66 337.18 1150.16 289.27 1208.4 289.16C1218.95 289.14 1229.13 290.66 1238.74 293.52C1288.5 306.78 1307.98 342.19 1343.95 343.42C1369.43 343.42 1390.09 322.84 1390.09 297.46C1390.09 291.75 1389.04 286.28 1387.13 281.24C1378.85 259.39 1354.4 248.22 1332.03 255.25L1315.51 260.44C1311.41 261.42 1307.14 261.94 1302.74 261.94C1272.69 261.94 1246.65 210.78 1238.59 191.65C1217.25 153.12 1176.07 127.02 1128.77 127.02C1059.55 127.02 1003.44 182.91 1003.44 251.85C1003.44 279.53 1012.49 305.11 1027.8 325.81L1027.14 326.3C1033.5 334.48 1037.28 344.75 1037.28 355.9C1037.28 382.64 1015.51 404.32 988.67 404.32C973.34 404.32 959.66 397.25 950.75 386.21L950.41 386.48C922.8 354.15 881.65 333.64 835.69 333.64C752.55 333.64 685.14 400.77 685.14 483.58L684.86 477.84C684.86 542.48 632.24 594.89 567.34 594.89C502.44 594.89 449.82 542.49 449.82 477.84V462.66C449.82 410.01 406.96 367.33 354.1 367.33L349.27 367.54C346.52 367.66 343.76 367.8 341.02 368.07C337.55 368.41 334.02 368.59 330.45 368.59C283.94 368.59 244.51 338.76 230.85 297.49C220.9 276.01 199.09 261.1 173.78 261.1C139.09 261.1 110.97 289.11 110.97 323.66C110.97 356.13 135.81 382.82 167.59 385.92C211.06 391.39 244.64 428.65 244.64 473.42C244.64 493.29 238.02 511.63 226.85 526.35L236.59 510.14C196.48 588.87 147.71 620.79 76.7 649.68C62.79 655.88 47.37 659.33 31.15 659.33C-30.52 659.33 -80.51 609.54 -80.51 548.12C-80.51 524.16 -71.88 502.42 -58.94 484.26C-53.83 476.67 -50.85 467.54 -50.85 457.72C-50.85 431.37 -72.3 410 -98.76 410C-105.4 409.87 -112.17 411.52 -119.03 414.48C-166.25 432.76 -182.31 498.8 -207.36 516.21C-207.46 516.29 -207.56 516.37 -207.66 516.45C-222.98 528.41 -244.1 529.67 -260.99 520.05C-285.83 505.9 -329.54 476.62 -331.01 444.33" fill="white"/>
<mask id="mask0_63_1208" style="mask-type:luminance" maskUnits="userSpaceOnUse" x="-332" y="127" width="1723" height="755">
<path d="M-331 684.47C-331 638.78 -256.19 579.51 -210.32 579.51C-164.45 579.51 -118.23 616.86 -118.23 662.55C-118.23 678.69 -124.19 692.66 -133.92 703.99C-155.22 723.41 -193.2 765.48 -177.32 792.17C-118.23 891.48 -50.83 774.62 35.93 781.79C94.62 786.65 291.9 845.78 338.84 702.7L338.72 702.66C352.64 664.55 389.34 637.32 432.42 637.32C450.48 637.32 467.42 642.11 482.03 650.47C516.91 670.45 535.69 709.93 530.33 749.64L528.16 765.7C522.64 806.58 541.97 847.22 577.87 867.78C592.91 876.39 610.35 881.32 628.94 881.32C685.6 881.32 731.53 835.57 731.53 779.14C731.53 722.71 792.92 688.29 844.5 691.23C897.67 694.25 937.15 707.9 953.99 755.63C953.99 755.63 953.92 755.11 954.3 757.42C962.55 807.49 1000.99 847.73 1052.83 847.73C1107.43 847.73 1151.7 803.65 1151.7 749.26C1151.7 679.43 1105.98 671.05 1105.48 632.16C1105.48 610.58 1123.04 593.09 1144.7 593.09C1167.33 594.15 1191.88 595.37 1208.61 595.96C1212.42 595.96 1216.14 595.52 1219.7 594.69C1241.19 589.69 1257.19 570.5 1257.19 547.57C1257.19 520.85 1235.44 499.19 1208.61 499.19V499.04C1150.78 499.04 1103.84 452.64 1103.25 395.18C1102.66 337.18 1150.16 289.27 1208.4 289.16C1218.95 289.14 1229.13 290.66 1238.74 293.52C1288.5 306.78 1307.98 342.19 1343.95 343.42C1369.43 343.42 1390.09 322.84 1390.09 297.46C1390.09 291.75 1389.04 286.28 1387.13 281.24C1378.85 259.39 1354.4 248.22 1332.03 255.25L1315.51 260.44C1311.41 261.42 1307.14 261.94 1302.74 261.94C1272.69 261.94 1246.65 210.78 1238.59 191.65C1217.25 153.12 1176.07 127.02 1128.77 127.02C1059.55 127.02 1003.44 182.91 1003.44 251.85C1003.44 279.53 1012.49 305.11 1027.8 325.81L1027.14 326.3C1033.5 334.48 1037.28 344.75 1037.28 355.9C1037.28 382.64 1015.51 404.32 988.67 404.32C973.34 404.32 959.66 397.25 950.75 386.21L950.41 386.48C922.8 354.15 881.65 333.64 835.69 333.64C752.55 333.64 685.14 400.77 685.14 483.58L684.86 477.84C684.86 542.48 632.24 594.89 567.34 594.89C502.44 594.89 449.82 542.49 449.82 477.84V462.66C449.82 410.01 406.96 367.33 354.1 367.33L349.27 367.54C346.52 367.66 343.76 367.8 341.02 368.07C337.55 368.41 334.02 368.59 330.45 368.59C283.94 368.59 244.51 338.76 230.85 297.49C220.9 276.01 199.09 261.1 173.78 261.1C139.09 261.1 110.97 289.11 110.97 323.66C110.97 356.13 135.81 382.82 167.59 385.92C211.06 391.39 244.64 428.65 244.64 473.42C244.64 493.29 238.02 511.63 226.85 526.35L236.59 510.14C196.48 588.87 147.71 620.79 76.7 649.68C62.79 655.88 47.37 659.33 31.15 659.33C-30.52 659.33 -80.51 609.54 -80.51 548.12C-80.51 524.16 -71.88 502.42 -58.94 484.26C-53.83 476.67 -50.85 467.54 -50.85 457.72C-50.85 431.37 -72.3 410 -98.76 410C-105.4 409.87 -112.17 411.52 -119.03 414.48C-166.25 432.76 -182.31 498.8 -207.36 516.21C-207.46 516.29 -207.56 516.37 -207.66 516.45C-222.98 528.41 -244.1 529.67 -260.99 520.05C-285.83 505.9 -329.54 476.62 -331.01 444.33" fill="white"/>
</mask>
<g mask="url(#mask0_63_1208)">
<path d="M151.1 491C151.1 491 149.3 364.81 226.16 348.69C303.02 332.57 347.45 417.93 347.45 417.93C487.49 444.85 478.24 542.71 495.15 579.46C495.39 579.98 496.17 579.84 496.25 579.27L524.21 384.48L296.29 342.84L213.56 254.76C213.56 254.76 86.2499 256.27 103.82 358.39C121.39 460.51 151.09 491 151.09 491H151.1Z" fill="white"/>
<path d="M116.41 192.83L240.08 300.67C186.16 252.16 98.1801 320.78 130.1 410.65L63.3701 293.56L116.41 192.83Z" fill="white"/>
<path d="M352.62 677.09C265.52 788.33 133.63 798.14 25.8701 781.49L299.72 831.22L354.74 743.69L352.62 677.09Z" fill="white"/>
<path d="M1069.6 127.04C1189.98 131.28 1168.76 196.92 1249.63 257.81C1330.5 318.7 1377.23 249.96 1377.23 249.96L1145.61 83.74C1145.61 83.74 949.22 122.8 1069.6 127.04Z" fill="white"/>
</g>
</g>
<path d="M1053.92 192C1046.24 192 1039.41 195.564 1035 201.107C1037.76 200.009 1040.79 199.4 1043.95 199.4C1057.25 199.4 1068.03 210.083 1068.03 223.253C1068.03 228.823 1066.1 233.941 1062.87 238C1071.74 234.479 1078 225.894 1078 215.853C1078 202.677 1067.22 192 1053.92 192Z" fill="white"/>
<path d="M1266.2 475.704C1260.73 475.704 1256.3 471.257 1256.3 465.796C1256.3 465.36 1255.94 465 1255.5 465C1255.06 465 1254.7 465.36 1254.7 465.796C1254.7 471.265 1250.26 475.704 1244.8 475.704C1244.36 475.704 1244 476.064 1244 476.5C1244 476.936 1244.36 477.296 1244.8 477.296C1250.27 477.296 1254.7 481.743 1254.7 487.204C1254.7 487.64 1255.06 488 1255.5 488C1255.94 488 1256.3 487.64 1256.3 487.204C1256.3 481.735 1260.74 477.296 1266.2 477.296C1266.64 477.296 1267 476.936 1267 476.5C1267 476.064 1266.64 475.704 1266.2 475.704Z" fill="white"/>
<path d="M105.12 774.77C101.16 774.77 97.93 771.55 97.93 767.58C97.93 767.26 97.67 767 97.35 767C97.03 767 96.77 767.26 96.77 767.58C96.77 771.54 93.55 774.77 89.58 774.77C89.26 774.77 89 775.03 89 775.35C89 775.67 89.26 775.93 89.58 775.93C93.54 775.93 96.77 779.15 96.77 783.12C96.77 783.44 97.03 783.7 97.35 783.7C97.67 783.7 97.93 783.44 97.93 783.12C97.93 779.16 101.15 775.93 105.12 775.93C105.44 775.93 105.7 775.67 105.7 775.35C105.7 775.03 105.44 774.77 105.12 774.77Z" fill="#FAC352"/>
<path d="M350.01 858.02C352.777 858.02 355.02 855.777 355.02 853.01C355.02 850.243 352.777 848 350.01 848C347.243 848 345 850.243 345 853.01C345 855.777 347.243 858.02 350.01 858.02Z" fill="white"/>
<path d="M827.01 547.02C829.777 547.02 832.02 544.777 832.02 542.01C832.02 539.243 829.777 537 827.01 537C824.243 537 822 539.243 822 542.01C822 544.777 824.243 547.02 827.01 547.02Z" fill="white"/>
<path d="M1239.01 715.02C1241.78 715.02 1244.02 712.777 1244.02 710.01C1244.02 707.243 1241.78 705 1239.01 705C1236.24 705 1234 707.243 1234 710.01C1234 712.777 1236.24 715.02 1239.01 715.02Z" fill="white"/>
<path d="M184.61 874.22C186.051 874.22 187.22 873.052 187.22 871.61C187.22 870.169 186.051 869 184.61 869C183.169 869 182 870.169 182 871.61C182 873.052 183.169 874.22 184.61 874.22Z" fill="#9A86C2"/>
<path d="M1075.61 298.22C1077.05 298.22 1078.22 297.052 1078.22 295.61C1078.22 294.169 1077.05 293 1075.61 293C1074.17 293 1073 294.169 1073 295.61C1073 297.052 1074.17 298.22 1075.61 298.22Z" fill="#9A86C2"/>
<path d="M585.61 652.22C587.051 652.22 588.22 651.052 588.22 649.61C588.22 648.169 587.051 647 585.61 647C584.169 647 583 648.169 583 649.61C583 651.052 584.169 652.22 585.61 652.22Z" fill="#9A86C2"/>
<path d="M59.61 384.22C61.0515 384.22 62.22 383.052 62.22 381.61C62.22 380.169 61.0515 379 59.61 379C58.1685 379 57 380.169 57 381.61C57 383.052 58.1685 384.22 59.61 384.22Z" fill="#9A86C2"/>
<path d="M1217.61 183.22C1219.05 183.22 1220.22 182.052 1220.22 180.61C1220.22 179.169 1219.05 178 1217.61 178C1216.17 178 1215 179.169 1215 180.61C1215 182.052 1216.17 183.22 1217.61 183.22Z" fill="#9A86C2"/>
<path d="M384.61 784.22C386.051 784.22 387.22 783.051 387.22 781.61C387.22 780.169 386.051 779 384.61 779C383.169 779 382 780.169 382 781.61C382 783.051 383.169 784.22 384.61 784.22Z" fill="#9A86C2"/>
<path d="M924.61 197.22C926.051 197.22 927.22 196.051 927.22 194.61C927.22 193.169 926.051 192 924.61 192C923.169 192 922 193.169 922 194.61C922 196.051 923.169 197.22 924.61 197.22Z" fill="#9A86C2"/>
<path d="M64.61 737.22C66.0515 737.22 67.22 736.051 67.22 734.61C67.22 733.169 66.0515 732 64.61 732C63.1685 732 62 733.169 62 734.61C62 736.051 63.1685 737.22 64.61 737.22Z" fill="white"/>
<path d="M306.61 217.22C308.051 217.22 309.22 216.051 309.22 214.61C309.22 213.169 308.051 212 306.61 212C305.169 212 304 213.169 304 214.61C304 216.051 305.169 217.22 306.61 217.22Z" fill="white"/>
<path d="M1188.61 774.22C1190.05 774.22 1191.22 773.051 1191.22 771.61C1191.22 770.169 1190.05 769 1188.61 769C1187.17 769 1186 770.169 1186 771.61C1186 773.051 1187.17 774.22 1188.61 774.22Z" fill="white"/>
<path d="M145.61 191.053C147.051 191.053 148.22 189.922 148.22 188.526C148.22 187.131 147.051 186 145.61 186C144.169 186 143 187.131 143 188.526C143 189.922 144.169 191.053 145.61 191.053Z" fill="white"/>
<path d="M68.12 227.77C64.16 227.77 60.93 224.55 60.93 220.58C60.93 220.26 60.67 220 60.35 220C60.03 220 59.77 220.26 59.77 220.58C59.77 224.54 56.55 227.77 52.58 227.77C52.26 227.77 52 228.03 52 228.35C52 228.67 52.26 228.93 52.58 228.93C56.54 228.93 59.77 232.15 59.77 236.12C59.77 236.44 60.03 236.7 60.35 236.7C60.67 236.7 60.93 236.44 60.93 236.12C60.93 232.16 64.15 228.93 68.12 228.93C68.44 228.93 68.7 228.67 68.7 228.35C68.7 228.03 68.44 227.77 68.12 227.77Z" fill="#FAC352"/>
</g>
<defs>
<linearGradient id="paint0_linear_63_1208" x1="756.1" y1="51.06" x2="756.1" y2="961.24" gradientUnits="userSpaceOnUse">
<stop stop-color="#040407"/>
<stop offset="1" stop-color="#3E1996"/>
</linearGradient>
<radialGradient id="paint1_radial_63_1208" cx="0" cy="0" r="1" gradientUnits="userSpaceOnUse" gradientTransform="translate(761.397 899) scale(859.447 237)">
<stop stop-color="#9888BF"/>
<stop offset="0.9" stop-color="#9888BF" stop-opacity="0.03"/>
</radialGradient>
<clipPath id="clip0_63_1208">
<rect width="1513" height="1162" fill="white" transform="translate(0 -2)"/>
</clipPath>
</defs>
</svg>
