<svg xmlns="http://www.w3.org/2000/svg" xmlns:xlink="http://www.w3.org/1999/xlink" viewBox="0 0 307.68 429.55"><defs><style>.cls-1{fill:url(#linear-gradient);}.cls-2{fill:#f1e6f3;}.cls-10,.cls-17,.cls-18,.cls-3{fill:none;}.cls-4{fill:#d5c4e1;}.cls-5{fill:#f2f2f2;}.cls-6{fill:#e6e6e6;}.cls-7{fill:#9888bf;}.cls-8{fill:#fefbfd;opacity:0.62;}.cls-9{fill:#eda74c;}.cls-10{stroke:#27464f;stroke-linecap:round;stroke-linejoin:round;stroke-width:1.37px;}.cls-11{fill:#f2c666;}.cls-12{fill:#c494c3;}.cls-13{clip-path:url(#clip-path);}.cls-14{fill:#e5893e;}.cls-15{fill:#fff;}.cls-16{clip-path:url(#clip-path-2);}.cls-17{stroke:#b3b3b3;stroke-width:0.95px;}.cls-17,.cls-18{stroke-miterlimit:10;}.cls-18{stroke:#000;}.cls-19{fill:#3c63ac;}.cls-20{fill:#27464f;}.cls-21{opacity:0.21;}.cls-22{clip-path:url(#clip-path-3);}</style><linearGradient id="linear-gradient" x1="150.77" y1="140.34" x2="175.57" y2="140.34" gradientUnits="userSpaceOnUse"><stop offset="0" stop-color="#f29538"/><stop offset="1" stop-color="#eda74c"/></linearGradient><clipPath id="clip-path" transform="translate(20.41)"><path class="cls-1" d="M164.43,109.47A298.26,298.26,0,0,1,152,162.12c-.32,1-.65,1.91-1,2.87a3.84,3.84,0,0,0,1.14,4.21,9.49,9.49,0,0,0,7.49,1.91,2.81,2.81,0,0,0,2.27-1.87,302.8,302.8,0,0,0,13.69-56.59A48,48,0,0,1,164.43,109.47Z"/></clipPath><clipPath id="clip-path-2" transform="translate(20.41)"><path class="cls-2" d="M109.54,217a4.33,4.33,0,0,0,.31-.73c0-.06,0-.13.05-.19,2-5.12,3.21-11.87,4-17.82,3.26-21.73.63-43.78-9.72-66.27h0c-1.26-8.87-2.7-17.44-6.08-23a4.44,4.44,0,0,0-.46-.59h0a48.45,48.45,0,0,0-1.58-4.77c-2-5.14-9.75-3.94-13.5.11C69.06,118.27,63.39,133,64.23,148h0C59.83,140.12,54,133.83,46,129.73a3.73,3.73,0,0,0-5.39,2.91,68.45,68.45,0,0,0,2.72,28h0a88.31,88.31,0,0,0,6.88,27.58h0a18,18,0,0,0,1.35,2.94A72.15,72.15,0,0,0,73.33,218c10.91,9.53,23.48,15,32.7,4.49a14.09,14.09,0,0,0,3-4.45C109.23,217.72,109.38,217.37,109.54,217Z"/></clipPath><clipPath id="clip-path-3" transform="translate(20.41)"><path class="cls-3" d="M61.5,288.83l40.61-30.39A80.36,80.36,0,0,1,159.66,243l7.49.78C151.11,298.7,105,307.83,61.5,288.83Z"/></clipPath></defs><g id="Layer_2" data-name="Layer 2"><g id="Layer_1-2" data-name="Layer 1"><path class="cls-4" d="M118.65,411.51a13.47,13.47,0,0,1,25.58,5.91v6.08H100.88V401l22.28,2.41,3.69,1.15" transform="translate(20.41)"/><path class="cls-5" d="M126.84,389.89h13A7.14,7.14,0,0,1,147,397v0a7.23,7.23,0,0,1-7.23,7.23H127.22a7.37,7.37,0,0,1-7.37-7.37v0A7,7,0,0,1,126.84,389.89Z"/><path class="cls-6" d="M112.41,289,130,335.71a25.06,25.06,0,0,1-2.29,22.1l-21.77,34.56a2.85,2.85,0,0,0,.42,3.64c3.12,2.85,10.47,2.43,12.93-1.27l22.68-36a25,25,0,0,0,2.28-22.1l-17.62-48.22" transform="translate(20.41)"/><path class="cls-7" d="M104.76,423.5h38a1.48,1.48,0,0,1,1.48,1.48v4.57a0,0,0,0,1,0,0H100.88a0,0,0,0,1,0,0v-2.16A3.89,3.89,0,0,1,104.76,423.5Z" transform="translate(265.52 853.05) rotate(-180)"/><path class="cls-7" d="M122.28,406.91c9.11-6.89,19.41-1.36,21.53,7.54C139,407.11,131.94,404.31,122.28,406.91Z" transform="translate(20.41)"/><circle class="cls-8" cx="204.54" cy="69.02" r="69.02"/><path class="cls-9" d="M181.82,26.4a43.12,43.12,0,0,0-19.9,4.84l0,0c-3.82-.25-6.52-2.51-8.63-5.84a.93.93,0,0,0-1.63.09,12.72,12.72,0,0,0-.09,10.4.94.94,0,0,1-1.2,1.24A14.28,14.28,0,0,1,142,27.24a1.21,1.21,0,0,0-2.25-.2c-4.27,9.37-3.49,18.09,2,26.19l0,0A43.35,43.35,0,1,0,181.82,26.4Z" transform="translate(20.41)"/><path class="cls-2" d="M170.05,199c27.51,25.28,68.81,27.43,112.29,12.59a3.41,3.41,0,0,1,4.47,2.61c4.88,29.44-29.9,56.36-65.81,61.48-19.87,2.84-63.67-10.79-63.67-10.79" transform="translate(20.41)"/><circle class="cls-10" cx="189.68" cy="56.77" r="14.86"/><circle class="cls-10" cx="218.6" cy="52.28" r="14.86"/><path class="cls-10" d="M154.53,54.88h0a16.14,16.14,0,0,0-17.9,5l-2.06,2.54" transform="translate(20.41)"/><path class="cls-11" d="M220.36,92.85c-9.26-.52-18.18-7.53-20.23-15.07a7.62,7.62,0,0,0-14.56,3.11c-.22,16.32,19.74,39.85,32.56,39.32a13.77,13.77,0,1,0,0-27.54" transform="translate(20.41)"/><path class="cls-4" d="M50.21,189l-4.83,2A24.46,24.46,0,0,1,24,189.57h0a16.07,16.07,0,0,0-24,15.24l.6,7.5C4,253.25,53,297.56,100,297.56s71.12-38.16,71.12-85.25c.29-13.09-2.23-22.52-6-30.32-5.45-7-14.37-11.75-24.7-15.61-6.28-2.38-21.31-2.63-27.11-1.6" transform="translate(20.41)"/><path class="cls-12" d="M163.39,164.78s8.32,4.7,7.37,9.77-8.83,10.38-20.54,5.28S139.48,166.66,141.5,164c2.73-3.58,10.46-1.88,10.46-1.88" transform="translate(20.41)"/><path class="cls-1" d="M164.43,109.47A298.26,298.26,0,0,1,152,162.12c-.32,1-.65,1.91-1,2.87a3.84,3.84,0,0,0,1.14,4.21,9.49,9.49,0,0,0,7.49,1.91,2.81,2.81,0,0,0,2.27-1.87,302.8,302.8,0,0,0,13.69-56.59A48,48,0,0,1,164.43,109.47Z" transform="translate(20.41)"/><g class="cls-13"><path class="cls-14" d="M153.22,177.89c6.73-19,15.2-51.15,18.08-71.4L160,102.78c-2.88,20.26-10.39,47.33-17.12,66.35" transform="translate(20.41)"/><polygon class="cls-4" points="177.74 139.5 191.25 143.35 182.71 172.47 169.34 171.21 177.74 139.5"/></g><path class="cls-6" d="M54.52,273.38a5.76,5.76,0,0,1,1.43,8L33.9,313.18A23.75,23.75,0,0,0,31.61,337c.2.42.41.84.64,1.24l33.56,57.52a2.75,2.75,0,0,1-.6,3.46c-3.14,2.56-10.14,1.76-12.3-1.91l-25.3-43.39c-.22-.41-7.25-13.65-7.45-14.07-3.66-7.61-3.83-20.06,2-28.54l24.27-36.46a5.75,5.75,0,0,1,8.05-1.46Z" transform="translate(20.41)"/><path class="cls-12" d="M180.84,138c-1.55,4.82-9.22,9.36-20.34,4.51-8.93-3.9-10.49-9.52-9.82-13.14C160.76,134.5,170.82,137.53,180.84,138Z" transform="translate(20.41)"/><path class="cls-15" d="M137.45,108.68a60.83,60.83,0,0,1-10.62-17.8,2.61,2.61,0,0,1,1.53-3.38h0a2.57,2.57,0,0,1,3.3,1.48,55.36,55.36,0,0,0,9.8,16.27,2.57,2.57,0,0,1-.09,3.45l-.05.06A2.59,2.59,0,0,1,137.45,108.68Z" transform="translate(20.41)"/><path class="cls-15" d="M239.62,44.34A61.23,61.23,0,0,0,209,13.41a3,3,0,0,0-3.85,1.38h0a2.91,2.91,0,0,0,1.41,3.93,55.63,55.63,0,0,1,27.54,28.07,2.92,2.92,0,0,0,3.63,1.58l.23-.08A2.93,2.93,0,0,0,239.62,44.34Z" transform="translate(20.41)"/><path class="cls-2" d="M109.54,217a4.33,4.33,0,0,0,.31-.73c0-.06,0-.13.05-.19,2-5.12,3.21-11.87,4-17.82,3.26-21.73.63-43.78-9.72-66.27h0c-1.26-8.87-2.7-17.44-6.08-23a4.44,4.44,0,0,0-.46-.59h0a48.45,48.45,0,0,0-1.58-4.77c-2-5.14-9.75-3.94-13.5.11C69.06,118.27,63.39,133,64.23,148h0C59.83,140.12,54,133.83,46,129.73a3.73,3.73,0,0,0-5.39,2.91,68.45,68.45,0,0,0,2.72,28h0a88.31,88.31,0,0,0,6.88,27.58h0a18,18,0,0,0,1.35,2.94A72.15,72.15,0,0,0,73.33,218c10.91,9.53,23.48,15,32.7,4.49a14.09,14.09,0,0,0,3-4.45C109.23,217.72,109.38,217.37,109.54,217Z" transform="translate(20.41)"/><g class="cls-16"><circle class="cls-17" cx="71.64" cy="117.7" r="56.44"/><circle class="cls-17" cx="63.58" cy="106.9" r="56.44"/><circle class="cls-17" cx="58.68" cy="90.68" r="56.44"/><path class="cls-18" d="M-19.92,61.54A56.44,56.44,0,0,1,90.54,84.81" transform="translate(20.41)"/><circle class="cls-17" cx="80.39" cy="128.94" r="56.44"/><circle class="cls-17" cx="86.88" cy="141.2" r="56.44"/><path class="cls-17" d="M127.43,166.13A56.44,56.44,0,0,1,17,142.86" transform="translate(20.41)"/><path class="cls-17" d="M129,180A56.44,56.44,0,0,1,18.58,156.69" transform="translate(20.41)"/></g><circle class="cls-19" cx="154.78" cy="215.74" r="9.18"/><circle class="cls-7" cx="177.74" cy="220.85" r="4.6"/><ellipse class="cls-20" cx="176.49" cy="58.18" rx="3.03" ry="3.73" transform="translate(13.39 28.92) rotate(-9.19)"/><ellipse class="cls-20" cx="190.88" cy="55.85" rx="3.03" ry="3.73" transform="translate(13.95 31.19) rotate(-9.19)"/><rect class="cls-20" x="185.88" y="37.22" width="15.57" height="5.45" rx="2.25" transform="translate(37.23 -48.53) rotate(14.92)"/><rect class="cls-20" x="154.95" y="39.18" width="15.57" height="5.45" rx="2.25" transform="matrix(0.97, -0.26, 0.26, 0.97, 15.11, 43.33)"/><path class="cls-15" d="M203.24,101.41c2,6.52,8.34,10,15.47,5.16a.64.64,0,0,0-.28-1.16,42.39,42.39,0,0,1-14.29-4.75A.63.63,0,0,0,203.24,101.41Z" transform="translate(20.41)"/><path class="cls-21" d="M186,86.3c1,11.93,5.73,19.73,13.33,23.1H199A56.55,56.55,0,0,1,186,86.3Z" transform="translate(20.41)"/><path class="cls-4" d="M51,409.83a13.48,13.48,0,0,0-25.58,5.92v6.08H68.77V399.29l-22.28,2.42-3.69,1.14" transform="translate(20.41)"/><path class="cls-5" d="M68.62,387.9H83.54A7.14,7.14,0,0,1,90.68,395v0a7.23,7.23,0,0,1-7.23,7.23H69a7.37,7.37,0,0,1-7.37-7.37v0A7,7,0,0,1,68.62,387.9Z"/><path class="cls-7" d="M45.84,421.83H89.19a0,0,0,0,1,0,0v4.26a1.79,1.79,0,0,1-1.79,1.79H49.27a3.43,3.43,0,0,1-3.43-3.43v-2.61A0,0,0,0,1,45.84,421.83Z"/><path class="cls-7" d="M47.29,405.21c-9.11-6.89-19.41-1.36-21.53,7.54C30.58,405.41,37.62,402.61,47.29,405.21Z" transform="translate(20.41)"/><path class="cls-6" d="M62,288.82l40.61-30.38A80.32,80.32,0,0,1,160.13,243l7,.83C151.11,298.74,105.43,307.82,62,288.82Z" transform="translate(20.41)"/><g class="cls-22"><circle class="cls-17" cx="183.23" cy="214.33" r="56.44"/><circle class="cls-17" cx="192.14" cy="204.21" r="56.44"/><circle class="cls-17" cx="174.03" cy="225.2" r="56.44"/><circle class="cls-17" cx="163.38" cy="234.08" r="56.44"/><circle class="cls-17" cx="151.55" cy="242.43" r="56.44"/><circle class="cls-17" cx="138.35" cy="246.86" r="56.44"/></g></g></g></svg>